<svg xmlns="http://www.w3.org/2000/svg" xmlns:xlink="http://www.w3.org/1999/xlink" width="500" zoomAndPan="magnify" viewBox="0 0 375 374.999991" height="500" preserveAspectRatio="xMidYMid meet" version="1.0"><defs><g/><clipPath id="42b5cb1c47"><path d="M 0 137.183594 L 80 137.183594 L 80 221.933594 L 0 221.933594 Z M 0 137.183594 " clip-rule="nonzero"/></clipPath><clipPath id="6ba67e057e"><path d="M 46.097656 176.667969 L 10.28125 176.667969 C 8.890625 176.667969 7.886719 175.332031 8.261719 173.988281 L 18.09375 138.730469 C 18.347656 137.820312 19.171875 137.1875 20.113281 137.1875 L 55.933594 137.1875 C 57.320312 137.1875 58.328125 138.523438 57.953125 139.867188 L 48.117188 175.128906 C 47.863281 176.039062 47.039062 176.667969 46.097656 176.667969 Z M 22.832031 203.28125 L 27.898438 185.128906 C 28.273438 183.78125 27.265625 182.449219 25.878906 182.449219 L 7.464844 182.449219 C 6.523438 182.449219 5.699219 183.078125 5.445312 183.988281 L 0.382812 202.144531 C 0.0078125 203.488281 1.011719 204.824219 2.402344 204.824219 L 20.816406 204.824219 C 21.753906 204.824219 22.578125 204.191406 22.832031 203.28125 Z M 32.152344 183.988281 L 22.316406 219.246094 C 21.941406 220.59375 22.949219 221.925781 24.335938 221.925781 L 60.15625 221.925781 C 61.097656 221.925781 61.921875 221.296875 62.175781 220.386719 L 72.007812 185.128906 C 72.386719 183.78125 71.378906 182.449219 69.992188 182.449219 L 34.171875 182.449219 C 33.230469 182.449219 32.40625 183.078125 32.152344 183.988281 Z M 57.4375 155.832031 L 52.371094 173.988281 C 51.996094 175.332031 53.003906 176.667969 54.390625 176.667969 L 72.804688 176.667969 C 73.746094 176.667969 74.570312 176.039062 74.824219 175.128906 L 79.886719 156.972656 C 80.261719 155.628906 79.257812 154.292969 77.867188 154.292969 L 59.457031 154.292969 C 58.515625 154.292969 57.691406 154.921875 57.4375 155.832031 Z M 57.4375 155.832031 " clip-rule="nonzero"/></clipPath><linearGradient x1="114.296443" gradientTransform="matrix(0.168451, 0, 0, 0.169476, 0.303216, 137.189057)" y1="-47.633969" x2="358.61087" gradientUnits="userSpaceOnUse" y2="547.607267" id="715083675a"><stop stop-opacity="1" stop-color="rgb(85.099792%, 85.099792%, 85.099792%)" offset="0"/><stop stop-opacity="1" stop-color="rgb(85.099792%, 85.099792%, 85.099792%)" offset="0.0625"/><stop stop-opacity="1" stop-color="rgb(85.128784%, 84.999084%, 84.999084%)" offset="0.09375"/><stop stop-opacity="1" stop-color="rgb(85.235596%, 84.631348%, 84.631348%)" offset="0.0976562"/><stop stop-opacity="1" stop-color="rgb(85.314941%, 84.362793%, 84.362793%)" offset="0.101562"/><stop stop-opacity="1" stop-color="rgb(85.392761%, 84.094238%, 84.094238%)" offset="0.105469"/><stop stop-opacity="1" stop-color="rgb(85.472107%, 83.825684%, 83.825684%)" offset="0.109375"/><stop stop-opacity="1" stop-color="rgb(85.549927%, 83.557129%, 83.557129%)" offset="0.113281"/><stop stop-opacity="1" stop-color="rgb(85.627747%, 83.288574%, 83.288574%)" offset="0.117187"/><stop stop-opacity="1" stop-color="rgb(85.705566%, 83.018494%, 83.018494%)" offset="0.121094"/><stop stop-opacity="1" stop-color="rgb(85.784912%, 82.749939%, 82.749939%)" offset="0.125"/><stop stop-opacity="1" stop-color="rgb(85.862732%, 82.481384%, 82.481384%)" offset="0.128906"/><stop stop-opacity="1" stop-color="rgb(85.942078%, 82.21283%, 82.21283%)" offset="0.132812"/><stop stop-opacity="1" stop-color="rgb(86.019897%, 81.944275%, 81.944275%)" offset="0.136719"/><stop stop-opacity="1" stop-color="rgb(86.099243%, 81.67572%, 81.67572%)" offset="0.140625"/><stop stop-opacity="1" stop-color="rgb(86.177063%, 81.40564%, 81.40564%)" offset="0.144531"/><stop stop-opacity="1" stop-color="rgb(86.256409%, 81.137085%, 81.137085%)" offset="0.148438"/><stop stop-opacity="1" stop-color="rgb(86.334229%, 80.86853%, 80.86853%)" offset="0.152344"/><stop stop-opacity="1" stop-color="rgb(86.413574%, 80.599976%, 80.599976%)" offset="0.15625"/><stop stop-opacity="1" stop-color="rgb(86.491394%, 80.331421%, 80.331421%)" offset="0.160156"/><stop stop-opacity="1" stop-color="rgb(86.57074%, 80.062866%, 80.062866%)" offset="0.164062"/><stop stop-opacity="1" stop-color="rgb(86.64856%, 79.794312%, 79.794312%)" offset="0.167969"/><stop stop-opacity="1" stop-color="rgb(86.727905%, 79.525757%, 79.525757%)" offset="0.171875"/><stop stop-opacity="1" stop-color="rgb(86.805725%, 79.255676%, 79.255676%)" offset="0.175781"/><stop stop-opacity="1" stop-color="rgb(86.885071%, 78.987122%, 78.987122%)" offset="0.179687"/><stop stop-opacity="1" stop-color="rgb(86.962891%, 78.718567%, 78.718567%)" offset="0.183594"/><stop stop-opacity="1" stop-color="rgb(87.042236%, 78.450012%, 78.450012%)" offset="0.1875"/><stop stop-opacity="1" stop-color="rgb(87.120056%, 78.181458%, 78.181458%)" offset="0.191406"/><stop stop-opacity="1" stop-color="rgb(87.199402%, 77.912903%, 77.912903%)" offset="0.195312"/><stop stop-opacity="1" stop-color="rgb(87.277222%, 77.642822%, 77.642822%)" offset="0.199219"/><stop stop-opacity="1" stop-color="rgb(87.356567%, 77.374268%, 77.374268%)" offset="0.203125"/><stop stop-opacity="1" stop-color="rgb(87.434387%, 77.105713%, 77.105713%)" offset="0.207031"/><stop stop-opacity="1" stop-color="rgb(87.513733%, 76.837158%, 76.837158%)" offset="0.210937"/><stop stop-opacity="1" stop-color="rgb(87.591553%, 76.568604%, 76.568604%)" offset="0.214844"/><stop stop-opacity="1" stop-color="rgb(87.669373%, 76.300049%, 76.300049%)" offset="0.21875"/><stop stop-opacity="1" stop-color="rgb(87.747192%, 76.031494%, 76.031494%)" offset="0.222656"/><stop stop-opacity="1" stop-color="rgb(87.826538%, 75.762939%, 75.762939%)" offset="0.226562"/><stop stop-opacity="1" stop-color="rgb(87.904358%, 75.492859%, 75.492859%)" offset="0.230469"/><stop stop-opacity="1" stop-color="rgb(87.983704%, 75.224304%, 75.224304%)" offset="0.234375"/><stop stop-opacity="1" stop-color="rgb(88.061523%, 74.95575%, 74.95575%)" offset="0.238281"/><stop stop-opacity="1" stop-color="rgb(88.140869%, 74.687195%, 74.687195%)" offset="0.242188"/><stop stop-opacity="1" stop-color="rgb(88.218689%, 74.41864%, 74.41864%)" offset="0.246094"/><stop stop-opacity="1" stop-color="rgb(88.298035%, 74.150085%, 74.150085%)" offset="0.25"/><stop stop-opacity="1" stop-color="rgb(88.375854%, 73.880005%, 73.880005%)" offset="0.253906"/><stop stop-opacity="1" stop-color="rgb(88.4552%, 73.61145%, 73.61145%)" offset="0.257812"/><stop stop-opacity="1" stop-color="rgb(88.53302%, 73.342896%, 73.342896%)" offset="0.261719"/><stop stop-opacity="1" stop-color="rgb(88.612366%, 73.074341%, 73.074341%)" offset="0.265625"/><stop stop-opacity="1" stop-color="rgb(88.690186%, 72.805786%, 72.805786%)" offset="0.269531"/><stop stop-opacity="1" stop-color="rgb(88.769531%, 72.537231%, 72.537231%)" offset="0.273437"/><stop stop-opacity="1" stop-color="rgb(88.847351%, 72.268677%, 72.268677%)" offset="0.277344"/><stop stop-opacity="1" stop-color="rgb(88.926697%, 72.000122%, 72.000122%)" offset="0.28125"/><stop stop-opacity="1" stop-color="rgb(89.004517%, 71.730042%, 71.730042%)" offset="0.285156"/><stop stop-opacity="1" stop-color="rgb(89.083862%, 71.461487%, 71.461487%)" offset="0.289062"/><stop stop-opacity="1" stop-color="rgb(89.161682%, 71.192932%, 71.192932%)" offset="0.292969"/><stop stop-opacity="1" stop-color="rgb(89.241028%, 70.924377%, 70.924377%)" offset="0.296875"/><stop stop-opacity="1" stop-color="rgb(89.318848%, 70.655823%, 70.655823%)" offset="0.300781"/><stop stop-opacity="1" stop-color="rgb(89.398193%, 70.387268%, 70.387268%)" offset="0.304687"/><stop stop-opacity="1" stop-color="rgb(89.476013%, 70.117188%, 70.117188%)" offset="0.308594"/><stop stop-opacity="1" stop-color="rgb(89.553833%, 69.848633%, 69.848633%)" offset="0.3125"/><stop stop-opacity="1" stop-color="rgb(89.631653%, 69.580078%, 69.580078%)" offset="0.316406"/><stop stop-opacity="1" stop-color="rgb(89.710999%, 69.311523%, 69.311523%)" offset="0.320312"/><stop stop-opacity="1" stop-color="rgb(89.788818%, 69.042969%, 69.042969%)" offset="0.324219"/><stop stop-opacity="1" stop-color="rgb(89.868164%, 68.774414%, 68.774414%)" offset="0.328125"/><stop stop-opacity="1" stop-color="rgb(89.945984%, 68.505859%, 68.505859%)" offset="0.332031"/><stop stop-opacity="1" stop-color="rgb(90.02533%, 68.237305%, 68.237305%)" offset="0.335938"/><stop stop-opacity="1" stop-color="rgb(90.103149%, 67.967224%, 67.967224%)" offset="0.339844"/><stop stop-opacity="1" stop-color="rgb(90.182495%, 67.698669%, 67.698669%)" offset="0.34375"/><stop stop-opacity="1" stop-color="rgb(90.260315%, 67.430115%, 67.430115%)" offset="0.347656"/><stop stop-opacity="1" stop-color="rgb(90.339661%, 67.16156%, 67.16156%)" offset="0.351562"/><stop stop-opacity="1" stop-color="rgb(90.41748%, 66.893005%, 66.893005%)" offset="0.355469"/><stop stop-opacity="1" stop-color="rgb(90.496826%, 66.624451%, 66.624451%)" offset="0.359375"/><stop stop-opacity="1" stop-color="rgb(90.574646%, 66.355896%, 66.355896%)" offset="0.363281"/><stop stop-opacity="1" stop-color="rgb(90.653992%, 66.087341%, 66.087341%)" offset="0.367187"/><stop stop-opacity="1" stop-color="rgb(90.731812%, 65.817261%, 65.817261%)" offset="0.371094"/><stop stop-opacity="1" stop-color="rgb(90.811157%, 65.548706%, 65.548706%)" offset="0.375"/><stop stop-opacity="1" stop-color="rgb(90.888977%, 65.280151%, 65.280151%)" offset="0.378906"/><stop stop-opacity="1" stop-color="rgb(90.968323%, 65.011597%, 65.011597%)" offset="0.382812"/><stop stop-opacity="1" stop-color="rgb(91.046143%, 64.743042%, 64.743042%)" offset="0.386719"/><stop stop-opacity="1" stop-color="rgb(91.125488%, 64.474487%, 64.474487%)" offset="0.390625"/><stop stop-opacity="1" stop-color="rgb(91.203308%, 64.204407%, 64.204407%)" offset="0.394531"/><stop stop-opacity="1" stop-color="rgb(91.282654%, 63.935852%, 63.935852%)" offset="0.398437"/><stop stop-opacity="1" stop-color="rgb(91.360474%, 63.667297%, 63.667297%)" offset="0.402344"/><stop stop-opacity="1" stop-color="rgb(91.439819%, 63.398743%, 63.398743%)" offset="0.40625"/><stop stop-opacity="1" stop-color="rgb(91.517639%, 63.130188%, 63.130188%)" offset="0.410156"/><stop stop-opacity="1" stop-color="rgb(91.595459%, 62.861633%, 62.861633%)" offset="0.414062"/><stop stop-opacity="1" stop-color="rgb(91.673279%, 62.593079%, 62.593079%)" offset="0.417969"/><stop stop-opacity="1" stop-color="rgb(91.752625%, 62.324524%, 62.324524%)" offset="0.421875"/><stop stop-opacity="1" stop-color="rgb(91.830444%, 62.054443%, 62.054443%)" offset="0.425781"/><stop stop-opacity="1" stop-color="rgb(91.90979%, 61.785889%, 61.785889%)" offset="0.429687"/><stop stop-opacity="1" stop-color="rgb(91.98761%, 61.517334%, 61.517334%)" offset="0.433594"/><stop stop-opacity="1" stop-color="rgb(92.066956%, 61.248779%, 61.248779%)" offset="0.4375"/><stop stop-opacity="1" stop-color="rgb(92.144775%, 60.980225%, 60.980225%)" offset="0.441406"/><stop stop-opacity="1" stop-color="rgb(92.224121%, 60.71167%, 60.71167%)" offset="0.445312"/><stop stop-opacity="1" stop-color="rgb(92.301941%, 60.441589%, 60.441589%)" offset="0.449219"/><stop stop-opacity="1" stop-color="rgb(92.381287%, 60.173035%, 60.173035%)" offset="0.453125"/><stop stop-opacity="1" stop-color="rgb(92.459106%, 59.90448%, 59.90448%)" offset="0.457031"/><stop stop-opacity="1" stop-color="rgb(92.538452%, 59.635925%, 59.635925%)" offset="0.460937"/><stop stop-opacity="1" stop-color="rgb(92.616272%, 59.367371%, 59.367371%)" offset="0.464844"/><stop stop-opacity="1" stop-color="rgb(92.695618%, 59.098816%, 59.098816%)" offset="0.46875"/><stop stop-opacity="1" stop-color="rgb(92.773438%, 58.830261%, 58.830261%)" offset="0.472656"/><stop stop-opacity="1" stop-color="rgb(92.852783%, 58.561707%, 58.561707%)" offset="0.476562"/><stop stop-opacity="1" stop-color="rgb(92.930603%, 58.291626%, 58.291626%)" offset="0.480469"/><stop stop-opacity="1" stop-color="rgb(93.009949%, 58.023071%, 58.023071%)" offset="0.484375"/><stop stop-opacity="1" stop-color="rgb(93.087769%, 57.754517%, 57.754517%)" offset="0.488281"/><stop stop-opacity="1" stop-color="rgb(93.167114%, 57.485962%, 57.485962%)" offset="0.492187"/><stop stop-opacity="1" stop-color="rgb(93.244934%, 57.217407%, 57.217407%)" offset="0.496094"/><stop stop-opacity="1" stop-color="rgb(93.32428%, 56.948853%, 56.948853%)" offset="0.5"/><stop stop-opacity="1" stop-color="rgb(93.4021%, 56.678772%, 56.678772%)" offset="0.503906"/><stop stop-opacity="1" stop-color="rgb(93.481445%, 56.410217%, 56.410217%)" offset="0.507812"/><stop stop-opacity="1" stop-color="rgb(93.559265%, 56.141663%, 56.141663%)" offset="0.511719"/><stop stop-opacity="1" stop-color="rgb(93.637085%, 55.873108%, 55.873108%)" offset="0.515625"/><stop stop-opacity="1" stop-color="rgb(93.714905%, 55.604553%, 55.604553%)" offset="0.519531"/><stop stop-opacity="1" stop-color="rgb(93.79425%, 55.335999%, 55.335999%)" offset="0.523438"/><stop stop-opacity="1" stop-color="rgb(93.87207%, 55.067444%, 55.067444%)" offset="0.527344"/><stop stop-opacity="1" stop-color="rgb(93.951416%, 54.798889%, 54.798889%)" offset="0.53125"/><stop stop-opacity="1" stop-color="rgb(94.029236%, 54.528809%, 54.528809%)" offset="0.535156"/><stop stop-opacity="1" stop-color="rgb(94.108582%, 54.260254%, 54.260254%)" offset="0.539062"/><stop stop-opacity="1" stop-color="rgb(94.186401%, 53.991699%, 53.991699%)" offset="0.542969"/><stop stop-opacity="1" stop-color="rgb(94.265747%, 53.723145%, 53.723145%)" offset="0.546875"/><stop stop-opacity="1" stop-color="rgb(94.343567%, 53.45459%, 53.45459%)" offset="0.550781"/><stop stop-opacity="1" stop-color="rgb(94.422913%, 53.186035%, 53.186035%)" offset="0.554687"/><stop stop-opacity="1" stop-color="rgb(94.500732%, 52.915955%, 52.915955%)" offset="0.558594"/><stop stop-opacity="1" stop-color="rgb(94.580078%, 52.6474%, 52.6474%)" offset="0.5625"/><stop stop-opacity="1" stop-color="rgb(94.657898%, 52.378845%, 52.378845%)" offset="0.566406"/><stop stop-opacity="1" stop-color="rgb(94.737244%, 52.110291%, 52.110291%)" offset="0.570312"/><stop stop-opacity="1" stop-color="rgb(94.815063%, 51.841736%, 51.841736%)" offset="0.574219"/><stop stop-opacity="1" stop-color="rgb(94.894409%, 51.573181%, 51.573181%)" offset="0.578125"/><stop stop-opacity="1" stop-color="rgb(94.972229%, 51.304626%, 51.304626%)" offset="0.582031"/><stop stop-opacity="1" stop-color="rgb(95.051575%, 51.036072%, 51.036072%)" offset="0.585937"/><stop stop-opacity="1" stop-color="rgb(95.129395%, 50.765991%, 50.765991%)" offset="0.589844"/><stop stop-opacity="1" stop-color="rgb(95.20874%, 50.497437%, 50.497437%)" offset="0.59375"/><stop stop-opacity="1" stop-color="rgb(95.28656%, 50.228882%, 50.228882%)" offset="0.597656"/><stop stop-opacity="1" stop-color="rgb(95.365906%, 49.960327%, 49.960327%)" offset="0.601562"/><stop stop-opacity="1" stop-color="rgb(95.443726%, 49.691772%, 49.691772%)" offset="0.605469"/><stop stop-opacity="1" stop-color="rgb(95.523071%, 49.423218%, 49.423218%)" offset="0.609375"/><stop stop-opacity="1" stop-color="rgb(95.600891%, 49.154663%, 49.154663%)" offset="0.613281"/><stop stop-opacity="1" stop-color="rgb(95.678711%, 48.886108%, 48.886108%)" offset="0.617188"/><stop stop-opacity="1" stop-color="rgb(95.756531%, 48.616028%, 48.616028%)" offset="0.621094"/><stop stop-opacity="1" stop-color="rgb(95.835876%, 48.347473%, 48.347473%)" offset="0.625"/><stop stop-opacity="1" stop-color="rgb(95.913696%, 48.078918%, 48.078918%)" offset="0.628906"/><stop stop-opacity="1" stop-color="rgb(95.993042%, 47.810364%, 47.810364%)" offset="0.632812"/><stop stop-opacity="1" stop-color="rgb(96.070862%, 47.541809%, 47.541809%)" offset="0.636719"/><stop stop-opacity="1" stop-color="rgb(96.150208%, 47.273254%, 47.273254%)" offset="0.640625"/><stop stop-opacity="1" stop-color="rgb(96.228027%, 47.003174%, 47.003174%)" offset="0.644531"/><stop stop-opacity="1" stop-color="rgb(96.307373%, 46.734619%, 46.734619%)" offset="0.648437"/><stop stop-opacity="1" stop-color="rgb(96.385193%, 46.466064%, 46.466064%)" offset="0.652344"/><stop stop-opacity="1" stop-color="rgb(96.464539%, 46.19751%, 46.19751%)" offset="0.65625"/><stop stop-opacity="1" stop-color="rgb(96.542358%, 45.928955%, 45.928955%)" offset="0.660156"/><stop stop-opacity="1" stop-color="rgb(96.621704%, 45.6604%, 45.6604%)" offset="0.664062"/><stop stop-opacity="1" stop-color="rgb(96.699524%, 45.391846%, 45.391846%)" offset="0.667969"/><stop stop-opacity="1" stop-color="rgb(96.77887%, 45.123291%, 45.123291%)" offset="0.671875"/><stop stop-opacity="1" stop-color="rgb(96.856689%, 44.85321%, 44.85321%)" offset="0.675781"/><stop stop-opacity="1" stop-color="rgb(96.936035%, 44.584656%, 44.584656%)" offset="0.679687"/><stop stop-opacity="1" stop-color="rgb(97.013855%, 44.316101%, 44.316101%)" offset="0.683594"/><stop stop-opacity="1" stop-color="rgb(97.093201%, 44.047546%, 44.047546%)" offset="0.6875"/><stop stop-opacity="1" stop-color="rgb(97.171021%, 43.778992%, 43.778992%)" offset="0.691406"/><stop stop-opacity="1" stop-color="rgb(97.250366%, 43.510437%, 43.510437%)" offset="0.695312"/><stop stop-opacity="1" stop-color="rgb(97.328186%, 43.240356%, 43.240356%)" offset="0.699219"/><stop stop-opacity="1" stop-color="rgb(97.407532%, 42.971802%, 42.971802%)" offset="0.703125"/><stop stop-opacity="1" stop-color="rgb(97.485352%, 42.703247%, 42.703247%)" offset="0.707031"/><stop stop-opacity="1" stop-color="rgb(97.563171%, 42.434692%, 42.434692%)" offset="0.710938"/><stop stop-opacity="1" stop-color="rgb(97.640991%, 42.166138%, 42.166138%)" offset="0.714844"/><stop stop-opacity="1" stop-color="rgb(97.720337%, 41.897583%, 41.897583%)" offset="0.71875"/><stop stop-opacity="1" stop-color="rgb(97.798157%, 41.629028%, 41.629028%)" offset="0.722656"/><stop stop-opacity="1" stop-color="rgb(97.877502%, 41.360474%, 41.360474%)" offset="0.726562"/><stop stop-opacity="1" stop-color="rgb(97.955322%, 41.090393%, 41.090393%)" offset="0.730469"/><stop stop-opacity="1" stop-color="rgb(98.034668%, 40.821838%, 40.821838%)" offset="0.734375"/><stop stop-opacity="1" stop-color="rgb(98.112488%, 40.553284%, 40.553284%)" offset="0.738281"/><stop stop-opacity="1" stop-color="rgb(98.191833%, 40.284729%, 40.284729%)" offset="0.742187"/><stop stop-opacity="1" stop-color="rgb(98.269653%, 40.016174%, 40.016174%)" offset="0.746094"/><stop stop-opacity="1" stop-color="rgb(98.348999%, 39.74762%, 39.74762%)" offset="0.75"/><stop stop-opacity="1" stop-color="rgb(98.426819%, 39.477539%, 39.477539%)" offset="0.753906"/><stop stop-opacity="1" stop-color="rgb(98.506165%, 39.208984%, 39.208984%)" offset="0.757812"/><stop stop-opacity="1" stop-color="rgb(98.583984%, 38.94043%, 38.94043%)" offset="0.761719"/><stop stop-opacity="1" stop-color="rgb(98.66333%, 38.671875%, 38.671875%)" offset="0.765625"/><stop stop-opacity="1" stop-color="rgb(98.74115%, 38.40332%, 38.40332%)" offset="0.769531"/><stop stop-opacity="1" stop-color="rgb(98.820496%, 38.134766%, 38.134766%)" offset="0.773438"/><stop stop-opacity="1" stop-color="rgb(98.898315%, 37.866211%, 37.866211%)" offset="0.777344"/><stop stop-opacity="1" stop-color="rgb(98.977661%, 37.597656%, 37.597656%)" offset="0.78125"/><stop stop-opacity="1" stop-color="rgb(99.055481%, 37.327576%, 37.327576%)" offset="0.785156"/><stop stop-opacity="1" stop-color="rgb(99.134827%, 37.059021%, 37.059021%)" offset="0.789062"/><stop stop-opacity="1" stop-color="rgb(99.212646%, 36.790466%, 36.790466%)" offset="0.792969"/><stop stop-opacity="1" stop-color="rgb(99.291992%, 36.521912%, 36.521912%)" offset="0.796875"/><stop stop-opacity="1" stop-color="rgb(99.369812%, 36.253357%, 36.253357%)" offset="0.800781"/><stop stop-opacity="1" stop-color="rgb(99.449158%, 35.984802%, 35.984802%)" offset="0.804688"/><stop stop-opacity="1" stop-color="rgb(99.526978%, 35.714722%, 35.714722%)" offset="0.808594"/><stop stop-opacity="1" stop-color="rgb(99.604797%, 35.446167%, 35.446167%)" offset="0.8125"/><stop stop-opacity="1" stop-color="rgb(99.682617%, 35.177612%, 35.177612%)" offset="0.816406"/><stop stop-opacity="1" stop-color="rgb(99.761963%, 34.909058%, 34.909058%)" offset="0.820312"/><stop stop-opacity="1" stop-color="rgb(99.839783%, 34.640503%, 34.640503%)" offset="0.824219"/><stop stop-opacity="1" stop-color="rgb(99.919128%, 34.371948%, 34.371948%)" offset="0.828125"/><stop stop-opacity="1" stop-color="rgb(99.958801%, 34.234619%, 34.234619%)" offset="0.84375"/><stop stop-opacity="1" stop-color="rgb(100%, 34.098816%, 34.098816%)" offset="0.875"/><stop stop-opacity="1" stop-color="rgb(100%, 34.098816%, 34.098816%)" offset="1"/></linearGradient></defs><g fill="#ffffff" fill-opacity="1"><g transform="translate(87.506036, 189.84592)"><g><path d="M 7.25 0.25 C 6.601562 0.25 6.054688 0.03125 5.609375 -0.40625 C 5.171875 -0.851562 4.953125 -1.398438 4.953125 -2.046875 L 4.953125 -32.5 C 4.953125 -33.414062 5.273438 -34.203125 5.921875 -34.859375 C 6.566406 -35.523438 7.347656 -35.859375 8.265625 -35.859375 L 8.921875 -35.859375 C 10.015625 -35.859375 10.953125 -35.347656 11.734375 -34.328125 L 31.375 -5.96875 L 31.375 -33.515625 C 31.375 -34.160156 31.59375 -34.710938 32.03125 -35.171875 C 32.476562 -35.628906 33.023438 -35.859375 33.671875 -35.859375 C 34.316406 -35.859375 34.867188 -35.628906 35.328125 -35.171875 C 35.785156 -34.710938 36.015625 -34.160156 36.015625 -33.515625 L 36.015625 -3.0625 C 36.015625 -2.144531 35.679688 -1.363281 35.015625 -0.71875 C 34.359375 -0.0703125 33.570312 0.25 32.65625 0.25 L 32.03125 0.25 C 31.488281 0.25 30.976562 0.125 30.5 -0.125 C 30.03125 -0.382812 29.640625 -0.71875 29.328125 -1.125 L 9.59375 -29.640625 L 9.59375 -2.046875 C 9.59375 -1.398438 9.363281 -0.851562 8.90625 -0.40625 C 8.445312 0.03125 7.894531 0.25 7.25 0.25 Z M 7.25 0.25 "/></g></g></g><g fill="#ffffff" fill-opacity="1"><g transform="translate(128.45855, 189.84592)"><g><path d="M 4.84375 0.25 C 4.164062 0.25 3.613281 0.03125 3.1875 -0.40625 C 2.757812 -0.851562 2.546875 -1.398438 2.546875 -2.046875 C 2.546875 -2.316406 2.632812 -2.65625 2.8125 -3.0625 L 15.8125 -33.765625 C 16.082031 -34.378906 16.460938 -34.878906 16.953125 -35.265625 C 17.453125 -35.660156 18.0625 -35.859375 18.78125 -35.859375 L 19.28125 -35.859375 C 20 -35.859375 20.601562 -35.660156 21.09375 -35.265625 C 21.582031 -34.878906 21.96875 -34.378906 22.25 -33.765625 L 35.25 -3.0625 C 35.414062 -2.65625 35.5 -2.316406 35.5 -2.046875 C 35.5 -1.398438 35.285156 -0.851562 34.859375 -0.40625 C 34.441406 0.03125 33.894531 0.25 33.21875 0.25 C 32.738281 0.25 32.300781 0.125 31.90625 -0.125 C 31.519531 -0.382812 31.222656 -0.734375 31.015625 -1.171875 L 27.703125 -9.125 L 10.359375 -9.125 L 7.046875 -1.171875 C 6.835938 -0.734375 6.535156 -0.382812 6.140625 -0.125 C 5.753906 0.125 5.320312 0.25 4.84375 0.25 Z M 12.140625 -13.359375 L 25.921875 -13.359375 L 19.03125 -29.953125 Z M 12.140625 -13.359375 "/></g></g></g><g fill="#ffffff" fill-opacity="1"><g transform="translate(166.504095, 189.84592)"><g><path d="M 16.171875 0.515625 C 11.847656 0.515625 7.800781 -0.300781 4.03125 -1.9375 C 3.625 -2.101562 3.285156 -2.378906 3.015625 -2.765625 C 2.742188 -3.160156 2.609375 -3.582031 2.609375 -4.03125 C 2.609375 -4.601562 2.800781 -5.101562 3.1875 -5.53125 C 3.582031 -5.957031 4.082031 -6.171875 4.6875 -6.171875 C 5.03125 -6.171875 5.351562 -6.101562 5.65625 -5.96875 C 8.789062 -4.570312 12.144531 -3.875 15.71875 -3.875 C 21.664062 -3.875 24.640625 -5.832031 24.640625 -9.75 C 24.640625 -10.769531 24.253906 -11.617188 23.484375 -12.296875 C 22.722656 -12.972656 21.78125 -13.503906 20.65625 -13.890625 C 19.539062 -14.285156 17.941406 -14.753906 15.859375 -15.296875 C 13.109375 -16.015625 10.878906 -16.703125 9.171875 -17.359375 C 7.472656 -18.023438 6.007812 -19.019531 4.78125 -20.34375 C 3.5625 -21.675781 2.953125 -23.445312 2.953125 -25.65625 C 2.953125 -27.59375 3.460938 -29.351562 4.484375 -30.9375 C 5.503906 -32.519531 7.007812 -33.78125 9 -34.71875 C 10.988281 -35.65625 13.378906 -36.125 16.171875 -36.125 C 19.910156 -36.125 23.296875 -35.5625 26.328125 -34.4375 C 27.273438 -34.09375 27.75 -33.410156 27.75 -32.390625 C 27.75 -31.847656 27.5625 -31.351562 27.1875 -30.90625 C 26.8125 -30.46875 26.320312 -30.25 25.71875 -30.25 C 25.507812 -30.25 25.234375 -30.316406 24.890625 -30.453125 C 22.242188 -31.367188 19.507812 -31.828125 16.6875 -31.828125 C 14 -31.828125 11.8125 -31.316406 10.125 -30.296875 C 8.4375 -29.273438 7.59375 -27.847656 7.59375 -26.015625 C 7.59375 -24.796875 7.992188 -23.800781 8.796875 -23.03125 C 9.597656 -22.269531 10.601562 -21.675781 11.8125 -21.25 C 13.019531 -20.820312 14.660156 -20.367188 16.734375 -19.890625 C 19.421875 -19.242188 21.585938 -18.597656 23.234375 -17.953125 C 24.890625 -17.304688 26.300781 -16.300781 27.46875 -14.9375 C 28.644531 -13.582031 29.234375 -11.75 29.234375 -9.4375 C 29.234375 -7.53125 28.6875 -5.820312 27.59375 -4.3125 C 26.507812 -2.800781 24.976562 -1.617188 23 -0.765625 C 21.03125 0.0859375 18.753906 0.515625 16.171875 0.515625 Z M 16.171875 0.515625 "/></g></g></g><g fill="#ffffff" fill-opacity="1"><g transform="translate(197.919723, 189.84592)"><g><path d="M 20.65625 0.515625 C 17.257812 0.515625 14.207031 -0.222656 11.5 -1.703125 C 8.800781 -3.179688 6.675781 -5.304688 5.125 -8.078125 C 3.582031 -10.859375 2.8125 -14.097656 2.8125 -17.796875 C 2.8125 -21.503906 3.582031 -24.742188 5.125 -27.515625 C 6.675781 -30.296875 8.800781 -32.425781 11.5 -33.90625 C 14.207031 -35.382812 17.257812 -36.125 20.65625 -36.125 C 22.96875 -36.125 25.035156 -35.847656 26.859375 -35.296875 C 28.679688 -34.753906 30.492188 -33.972656 32.296875 -32.953125 C 33.046875 -32.546875 33.421875 -31.898438 33.421875 -31.015625 C 33.421875 -30.503906 33.234375 -30.050781 32.859375 -29.65625 C 32.484375 -29.269531 31.988281 -29.078125 31.375 -29.078125 C 31.03125 -29.078125 30.722656 -29.144531 30.453125 -29.28125 C 28.960938 -30.0625 27.5 -30.65625 26.0625 -31.0625 C 24.632812 -31.476562 22.988281 -31.6875 21.125 -31.6875 C 18.195312 -31.6875 15.703125 -31.082031 13.640625 -29.875 C 11.585938 -28.664062 10.039062 -27.015625 9 -24.921875 C 7.96875 -22.828125 7.453125 -20.453125 7.453125 -17.796875 C 7.453125 -15.148438 7.96875 -12.78125 9 -10.6875 C 10.039062 -8.59375 11.585938 -6.941406 13.640625 -5.734375 C 15.703125 -4.523438 18.195312 -3.921875 21.125 -3.921875 C 22.988281 -3.921875 24.632812 -4.125 26.0625 -4.53125 C 27.5 -4.945312 28.960938 -5.546875 30.453125 -6.328125 C 30.722656 -6.460938 31.03125 -6.53125 31.375 -6.53125 C 31.988281 -6.53125 32.484375 -6.34375 32.859375 -5.96875 C 33.234375 -5.59375 33.421875 -5.132812 33.421875 -4.59375 C 33.421875 -3.707031 33.046875 -3.0625 32.296875 -2.65625 C 30.492188 -1.632812 28.679688 -0.847656 26.859375 -0.296875 C 25.035156 0.242188 22.96875 0.515625 20.65625 0.515625 Z M 20.65625 0.515625 "/></g></g></g><g fill="#ffffff" fill-opacity="1"><g transform="translate(233.364297, 189.84592)"><g><path d="M 7.25 0.25 C 6.601562 0.25 6.054688 0.03125 5.609375 -0.40625 C 5.171875 -0.851562 4.953125 -1.398438 4.953125 -2.046875 L 4.953125 -33.515625 C 4.953125 -34.160156 5.171875 -34.710938 5.609375 -35.171875 C 6.054688 -35.628906 6.601562 -35.859375 7.25 -35.859375 C 7.894531 -35.859375 8.445312 -35.628906 8.90625 -35.171875 C 9.363281 -34.710938 9.59375 -34.160156 9.59375 -33.515625 L 9.59375 -19.953125 L 28.921875 -19.953125 L 28.921875 -33.515625 C 28.921875 -34.160156 29.140625 -34.710938 29.578125 -35.171875 C 30.023438 -35.628906 30.570312 -35.859375 31.21875 -35.859375 C 31.863281 -35.859375 32.414062 -35.628906 32.875 -35.171875 C 33.332031 -34.710938 33.5625 -34.160156 33.5625 -33.515625 L 33.5625 -2.046875 C 33.5625 -1.398438 33.332031 -0.851562 32.875 -0.40625 C 32.414062 0.03125 31.863281 0.25 31.21875 0.25 C 30.570312 0.25 30.023438 0.03125 29.578125 -0.40625 C 29.140625 -0.851562 28.921875 -1.398438 28.921875 -2.046875 L 28.921875 -15.609375 L 9.59375 -15.609375 L 9.59375 -2.046875 C 9.59375 -1.398438 9.363281 -0.851562 8.90625 -0.40625 C 8.445312 0.03125 7.894531 0.25 7.25 0.25 Z M 7.25 0.25 "/></g></g></g><g fill="#ffffff" fill-opacity="1"><g transform="translate(271.868842, 189.84592)"><g><path d="M 4.84375 0.25 C 4.164062 0.25 3.613281 0.03125 3.1875 -0.40625 C 2.757812 -0.851562 2.546875 -1.398438 2.546875 -2.046875 C 2.546875 -2.316406 2.632812 -2.65625 2.8125 -3.0625 L 15.8125 -33.765625 C 16.082031 -34.378906 16.460938 -34.878906 16.953125 -35.265625 C 17.453125 -35.660156 18.0625 -35.859375 18.78125 -35.859375 L 19.28125 -35.859375 C 20 -35.859375 20.601562 -35.660156 21.09375 -35.265625 C 21.582031 -34.878906 21.96875 -34.378906 22.25 -33.765625 L 35.25 -3.0625 C 35.414062 -2.65625 35.5 -2.316406 35.5 -2.046875 C 35.5 -1.398438 35.285156 -0.851562 34.859375 -0.40625 C 34.441406 0.03125 33.894531 0.25 33.21875 0.25 C 32.738281 0.25 32.300781 0.125 31.90625 -0.125 C 31.519531 -0.382812 31.222656 -0.734375 31.015625 -1.171875 L 27.703125 -9.125 L 10.359375 -9.125 L 7.046875 -1.171875 C 6.835938 -0.734375 6.535156 -0.382812 6.140625 -0.125 C 5.753906 0.125 5.320312 0.25 4.84375 0.25 Z M 12.140625 -13.359375 L 25.921875 -13.359375 L 19.03125 -29.953125 Z M 12.140625 -13.359375 "/></g></g></g><g fill="#ffffff" fill-opacity="1"><g transform="translate(309.914387, 189.84592)"><g><path d="M 15.515625 0.25 C 14.867188 0.25 14.320312 0.03125 13.875 -0.40625 C 13.4375 -0.851562 13.21875 -1.398438 13.21875 -2.046875 L 13.21875 -31.265625 L 2.8125 -31.265625 C 2.195312 -31.265625 1.679688 -31.46875 1.265625 -31.875 C 0.859375 -32.289062 0.65625 -32.804688 0.65625 -33.421875 C 0.65625 -34.023438 0.859375 -34.539062 1.265625 -34.96875 C 1.679688 -35.394531 2.195312 -35.609375 2.8125 -35.609375 L 28.21875 -35.609375 C 28.820312 -35.609375 29.335938 -35.394531 29.765625 -34.96875 C 30.191406 -34.539062 30.40625 -34.023438 30.40625 -33.421875 C 30.40625 -32.804688 30.191406 -32.289062 29.765625 -31.875 C 29.335938 -31.46875 28.820312 -31.265625 28.21875 -31.265625 L 17.859375 -31.265625 L 17.859375 -2.046875 C 17.859375 -1.398438 17.628906 -0.851562 17.171875 -0.40625 C 16.710938 0.03125 16.160156 0.25 15.515625 0.25 Z M 15.515625 0.25 "/></g></g></g><g fill="#ffffff" fill-opacity="1"><g transform="translate(340.973023, 189.84592)"><g><path d="M 16.171875 0.515625 C 11.847656 0.515625 7.800781 -0.300781 4.03125 -1.9375 C 3.625 -2.101562 3.285156 -2.378906 3.015625 -2.765625 C 2.742188 -3.160156 2.609375 -3.582031 2.609375 -4.03125 C 2.609375 -4.601562 2.800781 -5.101562 3.1875 -5.53125 C 3.582031 -5.957031 4.082031 -6.171875 4.6875 -6.171875 C 5.03125 -6.171875 5.351562 -6.101562 5.65625 -5.96875 C 8.789062 -4.570312 12.144531 -3.875 15.71875 -3.875 C 21.664062 -3.875 24.640625 -5.832031 24.640625 -9.75 C 24.640625 -10.769531 24.253906 -11.617188 23.484375 -12.296875 C 22.722656 -12.972656 21.78125 -13.503906 20.65625 -13.890625 C 19.539062 -14.285156 17.941406 -14.753906 15.859375 -15.296875 C 13.109375 -16.015625 10.878906 -16.703125 9.171875 -17.359375 C 7.472656 -18.023438 6.007812 -19.019531 4.78125 -20.34375 C 3.5625 -21.675781 2.953125 -23.445312 2.953125 -25.65625 C 2.953125 -27.59375 3.460938 -29.351562 4.484375 -30.9375 C 5.503906 -32.519531 7.007812 -33.78125 9 -34.71875 C 10.988281 -35.65625 13.378906 -36.125 16.171875 -36.125 C 19.910156 -36.125 23.296875 -35.5625 26.328125 -34.4375 C 27.273438 -34.09375 27.75 -33.410156 27.75 -32.390625 C 27.75 -31.847656 27.5625 -31.351562 27.1875 -30.90625 C 26.8125 -30.46875 26.320312 -30.25 25.71875 -30.25 C 25.507812 -30.25 25.234375 -30.316406 24.890625 -30.453125 C 22.242188 -31.367188 19.507812 -31.828125 16.6875 -31.828125 C 14 -31.828125 11.8125 -31.316406 10.125 -30.296875 C 8.4375 -29.273438 7.59375 -27.847656 7.59375 -26.015625 C 7.59375 -24.796875 7.992188 -23.800781 8.796875 -23.03125 C 9.597656 -22.269531 10.601562 -21.675781 11.8125 -21.25 C 13.019531 -20.820312 14.660156 -20.367188 16.734375 -19.890625 C 19.421875 -19.242188 21.585938 -18.597656 23.234375 -17.953125 C 24.890625 -17.304688 26.300781 -16.300781 27.46875 -14.9375 C 28.644531 -13.582031 29.234375 -11.75 29.234375 -9.4375 C 29.234375 -7.53125 28.6875 -5.820312 27.59375 -4.3125 C 26.507812 -2.800781 24.976562 -1.617188 23 -0.765625 C 21.03125 0.0859375 18.753906 0.515625 16.171875 0.515625 Z M 16.171875 0.515625 "/></g></g></g><g clip-path="url(#42b5cb1c47)"><g clip-path="url(#6ba67e057e)"><path fill="url(#715083675a)" d="M 0.0078125 137.1875 L 0.0078125 221.925781 L 80.25 221.925781 L 80.25 137.1875 Z M 0.0078125 137.1875 " fill-rule="nonzero"/></g></g></svg>