<svg xmlns="http://www.w3.org/2000/svg" xmlns:xlink="http://www.w3.org/1999/xlink" width="500" zoomAndPan="magnify" viewBox="0 0 375 374.999991" height="500" preserveAspectRatio="xMidYMid meet" version="1.0"><defs><g/><clipPath id="80d45f0568"><path d="M 0 142.691406 L 110.25 142.691406 L 110.25 231.941406 L 0 231.941406 Z M 0 142.691406 " clip-rule="nonzero"/></clipPath><clipPath id="aebb4d57a5"><path d="M 96.9375 191.839844 C 96.9375 188.171875 99.917969 185.214844 103.601562 185.214844 C 107.285156 185.214844 110.25 188.1875 110.25 191.839844 C 110.25 195.511719 107.269531 198.464844 103.601562 198.464844 C 102.453125 198.464844 101.355469 198.175781 100.414062 197.664062 L 95.617188 204.699219 C 96.746094 205.6875 97.46875 207.140625 97.46875 208.777344 C 97.46875 211.765625 95.035156 214.191406 92.035156 214.191406 C 89.035156 214.191406 86.601562 211.765625 86.601562 208.777344 C 86.601562 206.730469 87.75 204.9375 89.449219 204.03125 L 88.09375 200.617188 C 87.785156 200.683594 87.460938 200.71875 87.132812 200.71875 C 84.753906 200.71875 82.832031 198.789062 82.832031 196.433594 C 82.832031 194.0625 84.769531 192.132812 87.132812 192.132812 C 87.527344 192.132812 87.921875 192.183594 88.28125 192.285156 L 91.074219 186.105469 C 90.390625 185.574219 89.945312 184.753906 89.945312 183.832031 C 89.945312 182.246094 91.230469 180.964844 92.824219 180.964844 C 93.527344 180.964844 94.160156 181.203125 94.65625 181.632812 L 99.660156 177.839844 C 99.300781 177.191406 99.09375 176.425781 99.09375 175.621094 C 99.09375 174.289062 99.675781 173.078125 100.585938 172.242188 L 97.5 167.714844 C 96.917969 167.988281 96.265625 168.144531 95.582031 168.144531 C 93.972656 168.144531 92.566406 167.289062 91.796875 166.027344 L 87.101562 167.988281 C 87.101562 168.058594 87.117188 168.125 87.117188 168.175781 C 87.117188 169.253906 86.328125 170.140625 85.300781 170.3125 L 84.667969 174.851562 C 86.242188 175.347656 87.375 176.816406 87.375 178.542969 C 87.375 180.675781 85.625 182.417969 83.484375 182.417969 C 82.042969 182.417969 80.792969 181.632812 80.109375 180.46875 L 74.539062 182.519531 C 74.539062 182.535156 74.539062 182.554688 74.539062 182.585938 C 74.539062 183.730469 73.613281 184.652344 72.464844 184.652344 C 72.347656 184.652344 72.210938 184.636719 72.089844 184.621094 L 69.261719 189.742188 C 69.605469 190.046875 69.894531 190.425781 70.085938 190.851562 L 77.898438 189.210938 C 78.019531 188.1875 78.890625 187.386719 79.953125 187.386719 C 81.101562 187.386719 82.027344 188.308594 82.027344 189.449219 C 82.027344 190.507812 81.222656 191.378906 80.195312 191.5 L 77.898438 202.425781 C 80.332031 203.210938 82.078125 205.484375 82.078125 208.164062 C 82.078125 211.492188 79.371094 214.207031 76.011719 214.207031 C 75.910156 214.207031 75.808594 214.207031 75.703125 214.207031 L 74.796875 219.808594 C 75.617188 220.183594 76.203125 221.019531 76.203125 221.992188 C 76.203125 223.085938 75.480469 223.992188 74.488281 224.296875 L 74.574219 228.53125 C 75.207031 228.769531 75.671875 229.402344 75.671875 230.121094 C 75.671875 231.058594 74.898438 231.828125 73.957031 231.828125 C 73.015625 231.828125 72.242188 231.058594 72.242188 230.121094 C 72.242188 229.949219 72.277344 229.777344 72.328125 229.605469 L 69.332031 227.113281 C 68.953125 227.371094 68.492188 227.523438 67.976562 227.523438 C 66.65625 227.523438 65.59375 226.464844 65.59375 225.152344 C 65.59375 224.210938 66.144531 223.410156 66.929688 223.015625 L 66.417969 220.183594 C 66.382812 220.183594 66.332031 220.183594 66.296875 220.183594 C 63.898438 220.183594 61.945312 218.238281 61.945312 215.847656 C 61.945312 213.457031 63.898438 211.507812 66.296875 211.507812 C 67.445312 211.507812 68.472656 211.953125 69.246094 212.671875 L 70.90625 211.355469 C 70.308594 210.417969 69.964844 209.324219 69.964844 208.128906 C 69.964844 206.984375 70.289062 205.910156 70.855469 204.988281 L 66.605469 201.742188 C 66.28125 201.964844 65.886719 202.101562 65.457031 202.101562 C 64.996094 202.101562 64.566406 201.949219 64.222656 201.691406 L 61.535156 203.554688 C 62.011719 204.425781 62.269531 205.414062 62.269531 206.472656 C 62.269531 209.855469 59.527344 212.585938 56.136719 212.585938 C 53.257812 212.585938 50.859375 210.621094 50.191406 207.957031 L 45.597656 208.589844 C 45.546875 210.757812 43.765625 212.5 41.570312 212.5 C 39.34375 212.5 37.542969 210.707031 37.542969 208.488281 C 37.542969 206.269531 39.34375 204.476562 41.570312 204.476562 C 41.980469 204.476562 42.375 204.542969 42.734375 204.644531 L 47.636719 194.761719 C 46.386719 193.925781 45.527344 192.558594 45.375 190.988281 L 41.332031 190.851562 C 41.039062 191.601562 40.320312 192.132812 39.464844 192.132812 C 39.242188 192.132812 39.035156 192.097656 38.828125 192.027344 L 35.589844 196.210938 C 36.601562 197.203125 37.21875 198.566406 37.21875 200.085938 C 37.21875 203.09375 34.769531 205.535156 31.753906 205.535156 C 29.214844 205.535156 27.074219 203.792969 26.457031 201.453125 L 22.703125 201.949219 C 22.636719 204.082031 20.871094 205.808594 18.710938 205.808594 C 16.5 205.808594 14.71875 204.03125 14.71875 201.828125 C 14.71875 199.746094 16.332031 198.039062 18.386719 197.867188 L 18.746094 193.496094 C 18.027344 193.191406 17.53125 192.472656 17.53125 191.636719 C 17.53125 190.527344 18.4375 189.605469 19.570312 189.605469 C 19.824219 189.605469 20.046875 189.65625 20.269531 189.722656 L 27.929688 180.332031 C 27.742188 180.027344 27.621094 179.652344 27.621094 179.257812 C 27.621094 178.710938 27.84375 178.214844 28.1875 177.859375 L 27.003906 175.570312 C 26.40625 175.792969 25.773438 175.910156 25.105469 175.910156 C 24.144531 175.910156 23.234375 175.65625 22.464844 175.230469 L 17.855469 181.597656 C 18.335938 182.125 18.625 182.84375 18.625 183.628906 C 18.625 185.300781 17.253906 186.667969 15.578125 186.667969 C 15.234375 186.667969 14.890625 186.617188 14.582031 186.496094 L 9.765625 194.316406 C 10.863281 195.203125 11.550781 196.554688 11.550781 198.074219 C 11.550781 200.753906 9.375 202.921875 6.683594 202.921875 C 3.992188 202.921875 1.816406 200.753906 1.816406 198.074219 C 1.816406 195.886719 3.273438 194.042969 5.261719 193.429688 L 4.882812 191.125 C 4.847656 191.125 4.832031 191.125 4.796875 191.125 C 2.296875 191.125 0.273438 189.109375 0.273438 186.617188 C 0.273438 184.140625 2.277344 182.125 4.761719 182.109375 L 5.039062 180.113281 C 2.140625 179.410156 -0.015625 176.800781 -0.015625 173.691406 C -0.015625 170.054688 2.949219 167.101562 6.597656 167.101562 C 9.628906 167.101562 12.199219 169.132812 12.972656 171.917969 L 19.636719 170.738281 C 19.636719 170.636719 19.636719 170.550781 19.636719 170.449219 C 19.636719 169.527344 19.878906 168.65625 20.269531 167.886719 L 15.351562 164.457031 C 14.804688 164.96875 14.066406 165.273438 13.261719 165.273438 C 11.566406 165.273438 10.179688 163.890625 10.179688 162.203125 C 10.179688 160.511719 11.566406 159.128906 13.261719 159.128906 C 14.960938 159.128906 16.347656 160.511719 16.347656 162.203125 C 16.347656 162.628906 16.261719 163.019531 16.105469 163.378906 L 21.023438 166.8125 C 21.726562 166.027344 22.671875 165.445312 23.714844 165.171875 L 23.699219 160.203125 C 21.847656 159.898438 20.441406 158.308594 20.441406 156.378906 C 20.441406 154.246094 22.191406 152.503906 24.332031 152.503906 C 25.601562 152.503906 26.714844 153.101562 27.417969 154.023438 L 33.636719 150.78125 C 33.484375 150.320312 33.398438 149.839844 33.398438 149.328125 C 33.398438 146.886719 35.386719 144.890625 37.851562 144.890625 C 40.304688 144.890625 42.308594 146.871094 42.308594 149.328125 C 42.308594 150.949219 41.433594 152.386719 40.113281 153.152344 L 42.171875 158.207031 C 42.496094 158.136719 42.820312 158.085938 43.179688 158.085938 C 43.988281 158.085938 44.757812 158.308594 45.410156 158.703125 L 50.070312 153.066406 C 49.007812 151.976562 48.339844 150.488281 48.339844 148.851562 C 48.339844 145.519531 51.046875 142.808594 54.40625 142.808594 C 57.746094 142.808594 60.472656 145.503906 60.472656 148.851562 C 60.472656 150.335938 59.921875 151.703125 59.03125 152.742188 L 63.660156 157.59375 C 63.933594 157.457031 64.242188 157.386719 64.566406 157.386719 C 64.652344 157.386719 64.738281 157.386719 64.804688 157.40625 L 67.273438 152.09375 C 66.261719 151.394531 65.59375 150.234375 65.59375 148.902344 C 65.59375 146.769531 67.34375 145.027344 69.484375 145.027344 C 71.625 145.027344 73.375 146.769531 73.375 148.902344 C 73.375 149.378906 73.289062 149.839844 73.132812 150.25 L 77.058594 152.519531 C 78.035156 151.242188 79.59375 150.402344 81.324219 150.402344 C 84.289062 150.402344 86.6875 152.792969 86.6875 155.75 C 86.6875 156.464844 86.550781 157.148438 86.292969 157.761719 L 92.085938 160.988281 C 92.890625 159.949219 94.160156 159.265625 95.597656 159.265625 C 98.050781 159.265625 100.039062 161.246094 100.039062 163.6875 C 100.039062 164.96875 99.488281 166.128906 98.613281 166.929688 L 101.699219 171.457031 C 102.300781 171.164062 102.984375 170.996094 103.703125 170.996094 C 106.242188 170.996094 108.296875 173.042969 108.296875 175.570312 C 108.296875 178.097656 106.242188 180.144531 103.703125 180.144531 C 102.453125 180.144531 101.304688 179.652344 100.484375 178.832031 L 95.480469 182.621094 C 95.632812 182.980469 95.71875 183.371094 95.71875 183.78125 C 95.71875 185.371094 94.433594 186.652344 92.839844 186.652344 C 92.652344 186.652344 92.464844 186.632812 92.292969 186.601562 L 89.5 192.78125 C 90.679688 193.546875 91.46875 194.878906 91.46875 196.382812 C 91.46875 197.953125 90.613281 199.335938 89.34375 200.085938 L 90.699219 203.503906 C 91.144531 203.382812 91.589844 203.332031 92.070312 203.332031 C 92.960938 203.332031 93.816406 203.554688 94.554688 203.929688 L 99.351562 196.894531 C 97.894531 195.683594 96.96875 193.855469 96.96875 191.808594 Z M 25.035156 165.035156 L 25.019531 160.222656 C 26.851562 159.914062 28.238281 158.308594 28.238281 156.398438 C 28.238281 155.988281 28.171875 155.578125 28.050781 155.203125 L 34.269531 151.957031 C 35.078125 153.066406 36.394531 153.785156 37.871094 153.785156 C 38.230469 153.785156 38.570312 153.75 38.914062 153.664062 L 40.972656 158.71875 C 39.703125 159.46875 38.847656 160.851562 38.847656 162.441406 C 38.847656 164.351562 40.097656 165.976562 41.828125 166.554688 L 40.902344 172.019531 C 40.78125 172.019531 40.664062 172.003906 40.527344 172.003906 C 37.132812 172.003906 34.390625 174.734375 34.390625 178.113281 C 34.390625 181.496094 37.132812 184.226562 40.527344 184.226562 C 43.746094 184.226562 46.386719 181.75 46.644531 178.609375 L 50.191406 178.507812 C 50.480469 179.273438 51.21875 179.820312 52.09375 179.820312 C 52.707031 179.820312 53.257812 179.546875 53.632812 179.105469 L 58.277344 180.949219 C 58.226562 181.222656 58.191406 181.496094 58.191406 181.769531 C 58.191406 183.917969 59.957031 185.679688 62.117188 185.679688 C 64.273438 185.679688 66.039062 183.917969 66.039062 181.769531 C 66.039062 180.828125 65.699219 179.957031 65.148438 179.273438 L 70.066406 173.605469 C 70.925781 174.171875 71.953125 174.511719 73.046875 174.511719 C 76.011719 174.511719 78.414062 172.121094 78.414062 169.167969 C 78.414062 166.214844 76.011719 163.824219 73.046875 163.824219 C 71.933594 163.824219 70.890625 164.164062 70.03125 164.746094 L 66.367188 160.5625 C 66.554688 160.253906 66.65625 159.878906 66.65625 159.488281 C 66.65625 158.890625 66.398438 158.34375 65.988281 157.949219 L 68.4375 152.640625 C 68.765625 152.726562 69.109375 152.777344 69.449219 152.777344 C 70.648438 152.777344 71.730469 152.230469 72.433594 151.378906 L 76.355469 153.648438 C 76.082031 154.296875 75.925781 154.996094 75.925781 155.75 C 75.925781 158.703125 78.328125 161.09375 81.289062 161.09375 C 81.582031 161.09375 81.875 161.074219 82.148438 161.023438 L 83.691406 166.332031 C 83.105469 166.726562 82.730469 167.375 82.730469 168.125 C 82.730469 168.996094 83.246094 169.730469 83.964844 170.089844 L 83.332031 174.632812 C 81.238281 174.699219 79.558594 176.40625 79.558594 178.507812 C 79.558594 178.746094 79.578125 178.984375 79.628906 179.222656 L 74.058594 181.273438 C 73.683594 180.792969 73.101562 180.503906 72.449219 180.503906 C 71.300781 180.503906 70.375 181.425781 70.375 182.570312 C 70.375 183.117188 70.582031 183.59375 70.925781 183.96875 L 68.097656 189.09375 C 67.804688 189.007812 67.496094 188.957031 67.1875 188.957031 C 65.441406 188.957031 64.035156 190.355469 64.035156 192.097656 C 64.035156 193.839844 65.441406 195.238281 67.1875 195.238281 C 68.9375 195.238281 70.339844 193.839844 70.339844 192.097656 L 78.15625 190.441406 C 78.34375 190.75 78.582031 191.003906 78.890625 191.175781 L 76.597656 202.101562 C 76.40625 202.085938 76.203125 202.066406 75.996094 202.066406 C 74.28125 202.066406 72.722656 202.785156 71.609375 203.929688 L 67.359375 200.683594 C 67.429688 200.480469 67.480469 200.242188 67.480469 200.019531 C 67.480469 198.875 66.554688 197.953125 65.40625 197.953125 C 64.257812 197.953125 63.332031 198.875 63.332031 200.019531 C 63.332031 200.222656 63.367188 200.410156 63.417969 200.601562 L 60.726562 202.460938 C 59.597656 201.164062 57.933594 200.34375 56.085938 200.34375 C 52.691406 200.34375 49.949219 203.074219 49.949219 206.457031 C 49.949219 206.523438 49.949219 206.59375 49.949219 206.644531 L 45.359375 207.277344 C 45.101562 206.4375 44.550781 205.703125 43.851562 205.210938 L 48.75 195.324219 C 49.265625 195.496094 49.832031 195.597656 50.414062 195.597656 C 53.238281 195.597656 55.535156 193.308594 55.535156 190.492188 C 55.535156 187.675781 53.238281 185.40625 50.414062 185.40625 C 47.875 185.40625 45.769531 187.25 45.359375 189.671875 L 41.3125 189.535156 C 41.058594 188.71875 40.304688 188.136719 39.410156 188.136719 C 38.316406 188.136719 37.40625 189.023438 37.40625 190.132812 C 37.40625 190.542969 37.527344 190.902344 37.734375 191.226562 L 34.492188 195.410156 C 33.671875 194.914062 32.710938 194.640625 31.699219 194.640625 C 28.683594 194.640625 26.234375 197.082031 26.234375 200.085938 C 26.234375 200.105469 26.234375 200.140625 26.234375 200.15625 L 22.480469 200.652344 C 22.070312 199.335938 20.992188 198.296875 19.636719 197.953125 L 19.996094 193.582031 C 20.886719 193.359375 21.539062 192.558594 21.539062 191.621094 C 21.539062 191.226562 21.417969 190.851562 21.230469 190.542969 L 28.890625 181.152344 C 29.113281 181.238281 29.351562 181.273438 29.59375 181.273438 C 30.722656 181.273438 31.632812 180.367188 31.632812 179.242188 C 31.632812 178.132812 30.722656 177.210938 29.59375 177.210938 C 29.492188 177.210938 29.386719 177.210938 29.300781 177.226562 L 28.121094 174.9375 C 29.558594 173.964844 30.519531 172.308594 30.519531 170.429688 C 30.519531 167.425781 28.066406 164.984375 25.050781 164.984375 C 25.019531 164.984375 25 164.984375 24.984375 164.984375 Z M 42.1875 172.242188 L 43.113281 166.777344 C 43.128906 166.777344 43.164062 166.777344 43.179688 166.777344 C 44.757812 166.777344 46.128906 165.941406 46.898438 164.695312 L 53.238281 167.308594 C 53.15625 167.664062 53.101562 168.023438 53.101562 168.417969 C 53.101562 170.910156 55.125 172.925781 57.625 172.925781 C 60.128906 172.925781 62.152344 170.910156 62.152344 168.417969 C 62.152344 167.203125 61.671875 166.113281 60.898438 165.292969 L 63.863281 161.484375 C 64.085938 161.570312 64.328125 161.605469 64.566406 161.605469 C 64.859375 161.605469 65.132812 161.554688 65.390625 161.433594 L 69.054688 165.617188 C 68.199219 166.554688 67.683594 167.820312 67.683594 169.183594 C 67.683594 170.566406 68.214844 171.8125 69.074219 172.769531 L 64.15625 178.4375 C 63.554688 178.082031 62.871094 177.875 62.117188 177.875 C 60.695312 177.875 59.460938 178.625 58.757812 179.753906 L 54.113281 177.910156 C 54.113281 177.875 54.113281 177.839844 54.113281 177.808594 C 54.113281 176.679688 53.207031 175.773438 52.074219 175.773438 C 51.167969 175.773438 50.394531 176.371094 50.136719 177.210938 L 46.589844 177.3125 C 46.265625 174.871094 44.5 172.90625 42.171875 172.242188 Z M 58.074219 153.664062 L 62.699219 158.515625 C 62.542969 158.804688 62.441406 159.144531 62.441406 159.503906 C 62.441406 159.929688 62.578125 160.339844 62.800781 160.683594 L 59.835938 164.488281 C 59.1875 164.113281 58.414062 163.910156 57.609375 163.910156 C 55.964844 163.910156 54.523438 164.796875 53.738281 166.09375 L 47.398438 163.464844 C 47.484375 163.140625 47.515625 162.78125 47.515625 162.425781 C 47.515625 161.3125 47.089844 160.308594 46.402344 159.539062 L 51.0625 153.90625 C 52.023438 154.535156 53.15625 154.894531 54.386719 154.894531 C 55.777344 154.894531 57.042969 154.433594 58.074219 153.648438 Z M 84.957031 166.007812 L 83.414062 160.683594 C 84.308594 160.308594 85.0625 159.691406 85.625 158.925781 L 91.417969 162.152344 C 91.230469 162.628906 91.125 163.15625 91.125 163.703125 C 91.125 164.078125 91.179688 164.4375 91.265625 164.796875 L 86.570312 166.761719 C 86.175781 166.300781 85.609375 166.007812 84.957031 165.992188 Z M 74.4375 213.96875 L 73.527344 219.566406 C 72.328125 219.703125 71.386719 220.730469 71.386719 221.957031 C 71.386719 223.085938 72.15625 224.023438 73.203125 224.296875 L 73.289062 228.53125 C 73.253906 228.550781 73.203125 228.566406 73.167969 228.582031 L 70.171875 226.089844 C 70.308594 225.800781 70.375 225.476562 70.375 225.132812 C 70.375 223.90625 69.433594 222.898438 68.234375 222.777344 L 67.71875 219.945312 C 69.433594 219.363281 70.667969 217.742188 70.667969 215.847656 C 70.667969 215.0625 70.460938 214.328125 70.085938 213.695312 L 71.746094 212.378906 C 72.484375 213.113281 73.410156 213.679688 74.453125 213.949219 Z M 21.402344 174.476562 L 16.792969 180.847656 C 16.414062 180.691406 16.003906 180.589844 15.578125 180.589844 C 13.898438 180.589844 12.527344 181.957031 12.527344 183.628906 C 12.527344 184.484375 12.886719 185.269531 13.46875 185.8125 L 8.652344 193.632812 C 8.054688 193.359375 7.386719 193.222656 6.683594 193.222656 C 6.632812 193.222656 6.597656 193.222656 6.546875 193.222656 L 6.167969 190.917969 C 8.003906 190.339844 9.320312 188.632812 9.320312 186.632812 C 9.320312 184.585938 7.949219 182.859375 6.066406 182.3125 L 6.339844 180.316406 C 6.425781 180.316406 6.511719 180.316406 6.613281 180.316406 C 10.265625 180.316406 13.230469 177.363281 13.230469 173.726562 C 13.230469 173.554688 13.230469 173.402344 13.210938 173.230469 L 19.878906 172.070312 C 20.167969 173.007812 20.699219 173.847656 21.402344 174.496094 Z M 26.40625 187.761719 C 26.40625 185.625 28.152344 183.886719 30.296875 183.886719 C 32.4375 183.886719 34.183594 185.625 34.183594 187.761719 C 34.183594 189.894531 32.4375 191.636719 30.296875 191.636719 C 28.152344 191.636719 26.40625 189.894531 26.40625 187.761719 Z M 30.570312 161.757812 C 30.570312 160.632812 31.476562 159.726562 32.609375 159.726562 C 33.738281 159.726562 34.648438 160.632812 34.648438 161.757812 C 34.648438 162.867188 33.738281 163.789062 32.609375 163.789062 C 31.496094 163.789062 30.570312 162.886719 30.570312 161.757812 Z M 30.570312 161.757812 " clip-rule="evenodd"/></clipPath><linearGradient x1="39.985145" gradientTransform="matrix(1.713553, 0, 0, 1.707332, 0.0000045, 142.823747)" y1="-0.154481" x2="39.673595" gradientUnits="userSpaceOnUse" y2="52.365336" id="5e27751fcf"><stop stop-opacity="1" stop-color="rgb(100%, 34.098816%, 34.098816%)" offset="0"/><stop stop-opacity="1" stop-color="rgb(100%, 34.098816%, 34.098816%)" offset="0.00726688"/><stop stop-opacity="1" stop-color="rgb(100%, 34.098816%, 34.098816%)" offset="0.0625"/><stop stop-opacity="1" stop-color="rgb(100%, 34.098816%, 34.098816%)" offset="0.09375"/><stop stop-opacity="1" stop-color="rgb(100%, 34.098816%, 34.098816%)" offset="0.109375"/><stop stop-opacity="1" stop-color="rgb(99.833679%, 34.033203%, 34.251404%)" offset="0.117188"/><stop stop-opacity="1" stop-color="rgb(99.371338%, 33.850098%, 34.675598%)" offset="0.121094"/><stop stop-opacity="1" stop-color="rgb(99.076843%, 33.732605%, 34.94873%)" offset="0.125"/><stop stop-opacity="1" stop-color="rgb(98.780823%, 33.615112%, 35.220337%)" offset="0.128906"/><stop stop-opacity="1" stop-color="rgb(98.486328%, 33.49762%, 35.491943%)" offset="0.132813"/><stop stop-opacity="1" stop-color="rgb(98.190308%, 33.380127%, 35.76355%)" offset="0.136719"/><stop stop-opacity="1" stop-color="rgb(97.895813%, 33.262634%, 36.036682%)" offset="0.140625"/><stop stop-opacity="1" stop-color="rgb(97.599792%, 33.145142%, 36.308289%)" offset="0.144531"/><stop stop-opacity="1" stop-color="rgb(97.305298%, 33.027649%, 36.579895%)" offset="0.148438"/><stop stop-opacity="1" stop-color="rgb(97.009277%, 32.910156%, 36.851501%)" offset="0.152344"/><stop stop-opacity="1" stop-color="rgb(96.714783%, 32.792664%, 37.123108%)" offset="0.15625"/><stop stop-opacity="1" stop-color="rgb(96.418762%, 32.675171%, 37.394714%)" offset="0.160156"/><stop stop-opacity="1" stop-color="rgb(96.124268%, 32.557678%, 37.667847%)" offset="0.164063"/><stop stop-opacity="1" stop-color="rgb(95.828247%, 32.440186%, 37.939453%)" offset="0.167969"/><stop stop-opacity="1" stop-color="rgb(95.532227%, 32.322693%, 38.21106%)" offset="0.171875"/><stop stop-opacity="1" stop-color="rgb(95.236206%, 32.2052%, 38.482666%)" offset="0.175781"/><stop stop-opacity="1" stop-color="rgb(94.941711%, 32.087708%, 38.755798%)" offset="0.179688"/><stop stop-opacity="1" stop-color="rgb(94.645691%, 31.970215%, 39.027405%)" offset="0.183594"/><stop stop-opacity="1" stop-color="rgb(94.351196%, 31.852722%, 39.299011%)" offset="0.1875"/><stop stop-opacity="1" stop-color="rgb(94.055176%, 31.735229%, 39.570618%)" offset="0.191406"/><stop stop-opacity="1" stop-color="rgb(93.760681%, 31.617737%, 39.84375%)" offset="0.195313"/><stop stop-opacity="1" stop-color="rgb(93.464661%, 31.500244%, 40.115356%)" offset="0.199219"/><stop stop-opacity="1" stop-color="rgb(93.170166%, 31.382751%, 40.386963%)" offset="0.203125"/><stop stop-opacity="1" stop-color="rgb(92.874146%, 31.265259%, 40.658569%)" offset="0.207031"/><stop stop-opacity="1" stop-color="rgb(92.579651%, 31.147766%, 40.931702%)" offset="0.210938"/><stop stop-opacity="1" stop-color="rgb(92.28363%, 31.030273%, 41.203308%)" offset="0.214844"/><stop stop-opacity="1" stop-color="rgb(91.989136%, 30.912781%, 41.474915%)" offset="0.21875"/><stop stop-opacity="1" stop-color="rgb(91.693115%, 30.795288%, 41.746521%)" offset="0.222656"/><stop stop-opacity="1" stop-color="rgb(91.398621%, 30.677795%, 42.019653%)" offset="0.226562"/><stop stop-opacity="1" stop-color="rgb(91.1026%, 30.560303%, 42.29126%)" offset="0.230469"/><stop stop-opacity="1" stop-color="rgb(90.80658%, 30.44281%, 42.562866%)" offset="0.234375"/><stop stop-opacity="1" stop-color="rgb(90.510559%, 30.325317%, 42.834473%)" offset="0.238281"/><stop stop-opacity="1" stop-color="rgb(90.216064%, 30.207825%, 43.106079%)" offset="0.242188"/><stop stop-opacity="1" stop-color="rgb(89.920044%, 30.090332%, 43.377686%)" offset="0.246094"/><stop stop-opacity="1" stop-color="rgb(89.625549%, 29.972839%, 43.650818%)" offset="0.25"/><stop stop-opacity="1" stop-color="rgb(89.329529%, 29.855347%, 43.922424%)" offset="0.253906"/><stop stop-opacity="1" stop-color="rgb(89.035034%, 29.737854%, 44.194031%)" offset="0.257812"/><stop stop-opacity="1" stop-color="rgb(88.739014%, 29.620361%, 44.465637%)" offset="0.261719"/><stop stop-opacity="1" stop-color="rgb(88.444519%, 29.502869%, 44.73877%)" offset="0.265625"/><stop stop-opacity="1" stop-color="rgb(88.148499%, 29.385376%, 45.010376%)" offset="0.269531"/><stop stop-opacity="1" stop-color="rgb(87.854004%, 29.267883%, 45.281982%)" offset="0.273438"/><stop stop-opacity="1" stop-color="rgb(87.557983%, 29.150391%, 45.553589%)" offset="0.277344"/><stop stop-opacity="1" stop-color="rgb(87.263489%, 29.032898%, 45.826721%)" offset="0.28125"/><stop stop-opacity="1" stop-color="rgb(86.967468%, 28.915405%, 46.098328%)" offset="0.285156"/><stop stop-opacity="1" stop-color="rgb(86.672974%, 28.797913%, 46.369934%)" offset="0.289063"/><stop stop-opacity="1" stop-color="rgb(86.376953%, 28.68042%, 46.641541%)" offset="0.292969"/><stop stop-opacity="1" stop-color="rgb(86.080933%, 28.562927%, 46.914673%)" offset="0.296875"/><stop stop-opacity="1" stop-color="rgb(85.784912%, 28.445435%, 47.186279%)" offset="0.300781"/><stop stop-opacity="1" stop-color="rgb(85.490417%, 28.327942%, 47.457886%)" offset="0.304688"/><stop stop-opacity="1" stop-color="rgb(85.194397%, 28.210449%, 47.729492%)" offset="0.308594"/><stop stop-opacity="1" stop-color="rgb(84.899902%, 28.092957%, 48.001099%)" offset="0.3125"/><stop stop-opacity="1" stop-color="rgb(84.603882%, 27.975464%, 48.272705%)" offset="0.316406"/><stop stop-opacity="1" stop-color="rgb(84.309387%, 27.857971%, 48.545837%)" offset="0.320312"/><stop stop-opacity="1" stop-color="rgb(84.013367%, 27.740479%, 48.817444%)" offset="0.324219"/><stop stop-opacity="1" stop-color="rgb(83.718872%, 27.622986%, 49.08905%)" offset="0.328125"/><stop stop-opacity="1" stop-color="rgb(83.422852%, 27.505493%, 49.360657%)" offset="0.332031"/><stop stop-opacity="1" stop-color="rgb(83.128357%, 27.388%, 49.633789%)" offset="0.335938"/><stop stop-opacity="1" stop-color="rgb(82.832336%, 27.270508%, 49.905396%)" offset="0.339844"/><stop stop-opacity="1" stop-color="rgb(82.537842%, 27.153015%, 50.177002%)" offset="0.34375"/><stop stop-opacity="1" stop-color="rgb(82.241821%, 27.035522%, 50.448608%)" offset="0.347656"/><stop stop-opacity="1" stop-color="rgb(81.947327%, 26.91803%, 50.721741%)" offset="0.351562"/><stop stop-opacity="1" stop-color="rgb(81.651306%, 26.800537%, 50.993347%)" offset="0.355469"/><stop stop-opacity="1" stop-color="rgb(81.355286%, 26.683044%, 51.264954%)" offset="0.359375"/><stop stop-opacity="1" stop-color="rgb(81.059265%, 26.565552%, 51.53656%)" offset="0.363281"/><stop stop-opacity="1" stop-color="rgb(80.764771%, 26.448059%, 51.809692%)" offset="0.367188"/><stop stop-opacity="1" stop-color="rgb(80.46875%, 26.330566%, 52.081299%)" offset="0.371094"/><stop stop-opacity="1" stop-color="rgb(80.174255%, 26.213074%, 52.352905%)" offset="0.375"/><stop stop-opacity="1" stop-color="rgb(79.878235%, 26.095581%, 52.624512%)" offset="0.378906"/><stop stop-opacity="1" stop-color="rgb(79.58374%, 25.978088%, 52.897644%)" offset="0.382813"/><stop stop-opacity="1" stop-color="rgb(79.28772%, 25.860596%, 53.16925%)" offset="0.386719"/><stop stop-opacity="1" stop-color="rgb(78.993225%, 25.743103%, 53.440857%)" offset="0.390625"/><stop stop-opacity="1" stop-color="rgb(78.697205%, 25.62561%, 53.712463%)" offset="0.394531"/><stop stop-opacity="1" stop-color="rgb(78.40271%, 25.508118%, 53.98407%)" offset="0.398438"/><stop stop-opacity="1" stop-color="rgb(78.106689%, 25.390625%, 54.255676%)" offset="0.402344"/><stop stop-opacity="1" stop-color="rgb(77.812195%, 25.273132%, 54.528809%)" offset="0.40625"/><stop stop-opacity="1" stop-color="rgb(77.516174%, 25.15564%, 54.800415%)" offset="0.410156"/><stop stop-opacity="1" stop-color="rgb(77.22168%, 25.038147%, 55.072021%)" offset="0.414063"/><stop stop-opacity="1" stop-color="rgb(76.925659%, 24.920654%, 55.343628%)" offset="0.417969"/><stop stop-opacity="1" stop-color="rgb(76.629639%, 24.803162%, 55.61676%)" offset="0.421875"/><stop stop-opacity="1" stop-color="rgb(76.333618%, 24.685669%, 55.888367%)" offset="0.425781"/><stop stop-opacity="1" stop-color="rgb(76.039124%, 24.568176%, 56.159973%)" offset="0.429688"/><stop stop-opacity="1" stop-color="rgb(75.743103%, 24.450684%, 56.43158%)" offset="0.433594"/><stop stop-opacity="1" stop-color="rgb(75.448608%, 24.333191%, 56.704712%)" offset="0.4375"/><stop stop-opacity="1" stop-color="rgb(75.152588%, 24.215698%, 56.976318%)" offset="0.441406"/><stop stop-opacity="1" stop-color="rgb(74.858093%, 24.098206%, 57.247925%)" offset="0.445312"/><stop stop-opacity="1" stop-color="rgb(74.562073%, 23.980713%, 57.519531%)" offset="0.449219"/><stop stop-opacity="1" stop-color="rgb(74.267578%, 23.86322%, 57.792664%)" offset="0.453125"/><stop stop-opacity="1" stop-color="rgb(73.971558%, 23.745728%, 58.06427%)" offset="0.457031"/><stop stop-opacity="1" stop-color="rgb(73.677063%, 23.628235%, 58.335876%)" offset="0.460938"/><stop stop-opacity="1" stop-color="rgb(73.381042%, 23.510742%, 58.607483%)" offset="0.464844"/><stop stop-opacity="1" stop-color="rgb(73.086548%, 23.39325%, 58.879089%)" offset="0.46875"/><stop stop-opacity="1" stop-color="rgb(72.790527%, 23.275757%, 59.150696%)" offset="0.472656"/><stop stop-opacity="1" stop-color="rgb(72.496033%, 23.158264%, 59.423828%)" offset="0.476562"/><stop stop-opacity="1" stop-color="rgb(72.200012%, 23.040771%, 59.695435%)" offset="0.480469"/><stop stop-opacity="1" stop-color="rgb(71.903992%, 22.923279%, 59.967041%)" offset="0.484375"/><stop stop-opacity="1" stop-color="rgb(71.607971%, 22.805786%, 60.238647%)" offset="0.488281"/><stop stop-opacity="1" stop-color="rgb(71.313477%, 22.688293%, 60.51178%)" offset="0.492188"/><stop stop-opacity="1" stop-color="rgb(71.017456%, 22.570801%, 60.783386%)" offset="0.496094"/><stop stop-opacity="1" stop-color="rgb(70.722961%, 22.453308%, 61.054993%)" offset="0.5"/><stop stop-opacity="1" stop-color="rgb(70.426941%, 22.335815%, 61.326599%)" offset="0.503906"/><stop stop-opacity="1" stop-color="rgb(70.132446%, 22.218323%, 61.599731%)" offset="0.507813"/><stop stop-opacity="1" stop-color="rgb(69.836426%, 22.10083%, 61.871338%)" offset="0.511719"/><stop stop-opacity="1" stop-color="rgb(69.541931%, 21.983337%, 62.142944%)" offset="0.515625"/><stop stop-opacity="1" stop-color="rgb(69.245911%, 21.865845%, 62.414551%)" offset="0.519531"/><stop stop-opacity="1" stop-color="rgb(68.951416%, 21.748352%, 62.687683%)" offset="0.523438"/><stop stop-opacity="1" stop-color="rgb(68.655396%, 21.630859%, 62.95929%)" offset="0.527344"/><stop stop-opacity="1" stop-color="rgb(68.360901%, 21.513367%, 63.230896%)" offset="0.53125"/><stop stop-opacity="1" stop-color="rgb(68.06488%, 21.395874%, 63.502502%)" offset="0.535156"/><stop stop-opacity="1" stop-color="rgb(67.770386%, 21.278381%, 63.775635%)" offset="0.539062"/><stop stop-opacity="1" stop-color="rgb(67.474365%, 21.160889%, 64.047241%)" offset="0.542969"/><stop stop-opacity="1" stop-color="rgb(67.178345%, 21.043396%, 64.318848%)" offset="0.546875"/><stop stop-opacity="1" stop-color="rgb(66.882324%, 20.925903%, 64.590454%)" offset="0.550781"/><stop stop-opacity="1" stop-color="rgb(66.58783%, 20.808411%, 64.862061%)" offset="0.554688"/><stop stop-opacity="1" stop-color="rgb(66.291809%, 20.690918%, 65.133667%)" offset="0.558594"/><stop stop-opacity="1" stop-color="rgb(65.997314%, 20.573425%, 65.406799%)" offset="0.5625"/><stop stop-opacity="1" stop-color="rgb(65.701294%, 20.455933%, 65.678406%)" offset="0.566406"/><stop stop-opacity="1" stop-color="rgb(65.406799%, 20.33844%, 65.950012%)" offset="0.570313"/><stop stop-opacity="1" stop-color="rgb(65.110779%, 20.220947%, 66.221619%)" offset="0.574219"/><stop stop-opacity="1" stop-color="rgb(64.816284%, 20.103455%, 66.494751%)" offset="0.578125"/><stop stop-opacity="1" stop-color="rgb(64.520264%, 19.985962%, 66.766357%)" offset="0.582031"/><stop stop-opacity="1" stop-color="rgb(64.225769%, 19.868469%, 67.037964%)" offset="0.585938"/><stop stop-opacity="1" stop-color="rgb(63.929749%, 19.750977%, 67.30957%)" offset="0.589844"/><stop stop-opacity="1" stop-color="rgb(63.635254%, 19.633484%, 67.582703%)" offset="0.59375"/><stop stop-opacity="1" stop-color="rgb(63.339233%, 19.515991%, 67.854309%)" offset="0.597656"/><stop stop-opacity="1" stop-color="rgb(63.044739%, 19.398499%, 68.125916%)" offset="0.601563"/><stop stop-opacity="1" stop-color="rgb(62.748718%, 19.281006%, 68.397522%)" offset="0.605469"/><stop stop-opacity="1" stop-color="rgb(62.452698%, 19.163513%, 68.670654%)" offset="0.609375"/><stop stop-opacity="1" stop-color="rgb(62.156677%, 19.046021%, 68.942261%)" offset="0.613281"/><stop stop-opacity="1" stop-color="rgb(61.862183%, 18.928528%, 69.213867%)" offset="0.617188"/><stop stop-opacity="1" stop-color="rgb(61.566162%, 18.811035%, 69.485474%)" offset="0.621094"/><stop stop-opacity="1" stop-color="rgb(61.271667%, 18.693542%, 69.75708%)" offset="0.625"/><stop stop-opacity="1" stop-color="rgb(60.975647%, 18.57605%, 70.028687%)" offset="0.628906"/><stop stop-opacity="1" stop-color="rgb(60.681152%, 18.458557%, 70.301819%)" offset="0.632813"/><stop stop-opacity="1" stop-color="rgb(60.385132%, 18.341064%, 70.573425%)" offset="0.636719"/><stop stop-opacity="1" stop-color="rgb(60.090637%, 18.223572%, 70.845032%)" offset="0.640625"/><stop stop-opacity="1" stop-color="rgb(59.794617%, 18.106079%, 71.116638%)" offset="0.644531"/><stop stop-opacity="1" stop-color="rgb(59.500122%, 17.988586%, 71.389771%)" offset="0.648438"/><stop stop-opacity="1" stop-color="rgb(59.204102%, 17.871094%, 71.661377%)" offset="0.652344"/><stop stop-opacity="1" stop-color="rgb(58.909607%, 17.755127%, 71.932983%)" offset="0.65625"/><stop stop-opacity="1" stop-color="rgb(58.613586%, 17.637634%, 72.20459%)" offset="0.660156"/><stop stop-opacity="1" stop-color="rgb(58.319092%, 17.520142%, 72.477722%)" offset="0.664063"/><stop stop-opacity="1" stop-color="rgb(58.023071%, 17.402649%, 72.749329%)" offset="0.667969"/><stop stop-opacity="1" stop-color="rgb(57.727051%, 17.285156%, 73.020935%)" offset="0.671875"/><stop stop-opacity="1" stop-color="rgb(57.43103%, 17.167664%, 73.292542%)" offset="0.675781"/><stop stop-opacity="1" stop-color="rgb(57.136536%, 17.050171%, 73.565674%)" offset="0.679688"/><stop stop-opacity="1" stop-color="rgb(56.840515%, 16.932678%, 73.83728%)" offset="0.683594"/><stop stop-opacity="1" stop-color="rgb(56.546021%, 16.815186%, 74.108887%)" offset="0.6875"/><stop stop-opacity="1" stop-color="rgb(56.25%, 16.697693%, 74.380493%)" offset="0.691406"/><stop stop-opacity="1" stop-color="rgb(55.955505%, 16.5802%, 74.6521%)" offset="0.695313"/><stop stop-opacity="1" stop-color="rgb(55.659485%, 16.462708%, 74.923706%)" offset="0.699219"/><stop stop-opacity="1" stop-color="rgb(55.36499%, 16.345215%, 75.196838%)" offset="0.703125"/><stop stop-opacity="1" stop-color="rgb(55.06897%, 16.227722%, 75.468445%)" offset="0.707031"/><stop stop-opacity="1" stop-color="rgb(54.774475%, 16.110229%, 75.740051%)" offset="0.710938"/><stop stop-opacity="1" stop-color="rgb(54.478455%, 15.992737%, 76.011658%)" offset="0.714844"/><stop stop-opacity="1" stop-color="rgb(54.18396%, 15.875244%, 76.28479%)" offset="0.71875"/><stop stop-opacity="1" stop-color="rgb(53.887939%, 15.757751%, 76.556396%)" offset="0.722656"/><stop stop-opacity="1" stop-color="rgb(53.593445%, 15.640259%, 76.828003%)" offset="0.726563"/><stop stop-opacity="1" stop-color="rgb(53.297424%, 15.522766%, 77.099609%)" offset="0.730469"/><stop stop-opacity="1" stop-color="rgb(53.001404%, 15.405273%, 77.372742%)" offset="0.734375"/><stop stop-opacity="1" stop-color="rgb(52.705383%, 15.287781%, 77.644348%)" offset="0.738281"/><stop stop-opacity="1" stop-color="rgb(52.410889%, 15.170288%, 77.915955%)" offset="0.742188"/><stop stop-opacity="1" stop-color="rgb(52.114868%, 15.052795%, 78.187561%)" offset="0.746094"/><stop stop-opacity="1" stop-color="rgb(51.820374%, 14.935303%, 78.460693%)" offset="0.75"/><stop stop-opacity="1" stop-color="rgb(51.524353%, 14.81781%, 78.7323%)" offset="0.753906"/><stop stop-opacity="1" stop-color="rgb(51.229858%, 14.700317%, 79.003906%)" offset="0.757813"/><stop stop-opacity="1" stop-color="rgb(50.933838%, 14.582825%, 79.275513%)" offset="0.761719"/><stop stop-opacity="1" stop-color="rgb(50.639343%, 14.465332%, 79.548645%)" offset="0.765625"/><stop stop-opacity="1" stop-color="rgb(50.343323%, 14.347839%, 79.820251%)" offset="0.769531"/><stop stop-opacity="1" stop-color="rgb(50.048828%, 14.230347%, 80.091858%)" offset="0.773438"/><stop stop-opacity="1" stop-color="rgb(49.752808%, 14.112854%, 80.363464%)" offset="0.777344"/><stop stop-opacity="1" stop-color="rgb(49.458313%, 13.995361%, 80.635071%)" offset="0.78125"/><stop stop-opacity="1" stop-color="rgb(49.162292%, 13.877869%, 80.906677%)" offset="0.785156"/><stop stop-opacity="1" stop-color="rgb(48.867798%, 13.760376%, 81.17981%)" offset="0.789062"/><stop stop-opacity="1" stop-color="rgb(48.571777%, 13.642883%, 81.451416%)" offset="0.792969"/><stop stop-opacity="1" stop-color="rgb(48.275757%, 13.525391%, 81.723022%)" offset="0.796875"/><stop stop-opacity="1" stop-color="rgb(47.979736%, 13.407898%, 81.994629%)" offset="0.800781"/><stop stop-opacity="1" stop-color="rgb(47.685242%, 13.290405%, 82.267761%)" offset="0.804688"/><stop stop-opacity="1" stop-color="rgb(47.389221%, 13.172913%, 82.539368%)" offset="0.808594"/><stop stop-opacity="1" stop-color="rgb(47.094727%, 13.05542%, 82.810974%)" offset="0.8125"/><stop stop-opacity="1" stop-color="rgb(46.798706%, 12.937927%, 83.082581%)" offset="0.816406"/><stop stop-opacity="1" stop-color="rgb(46.504211%, 12.820435%, 83.355713%)" offset="0.820313"/><stop stop-opacity="1" stop-color="rgb(46.208191%, 12.702942%, 83.627319%)" offset="0.824219"/><stop stop-opacity="1" stop-color="rgb(45.913696%, 12.585449%, 83.898926%)" offset="0.828125"/><stop stop-opacity="1" stop-color="rgb(45.617676%, 12.467957%, 84.170532%)" offset="0.832031"/><stop stop-opacity="1" stop-color="rgb(45.323181%, 12.350464%, 84.443665%)" offset="0.835938"/><stop stop-opacity="1" stop-color="rgb(45.027161%, 12.232971%, 84.715271%)" offset="0.839844"/><stop stop-opacity="1" stop-color="rgb(44.732666%, 12.115479%, 84.986877%)" offset="0.84375"/><stop stop-opacity="1" stop-color="rgb(44.436646%, 11.997986%, 85.258484%)" offset="0.847656"/><stop stop-opacity="1" stop-color="rgb(44.142151%, 11.880493%, 85.53009%)" offset="0.851563"/><stop stop-opacity="1" stop-color="rgb(43.84613%, 11.763%, 85.801697%)" offset="0.855469"/><stop stop-opacity="1" stop-color="rgb(43.55011%, 11.645508%, 86.074829%)" offset="0.859375"/><stop stop-opacity="1" stop-color="rgb(43.254089%, 11.528015%, 86.346436%)" offset="0.863281"/><stop stop-opacity="1" stop-color="rgb(42.959595%, 11.410522%, 86.618042%)" offset="0.867188"/><stop stop-opacity="1" stop-color="rgb(42.663574%, 11.29303%, 86.889648%)" offset="0.871094"/><stop stop-opacity="1" stop-color="rgb(42.36908%, 11.175537%, 87.162781%)" offset="0.875"/><stop stop-opacity="1" stop-color="rgb(42.073059%, 11.058044%, 87.434387%)" offset="0.878906"/><stop stop-opacity="1" stop-color="rgb(41.778564%, 10.940552%, 87.705994%)" offset="0.882812"/><stop stop-opacity="1" stop-color="rgb(41.482544%, 10.823059%, 87.9776%)" offset="0.886719"/><stop stop-opacity="1" stop-color="rgb(41.188049%, 10.705566%, 88.250732%)" offset="0.890625"/><stop stop-opacity="1" stop-color="rgb(40.892029%, 10.588074%, 88.522339%)" offset="0.894531"/><stop stop-opacity="1" stop-color="rgb(40.597534%, 10.470581%, 88.793945%)" offset="0.898438"/><stop stop-opacity="1" stop-color="rgb(40.301514%, 10.353088%, 89.065552%)" offset="0.902344"/><stop stop-opacity="1" stop-color="rgb(40.007019%, 10.235596%, 89.338684%)" offset="0.90625"/><stop stop-opacity="1" stop-color="rgb(39.710999%, 10.118103%, 89.610291%)" offset="0.910156"/><stop stop-opacity="1" stop-color="rgb(39.416504%, 10.00061%, 89.881897%)" offset="0.914062"/><stop stop-opacity="1" stop-color="rgb(39.120483%, 9.883118%, 90.153503%)" offset="0.917969"/><stop stop-opacity="1" stop-color="rgb(38.824463%, 9.765625%, 90.426636%)" offset="0.921875"/><stop stop-opacity="1" stop-color="rgb(38.528442%, 9.648132%, 90.698242%)" offset="0.925781"/><stop stop-opacity="1" stop-color="rgb(38.233948%, 9.53064%, 90.969849%)" offset="0.929688"/><stop stop-opacity="1" stop-color="rgb(37.937927%, 9.413147%, 91.241455%)" offset="0.933594"/><stop stop-opacity="1" stop-color="rgb(37.643433%, 9.295654%, 91.513062%)" offset="0.9375"/><stop stop-opacity="1" stop-color="rgb(37.347412%, 9.178162%, 91.784668%)" offset="0.941406"/><stop stop-opacity="1" stop-color="rgb(37.052917%, 9.060669%, 92.0578%)" offset="0.945313"/><stop stop-opacity="1" stop-color="rgb(36.975098%, 9.030151%, 92.127991%)" offset="0.953125"/><stop stop-opacity="1" stop-color="rgb(36.898804%, 8.999634%, 92.199707%)" offset="0.96875"/><stop stop-opacity="1" stop-color="rgb(36.898804%, 8.999634%, 92.199707%)" offset="0.992733"/><stop stop-opacity="1" stop-color="rgb(36.898804%, 8.999634%, 92.199707%)" offset="1"/></linearGradient></defs><g clip-path="url(#80d45f0568)"><g clip-path="url(#aebb4d57a5)"><path fill="url(#5e27751fcf)" d="M 0 142.808594 L 0 231.828125 L 110.25 231.828125 L 110.25 142.808594 Z M 0 142.808594 " fill-rule="nonzero"/></g></g><g fill="#d9d9d9" fill-opacity="1"><g transform="translate(114.337836, 193.782073)"><g><path d="M 3.890625 0 C 3.972656 -0.488281 4.015625 -1.019531 4.015625 -1.59375 L 4.015625 -28.546875 L 8.3125 -28.546875 L 19.6875 -10.65625 L 19.6875 -27.09375 C 19.6875 -27.882812 19.613281 -28.367188 19.46875 -28.546875 L 25.265625 -28.546875 C 25.191406 -27.972656 25.15625 -27.347656 25.15625 -26.671875 L 25.15625 0 L 20.703125 0 L 9.484375 -17.203125 L 9.484375 0 Z M 3.890625 0 "/></g></g></g><g fill="#d9d9d9" fill-opacity="1"><g transform="translate(149.663962, 193.782073)"><g><path d="M 5.78125 0.171875 C 4.539062 0.0546875 3.097656 0 1.453125 0 L -0.234375 0 L 9.109375 -26.171875 C 9.515625 -27.347656 9.71875 -28.03125 9.71875 -28.21875 C 9.71875 -28.414062 9.710938 -28.535156 9.703125 -28.578125 L 9.71875 -28.625 C 10.65625 -28.570312 11.644531 -28.546875 12.6875 -28.546875 C 13.539062 -28.546875 14.570312 -28.5625 15.78125 -28.59375 L 15.796875 -28.546875 C 15.773438 -28.492188 15.765625 -28.414062 15.765625 -28.3125 C 15.765625 -28.039062 15.976562 -27.320312 16.40625 -26.15625 L 25.9375 0.0625 C 25.644531 0.0507812 25.304688 0.046875 24.921875 0.046875 C 24.921875 0.046875 24.550781 0.03125 23.8125 0 C 23.445312 0 23.125 0 22.84375 0 L 19.515625 0 L 17.5 -6.1875 L 7.796875 -6.1875 Z M 15.828125 -11.328125 L 12.578125 -21.3125 L 9.421875 -11.328125 Z M 15.828125 -11.328125 "/></g></g></g><g fill="#d9d9d9" fill-opacity="1"><g transform="translate(181.512716, 193.782073)"><g><path d="M 20.9375 -26.96875 L 20.53125 -20.65625 L 20.375 -20.609375 C 19.3125 -22.203125 17.507812 -23.234375 14.96875 -23.703125 C 14.164062 -23.859375 13.394531 -23.9375 12.65625 -23.9375 C 11.914062 -23.9375 11.285156 -23.867188 10.765625 -23.734375 C 10.242188 -23.609375 9.796875 -23.425781 9.421875 -23.1875 C 8.640625 -22.664062 8.25 -21.992188 8.25 -21.171875 C 8.25 -20.078125 8.59375 -19.257812 9.28125 -18.71875 C 10.132812 -18.0625 11.554688 -17.597656 13.546875 -17.328125 C 15.535156 -17.066406 17.128906 -16.707031 18.328125 -16.25 C 19.535156 -15.789062 20.523438 -15.210938 21.296875 -14.515625 C 22.753906 -13.191406 23.484375 -11.332031 23.484375 -8.9375 C 23.484375 -5.78125 22.296875 -3.351562 19.921875 -1.65625 C 17.890625 -0.195312 15.328125 0.53125 12.234375 0.53125 C 9.742188 0.53125 7.285156 0.0625 4.859375 -0.875 C 4.054688 -1.195312 3.351562 -1.5625 2.75 -1.96875 L 2.984375 -9.140625 L 3.0625 -9.203125 C 4.84375 -6.140625 7.757812 -4.609375 11.8125 -4.609375 C 14.6875 -4.609375 16.585938 -5.304688 17.515625 -6.703125 C 17.828125 -7.171875 17.984375 -7.691406 17.984375 -8.265625 C 17.984375 -8.847656 17.890625 -9.328125 17.703125 -9.703125 C 17.523438 -10.085938 17.21875 -10.414062 16.78125 -10.6875 C 15.957031 -11.226562 14.5625 -11.59375 12.59375 -11.78125 C 10.632812 -11.96875 9.03125 -12.316406 7.78125 -12.828125 C 6.539062 -13.347656 5.550781 -13.988281 4.8125 -14.75 C 3.46875 -16.125 2.796875 -18.039062 2.796875 -20.5 C 2.796875 -23.050781 3.6875 -25.113281 5.46875 -26.6875 C 7.289062 -28.289062 9.742188 -29.09375 12.828125 -29.09375 C 15.910156 -29.09375 18.613281 -28.382812 20.9375 -26.96875 Z M 20.9375 -26.96875 "/></g></g></g><g fill="#d9d9d9" fill-opacity="1"><g transform="translate(213.275611, 193.782073)"><g><path d="M 16.484375 -29.09375 C 19.160156 -29.09375 21.445312 -28.625 23.34375 -27.6875 L 23.34375 -21.125 L 23.296875 -21.078125 C 22.492188 -22.304688 20.804688 -23.125 18.234375 -23.53125 C 17.472656 -23.65625 16.507812 -23.71875 15.34375 -23.71875 C 14.1875 -23.71875 13.050781 -23.5 11.9375 -23.0625 C 10.820312 -22.625 9.90625 -22.007812 9.1875 -21.21875 C 7.800781 -19.65625 7.109375 -17.425781 7.109375 -14.53125 C 7.109375 -11.164062 7.988281 -8.660156 9.75 -7.015625 C 11.207031 -5.640625 13.140625 -4.953125 15.546875 -4.953125 C 18.265625 -4.953125 20.46875 -5.535156 22.15625 -6.703125 C 22.769531 -7.117188 23.289062 -7.632812 23.71875 -8.25 L 23.78125 -8.203125 L 23.78125 -2.1875 C 21.59375 -0.375 18.644531 0.53125 14.9375 0.53125 C 10.570312 0.53125 7.15625 -0.851562 4.6875 -3.625 C 2.300781 -6.269531 1.109375 -9.773438 1.109375 -14.140625 C 1.109375 -18.765625 2.414062 -22.410156 5.03125 -25.078125 C 7.65625 -27.753906 11.472656 -29.09375 16.484375 -29.09375 Z M 16.484375 -29.09375 "/></g></g></g><g fill="#d9d9d9" fill-opacity="1"><g transform="translate(244.931174, 193.782073)"><g><path d="M 9.484375 0.125 C 8.109375 0.0390625 6.476562 0 4.59375 0 L 3.90625 0 L 3.90625 -28.65625 C 4.789062 -28.582031 5.421875 -28.546875 5.796875 -28.546875 L 6.671875 -28.546875 C 7.804688 -28.546875 8.742188 -28.601562 9.484375 -28.71875 L 9.484375 -17.28125 L 19.578125 -17.28125 L 19.578125 -28.65625 C 20.765625 -28.582031 21.921875 -28.546875 23.046875 -28.546875 C 24.171875 -28.546875 24.875 -28.601562 25.15625 -28.71875 L 25.15625 0.125 C 24.46875 0.0390625 23.109375 0 21.078125 0 L 19.578125 0 L 19.578125 -12.125 L 9.484375 -12.125 Z M 9.484375 0.125 "/></g></g></g><g fill="#d9d9d9" fill-opacity="1"><g transform="translate(280.364624, 193.782073)"><g><path d="M 5.78125 0.171875 C 4.539062 0.0546875 3.097656 0 1.453125 0 L -0.234375 0 L 9.109375 -26.171875 C 9.515625 -27.347656 9.71875 -28.03125 9.71875 -28.21875 C 9.71875 -28.414062 9.710938 -28.535156 9.703125 -28.578125 L 9.71875 -28.625 C 10.65625 -28.570312 11.644531 -28.546875 12.6875 -28.546875 C 13.539062 -28.546875 14.570312 -28.5625 15.78125 -28.59375 L 15.796875 -28.546875 C 15.773438 -28.492188 15.765625 -28.414062 15.765625 -28.3125 C 15.765625 -28.039062 15.976562 -27.320312 16.40625 -26.15625 L 25.9375 0.0625 C 25.644531 0.0507812 25.304688 0.046875 24.921875 0.046875 C 24.921875 0.046875 24.550781 0.03125 23.8125 0 C 23.445312 0 23.125 0 22.84375 0 L 19.515625 0 L 17.5 -6.1875 L 7.796875 -6.1875 Z M 15.828125 -11.328125 L 12.578125 -21.3125 L 9.421875 -11.328125 Z M 15.828125 -11.328125 "/></g></g></g><g fill="#d9d9d9" fill-opacity="1"><g transform="translate(312.213373, 193.782073)"><g><path d="M 14 0.125 C 13.3125 0.0390625 11.539062 0 8.6875 0 L 8.015625 0 L 8.015625 -23.75 L 3.75 -23.75 C 2.5 -23.75 1.757812 -23.679688 1.53125 -23.546875 C 1.300781 -23.421875 1.117188 -23.304688 0.984375 -23.203125 L 0.921875 -23.234375 L 0.921875 -28.71875 L 0.984375 -28.796875 C 1.460938 -28.628906 2.738281 -28.546875 4.8125 -28.546875 L 18.265625 -28.546875 C 19.523438 -28.546875 20.269531 -28.609375 20.5 -28.734375 C 20.726562 -28.867188 20.910156 -28.988281 21.046875 -29.09375 L 21.109375 -29.0625 L 21.109375 -23.578125 L 21.046875 -23.515625 C 20.566406 -23.671875 19.289062 -23.75 17.21875 -23.75 L 14 -23.75 Z M 14 0.125 "/></g></g></g><g fill="#d9d9d9" fill-opacity="1"><g transform="translate(340.391563, 193.782073)"><g><path d="M 20.9375 -26.96875 L 20.53125 -20.65625 L 20.375 -20.609375 C 19.3125 -22.203125 17.507812 -23.234375 14.96875 -23.703125 C 14.164062 -23.859375 13.394531 -23.9375 12.65625 -23.9375 C 11.914062 -23.9375 11.285156 -23.867188 10.765625 -23.734375 C 10.242188 -23.609375 9.796875 -23.425781 9.421875 -23.1875 C 8.640625 -22.664062 8.25 -21.992188 8.25 -21.171875 C 8.25 -20.078125 8.59375 -19.257812 9.28125 -18.71875 C 10.132812 -18.0625 11.554688 -17.597656 13.546875 -17.328125 C 15.535156 -17.066406 17.128906 -16.707031 18.328125 -16.25 C 19.535156 -15.789062 20.523438 -15.210938 21.296875 -14.515625 C 22.753906 -13.191406 23.484375 -11.332031 23.484375 -8.9375 C 23.484375 -5.78125 22.296875 -3.351562 19.921875 -1.65625 C 17.890625 -0.195312 15.328125 0.53125 12.234375 0.53125 C 9.742188 0.53125 7.285156 0.0625 4.859375 -0.875 C 4.054688 -1.195312 3.351562 -1.5625 2.75 -1.96875 L 2.984375 -9.140625 L 3.0625 -9.203125 C 4.84375 -6.140625 7.757812 -4.609375 11.8125 -4.609375 C 14.6875 -4.609375 16.585938 -5.304688 17.515625 -6.703125 C 17.828125 -7.171875 17.984375 -7.691406 17.984375 -8.265625 C 17.984375 -8.847656 17.890625 -9.328125 17.703125 -9.703125 C 17.523438 -10.085938 17.21875 -10.414062 16.78125 -10.6875 C 15.957031 -11.226562 14.5625 -11.59375 12.59375 -11.78125 C 10.632812 -11.96875 9.03125 -12.316406 7.78125 -12.828125 C 6.539062 -13.347656 5.550781 -13.988281 4.8125 -14.75 C 3.46875 -16.125 2.796875 -18.039062 2.796875 -20.5 C 2.796875 -23.050781 3.6875 -25.113281 5.46875 -26.6875 C 7.289062 -28.289062 9.742188 -29.09375 12.828125 -29.09375 C 15.910156 -29.09375 18.613281 -28.382812 20.9375 -26.96875 Z M 20.9375 -26.96875 "/></g></g></g><g fill="#d9d9d9" fill-opacity="1"><g transform="translate(168.660453, 224.875942)"><g><path d="M 13.25 -14.5625 C 13.644531 -14.5625 13.960938 -14.441406 14.203125 -14.203125 C 14.441406 -13.972656 14.5625 -13.695312 14.5625 -13.375 C 14.5625 -12.6875 14.171875 -12.148438 13.390625 -11.765625 C 12.703125 -11.429688 11.753906 -11.265625 10.546875 -11.265625 C 10.347656 -11.265625 10.023438 -11.273438 9.578125 -11.296875 L 7.078125 -1.96875 C 6.984375 -1.625 6.9375 -1.363281 6.9375 -1.1875 C 6.9375 -0.894531 7.039062 -0.6875 7.25 -0.5625 C 7.457031 -0.4375 7.820312 -0.363281 8.34375 -0.34375 L 8.28125 0 C 7.570312 -0.03125 6.523438 -0.046875 5.140625 -0.046875 C 3.796875 -0.046875 2.800781 -0.03125 2.15625 0 L 2.21875 -0.34375 C 2.707031 -0.363281 3.082031 -0.421875 3.34375 -0.515625 C 3.613281 -0.609375 3.820312 -0.765625 3.96875 -0.984375 C 4.125 -1.210938 4.257812 -1.539062 4.375 -1.96875 L 6.9375 -11.5625 C 6.09375 -11.632812 5.414062 -11.671875 4.90625 -11.671875 C 3.96875 -11.671875 3.328125 -11.578125 2.984375 -11.390625 C 3.273438 -11.296875 3.515625 -11.125 3.703125 -10.875 C 3.898438 -10.632812 4 -10.347656 4 -10.015625 C 4 -9.617188 3.875 -9.28125 3.625 -9 C 3.382812 -8.726562 3.070312 -8.59375 2.6875 -8.59375 C 2.3125 -8.59375 2.007812 -8.71875 1.78125 -8.96875 C 1.5625 -9.21875 1.453125 -9.535156 1.453125 -9.921875 C 1.453125 -10.242188 1.539062 -10.550781 1.71875 -10.84375 C 1.894531 -11.132812 2.175781 -11.378906 2.5625 -11.578125 C 3.113281 -11.847656 3.875 -11.984375 4.84375 -11.984375 C 5.582031 -11.984375 6.632812 -11.914062 8 -11.78125 C 9.238281 -11.664062 10.140625 -11.609375 10.703125 -11.609375 C 11.460938 -11.609375 12.0625 -11.679688 12.5 -11.828125 C 12.332031 -11.984375 12.191406 -12.175781 12.078125 -12.40625 C 11.960938 -12.644531 11.90625 -12.898438 11.90625 -13.171875 C 11.90625 -13.578125 12.023438 -13.910156 12.265625 -14.171875 C 12.515625 -14.429688 12.84375 -14.5625 13.25 -14.5625 Z M 13.25 -14.5625 "/></g></g></g><g fill="#d9d9d9" fill-opacity="1"><g transform="translate(182.32636, 224.875942)"><g><path d="M 7.9375 -7.671875 C 7.9375 -6.734375 7.410156 -5.910156 6.359375 -5.203125 C 5.304688 -4.503906 4.085938 -3.960938 2.703125 -3.578125 C 2.628906 -3.191406 2.59375 -2.804688 2.59375 -2.421875 C 2.59375 -1.828125 2.703125 -1.40625 2.921875 -1.15625 C 3.148438 -0.90625 3.476562 -0.78125 3.90625 -0.78125 C 4.25 -0.78125 4.640625 -0.890625 5.078125 -1.109375 C 5.523438 -1.328125 5.957031 -1.679688 6.375 -2.171875 L 6.65625 -2.03125 C 6.25 -1.40625 5.703125 -0.867188 5.015625 -0.421875 C 4.328125 0.015625 3.5625 0.234375 2.71875 0.234375 C 1.9375 0.234375 1.296875 0.0234375 0.796875 -0.390625 C 0.296875 -0.804688 0.046875 -1.394531 0.046875 -2.15625 C 0.046875 -3.164062 0.316406 -4.207031 0.859375 -5.28125 C 1.410156 -6.351562 2.15625 -7.242188 3.09375 -7.953125 C 4.03125 -8.660156 5.054688 -9.015625 6.171875 -9.015625 C 6.691406 -9.015625 7.113281 -8.894531 7.4375 -8.65625 C 7.769531 -8.425781 7.9375 -8.097656 7.9375 -7.671875 Z M 5.796875 -8.6875 C 5.472656 -8.6875 5.101562 -8.453125 4.6875 -7.984375 C 4.269531 -7.523438 3.882812 -6.925781 3.53125 -6.1875 C 3.175781 -5.445312 2.914062 -4.6875 2.75 -3.90625 C 3.550781 -4.25 4.171875 -4.628906 4.609375 -5.046875 C 5.066406 -5.453125 5.425781 -5.914062 5.6875 -6.4375 C 5.945312 -6.96875 6.078125 -7.53125 6.078125 -8.125 C 6.078125 -8.34375 6.050781 -8.488281 6 -8.5625 C 5.957031 -8.644531 5.890625 -8.6875 5.796875 -8.6875 Z M 5.796875 -8.6875 "/></g></g></g><g fill="#d9d9d9" fill-opacity="1"><g transform="translate(192.398254, 224.875942)"><g><path d="M 6.078125 -8.671875 C 5.523438 -8.671875 4.984375 -8.367188 4.453125 -7.765625 C 3.929688 -7.160156 3.503906 -6.367188 3.171875 -5.390625 C 2.847656 -4.410156 2.6875 -3.40625 2.6875 -2.375 C 2.6875 -1.238281 3.113281 -0.671875 3.96875 -0.671875 C 4.78125 -0.671875 5.523438 -1.171875 6.203125 -2.171875 L 6.546875 -2.03125 C 6.140625 -1.375 5.625 -0.832031 5 -0.40625 C 4.375 0.0195312 3.65625 0.234375 2.84375 0.234375 C 2.019531 0.234375 1.363281 0.015625 0.875 -0.421875 C 0.382812 -0.867188 0.140625 -1.519531 0.140625 -2.375 C 0.140625 -3.34375 0.378906 -4.34375 0.859375 -5.375 C 1.347656 -6.414062 2.03125 -7.28125 2.90625 -7.96875 C 3.789062 -8.664062 4.796875 -9.015625 5.921875 -9.015625 C 6.546875 -9.015625 7.046875 -8.859375 7.421875 -8.546875 C 7.804688 -8.234375 8 -7.84375 8 -7.375 C 8 -7.070312 7.921875 -6.773438 7.765625 -6.484375 C 7.617188 -6.191406 7.414062 -5.953125 7.15625 -5.765625 C 6.894531 -5.585938 6.613281 -5.5 6.3125 -5.5 C 6.03125 -5.5 5.796875 -5.585938 5.609375 -5.765625 C 5.429688 -5.953125 5.34375 -6.191406 5.34375 -6.484375 C 5.34375 -6.921875 5.492188 -7.3125 5.796875 -7.65625 C 6.109375 -8 6.472656 -8.222656 6.890625 -8.328125 C 6.691406 -8.554688 6.421875 -8.671875 6.078125 -8.671875 Z M 6.078125 -8.671875 "/></g></g></g><g fill="#d9d9d9" fill-opacity="1"><g transform="translate(202.368431, 224.875942)"><g><path d="M 8.90625 -2.75 L 8.484375 -1.515625 C 8.078125 -0.347656 7.316406 0.234375 6.203125 0.234375 C 5.179688 0.234375 4.671875 -0.222656 4.671875 -1.140625 C 4.671875 -1.546875 4.753906 -1.984375 4.921875 -2.453125 L 6.4375 -7.046875 C 6.53125 -7.367188 6.578125 -7.613281 6.578125 -7.78125 C 6.578125 -8.03125 6.472656 -8.15625 6.265625 -8.15625 C 5.941406 -8.15625 5.5625 -7.859375 5.125 -7.265625 C 4.695312 -6.679688 4.253906 -5.890625 3.796875 -4.890625 C 3.347656 -3.898438 2.9375 -2.816406 2.5625 -1.640625 L 2.15625 -0.21875 C 2.144531 -0.207031 2.140625 -0.191406 2.140625 -0.171875 L 2.140625 -0.1875 L 2.09375 0 L -0.3125 0 L 3.046875 -11.3125 C 3.109375 -11.519531 3.140625 -11.679688 3.140625 -11.796875 C 3.140625 -12.015625 3.050781 -12.175781 2.875 -12.28125 C 2.695312 -12.382812 2.398438 -12.4375 1.984375 -12.4375 L 2.09375 -12.796875 C 2.882812 -12.804688 3.59375 -12.867188 4.21875 -12.984375 C 4.84375 -13.097656 5.453125 -13.265625 6.046875 -13.484375 L 3.734375 -5.59375 C 4.304688 -6.875 4.875 -7.765625 5.4375 -8.265625 C 6 -8.765625 6.632812 -9.015625 7.34375 -9.015625 C 7.875 -9.015625 8.265625 -8.890625 8.515625 -8.640625 C 8.765625 -8.398438 8.890625 -8.070312 8.890625 -7.65625 C 8.890625 -7.289062 8.8125 -6.890625 8.65625 -6.453125 L 6.984375 -1.4375 C 6.921875 -1.238281 6.890625 -1.078125 6.890625 -0.953125 C 6.890625 -0.710938 7.003906 -0.59375 7.234375 -0.59375 C 7.597656 -0.59375 7.945312 -1.039062 8.28125 -1.9375 L 8.59375 -2.75 Z M 8.90625 -2.75 "/></g></g></g><g fill="#d9d9d9" fill-opacity="1"><g transform="translate(214.152563, 224.875942)"><g><path d="M 9.484375 -2.75 L 9.0625 -1.515625 C 8.65625 -0.347656 7.894531 0.234375 6.78125 0.234375 C 6.15625 0.234375 5.707031 0.046875 5.4375 -0.328125 C 5.28125 -0.535156 5.203125 -0.800781 5.203125 -1.125 C 5.203125 -1.476562 5.296875 -1.921875 5.484375 -2.453125 L 7.015625 -7.046875 C 7.109375 -7.347656 7.15625 -7.585938 7.15625 -7.765625 C 7.15625 -8.023438 7.050781 -8.15625 6.84375 -8.15625 C 6.5 -8.15625 6.085938 -7.8125 5.609375 -7.125 C 5.128906 -6.4375 4.644531 -5.53125 4.15625 -4.40625 C 3.664062 -3.28125 3.242188 -2.09375 2.890625 -0.84375 L 2.671875 0 L 0.265625 0 L 2.328125 -7.328125 C 2.390625 -7.535156 2.421875 -7.71875 2.421875 -7.875 C 2.421875 -8.070312 2.328125 -8.171875 2.140625 -8.171875 C 1.921875 -8.171875 1.726562 -8.070312 1.5625 -7.875 C 1.40625 -7.675781 1.234375 -7.332031 1.046875 -6.84375 L 0.734375 -5.96875 L 0.40625 -5.96875 L 0.859375 -7.265625 C 1.078125 -7.890625 1.367188 -8.335938 1.734375 -8.609375 C 2.097656 -8.878906 2.535156 -9.015625 3.046875 -9.015625 C 4.023438 -9.015625 4.515625 -8.550781 4.515625 -7.625 C 4.515625 -7.300781 4.46875 -6.972656 4.375 -6.640625 L 3.859375 -4.578125 C 4.316406 -5.734375 4.753906 -6.628906 5.171875 -7.265625 C 5.597656 -7.910156 6.03125 -8.363281 6.46875 -8.625 C 6.90625 -8.882812 7.390625 -9.015625 7.921875 -9.015625 C 8.941406 -9.015625 9.453125 -8.5625 9.453125 -7.65625 C 9.453125 -7.3125 9.378906 -6.910156 9.234375 -6.453125 L 7.5625 -1.4375 C 7.5 -1.238281 7.46875 -1.078125 7.46875 -0.953125 C 7.46875 -0.710938 7.570312 -0.59375 7.78125 -0.59375 C 7.96875 -0.59375 8.148438 -0.6875 8.328125 -0.875 C 8.503906 -1.070312 8.679688 -1.425781 8.859375 -1.9375 L 9.15625 -2.75 Z M 9.484375 -2.75 "/></g></g></g><g fill="#d9d9d9" fill-opacity="1"><g transform="translate(226.496143, 224.875942)"><g><path d="M 0.203125 -2.5625 C 0.203125 -3.488281 0.410156 -4.453125 0.828125 -5.453125 C 1.253906 -6.460938 1.882812 -7.304688 2.71875 -7.984375 C 3.550781 -8.671875 4.546875 -9.015625 5.703125 -9.015625 C 6.585938 -9.015625 7.265625 -8.769531 7.734375 -8.28125 C 8.210938 -7.800781 8.453125 -7.109375 8.453125 -6.203125 C 8.453125 -5.273438 8.238281 -4.304688 7.8125 -3.296875 C 7.382812 -2.296875 6.753906 -1.457031 5.921875 -0.78125 C 5.097656 -0.101562 4.109375 0.234375 2.953125 0.234375 C 2.066406 0.234375 1.382812 -0.00390625 0.90625 -0.484375 C 0.4375 -0.960938 0.203125 -1.65625 0.203125 -2.5625 Z M 5.609375 -8.671875 C 5.191406 -8.671875 4.734375 -8.269531 4.234375 -7.46875 C 3.742188 -6.664062 3.328125 -5.679688 2.984375 -4.515625 C 2.648438 -3.347656 2.484375 -2.257812 2.484375 -1.25 C 2.484375 -0.84375 2.523438 -0.550781 2.609375 -0.375 C 2.703125 -0.195312 2.847656 -0.109375 3.046875 -0.109375 C 3.472656 -0.109375 3.929688 -0.492188 4.421875 -1.265625 C 4.910156 -2.046875 5.320312 -3.015625 5.65625 -4.171875 C 6 -5.335938 6.171875 -6.441406 6.171875 -7.484375 C 6.171875 -7.921875 6.125 -8.226562 6.03125 -8.40625 C 5.945312 -8.582031 5.804688 -8.671875 5.609375 -8.671875 Z M 5.609375 -8.671875 "/></g></g></g><g fill="#d9d9d9" fill-opacity="1"><g transform="translate(237.585204, 224.875942)"><g><path d="M 2.40625 -1.4375 C 2.363281 -1.289062 2.34375 -1.148438 2.34375 -1.015625 C 2.34375 -0.734375 2.460938 -0.59375 2.703125 -0.59375 C 3.046875 -0.59375 3.382812 -1.039062 3.71875 -1.9375 L 4.015625 -2.75 L 4.34375 -2.75 L 3.921875 -1.515625 C 3.703125 -0.878906 3.390625 -0.425781 2.984375 -0.15625 C 2.578125 0.101562 2.132812 0.234375 1.65625 0.234375 C 1.15625 0.234375 0.773438 0.101562 0.515625 -0.15625 C 0.253906 -0.425781 0.125 -0.796875 0.125 -1.265625 C 0.125 -1.617188 0.191406 -2.015625 0.328125 -2.453125 L 2.984375 -11.3125 C 3.046875 -11.519531 3.078125 -11.679688 3.078125 -11.796875 C 3.078125 -12.015625 2.988281 -12.175781 2.8125 -12.28125 C 2.632812 -12.382812 2.335938 -12.4375 1.921875 -12.4375 L 2.03125 -12.796875 C 2.8125 -12.804688 3.515625 -12.867188 4.140625 -12.984375 C 4.765625 -13.097656 5.375 -13.265625 5.96875 -13.484375 Z M 2.40625 -1.4375 "/></g></g></g><g fill="#d9d9d9" fill-opacity="1"><g transform="translate(244.792058, 224.875942)"><g><path d="M 0.203125 -2.5625 C 0.203125 -3.488281 0.410156 -4.453125 0.828125 -5.453125 C 1.253906 -6.460938 1.882812 -7.304688 2.71875 -7.984375 C 3.550781 -8.671875 4.546875 -9.015625 5.703125 -9.015625 C 6.585938 -9.015625 7.265625 -8.769531 7.734375 -8.28125 C 8.210938 -7.800781 8.453125 -7.109375 8.453125 -6.203125 C 8.453125 -5.273438 8.238281 -4.304688 7.8125 -3.296875 C 7.382812 -2.296875 6.753906 -1.457031 5.921875 -0.78125 C 5.097656 -0.101562 4.109375 0.234375 2.953125 0.234375 C 2.066406 0.234375 1.382812 -0.00390625 0.90625 -0.484375 C 0.4375 -0.960938 0.203125 -1.65625 0.203125 -2.5625 Z M 5.609375 -8.671875 C 5.191406 -8.671875 4.734375 -8.269531 4.234375 -7.46875 C 3.742188 -6.664062 3.328125 -5.679688 2.984375 -4.515625 C 2.648438 -3.347656 2.484375 -2.257812 2.484375 -1.25 C 2.484375 -0.84375 2.523438 -0.550781 2.609375 -0.375 C 2.703125 -0.195312 2.847656 -0.109375 3.046875 -0.109375 C 3.472656 -0.109375 3.929688 -0.492188 4.421875 -1.265625 C 4.910156 -2.046875 5.320312 -3.015625 5.65625 -4.171875 C 6 -5.335938 6.171875 -6.441406 6.171875 -7.484375 C 6.171875 -7.921875 6.125 -8.226562 6.03125 -8.40625 C 5.945312 -8.582031 5.804688 -8.671875 5.609375 -8.671875 Z M 5.609375 -8.671875 "/></g></g></g><g fill="#d9d9d9" fill-opacity="1"><g transform="translate(255.881119, 224.875942)"><g><path d="M 7.875 -9.75 C 8.226562 -9.75 8.5 -9.65625 8.6875 -9.46875 C 8.875 -9.28125 8.96875 -9.015625 8.96875 -8.671875 C 8.96875 -8.367188 8.890625 -8.128906 8.734375 -7.953125 C 8.578125 -7.773438 8.390625 -7.6875 8.171875 -7.6875 C 7.953125 -7.6875 7.753906 -7.773438 7.578125 -7.953125 C 7.410156 -8.128906 7.328125 -8.367188 7.328125 -8.671875 C 7.328125 -8.890625 7.378906 -9.140625 7.484375 -9.421875 C 7.046875 -9.222656 6.707031 -8.96875 6.46875 -8.65625 C 6.757812 -8.507812 6.984375 -8.300781 7.140625 -8.03125 C 7.296875 -7.769531 7.375 -7.453125 7.375 -7.078125 C 7.375 -6.597656 7.238281 -6.125 6.96875 -5.65625 C 6.707031 -5.1875 6.332031 -4.78125 5.84375 -4.4375 C 5.363281 -4.09375 4.800781 -3.859375 4.15625 -3.734375 C 3.519531 -3.453125 3.0625 -3.222656 2.78125 -3.046875 C 2.507812 -2.878906 2.375 -2.71875 2.375 -2.5625 C 2.375 -2.457031 2.4375 -2.367188 2.5625 -2.296875 C 2.6875 -2.222656 2.878906 -2.144531 3.140625 -2.0625 L 4.5625 -1.59375 C 5.164062 -1.394531 5.640625 -1.160156 5.984375 -0.890625 C 6.328125 -0.617188 6.5 -0.242188 6.5 0.234375 C 6.5 0.773438 6.265625 1.273438 5.796875 1.734375 C 5.328125 2.191406 4.695312 2.554688 3.90625 2.828125 C 3.113281 3.097656 2.257812 3.234375 1.34375 3.234375 C 0.457031 3.234375 -0.273438 3.113281 -0.859375 2.875 C -1.453125 2.644531 -1.75 2.335938 -1.75 1.953125 C -1.75 1.554688 -1.429688 1.21875 -0.796875 0.9375 C -0.160156 0.664062 0.554688 0.484375 1.359375 0.390625 L 1.421875 0.640625 C 0.722656 1.023438 0.375 1.472656 0.375 1.984375 C 0.375 2.296875 0.492188 2.535156 0.734375 2.703125 C 0.972656 2.867188 1.300781 2.953125 1.71875 2.953125 C 2.132812 2.953125 2.570312 2.867188 3.03125 2.703125 C 3.488281 2.535156 3.867188 2.3125 4.171875 2.03125 C 4.472656 1.757812 4.625 1.46875 4.625 1.15625 C 4.625 0.96875 4.554688 0.832031 4.421875 0.75 C 4.296875 0.664062 4.070312 0.578125 3.75 0.484375 L 1.34375 -0.203125 C 1.03125 -0.296875 0.78125 -0.4375 0.59375 -0.625 C 0.414062 -0.8125 0.328125 -1.039062 0.328125 -1.3125 C 0.328125 -1.71875 0.566406 -2.09375 1.046875 -2.4375 C 1.523438 -2.789062 2.296875 -3.191406 3.359375 -3.640625 L 3.1875 -3.640625 C 2.425781 -3.640625 1.8125 -3.796875 1.34375 -4.109375 C 0.875 -4.429688 0.640625 -4.910156 0.640625 -5.546875 C 0.640625 -6.066406 0.800781 -6.59375 1.125 -7.125 C 1.445312 -7.65625 1.925781 -8.097656 2.5625 -8.453125 C 3.195312 -8.816406 3.945312 -9 4.8125 -9 C 5.289062 -9 5.734375 -8.9375 6.140625 -8.8125 C 6.347656 -9.09375 6.601562 -9.316406 6.90625 -9.484375 C 7.21875 -9.660156 7.539062 -9.75 7.875 -9.75 Z M 3.484375 -3.953125 C 3.984375 -3.953125 4.367188 -4.332031 4.640625 -5.09375 C 4.921875 -5.863281 5.0625 -6.707031 5.0625 -7.625 C 5.0625 -7.957031 5.023438 -8.21875 4.953125 -8.40625 C 4.878906 -8.59375 4.734375 -8.6875 4.515625 -8.6875 C 4.179688 -8.6875 3.894531 -8.488281 3.65625 -8.09375 C 3.414062 -7.695312 3.234375 -7.207031 3.109375 -6.625 C 2.992188 -6.039062 2.9375 -5.484375 2.9375 -4.953125 C 2.9375 -4.585938 2.976562 -4.328125 3.0625 -4.171875 C 3.15625 -4.023438 3.296875 -3.953125 3.484375 -3.953125 Z M 3.484375 -3.953125 "/></g></g></g><g fill="#d9d9d9" fill-opacity="1"><g transform="translate(266.003871, 224.875942)"><g><path d="M 6.828125 -9.015625 C 7.566406 -9.015625 7.9375 -8.5 7.9375 -7.46875 C 7.9375 -6.445312 7.609375 -5.234375 6.953125 -3.828125 C 6.296875 -2.421875 5.507812 -1.164062 4.59375 -0.0625 C 4.019531 0.625 3.382812 1.234375 2.6875 1.765625 C 1.988281 2.296875 1.273438 2.6875 0.546875 2.9375 C 0.0859375 3.101562 -0.3125 3.1875 -0.65625 3.1875 C -1.019531 3.1875 -1.304688 3.101562 -1.515625 2.9375 C -1.722656 2.769531 -1.828125 2.535156 -1.828125 2.234375 C -1.828125 1.929688 -1.71875 1.679688 -1.5 1.484375 C -1.28125 1.285156 -1 1.1875 -0.65625 1.1875 C 0.0078125 1.1875 0.613281 1.578125 1.15625 2.359375 C 1.96875 1.960938 2.703125 1.441406 3.359375 0.796875 L 2.03125 -7.3125 C 1.976562 -7.625 1.921875 -7.832031 1.859375 -7.9375 C 1.796875 -8.050781 1.707031 -8.109375 1.59375 -8.109375 C 1.46875 -8.109375 1.347656 -8.023438 1.234375 -7.859375 C 1.117188 -7.691406 0.972656 -7.359375 0.796875 -6.859375 L 0.484375 -6.03125 L 0.171875 -6.03125 L 0.59375 -7.265625 C 0.820312 -7.910156 1.109375 -8.363281 1.453125 -8.625 C 1.796875 -8.882812 2.207031 -9.015625 2.6875 -9.015625 C 3.164062 -9.015625 3.539062 -8.878906 3.8125 -8.609375 C 4.082031 -8.335938 4.269531 -7.859375 4.375 -7.171875 L 5.15625 -1.359375 C 5.65625 -2.066406 6.082031 -2.789062 6.4375 -3.53125 C 6.800781 -4.28125 7.070312 -4.992188 7.25 -5.671875 C 6.78125 -5.921875 6.398438 -6.234375 6.109375 -6.609375 C 5.816406 -6.992188 5.675781 -7.410156 5.6875 -7.859375 C 5.6875 -8.203125 5.785156 -8.476562 5.984375 -8.6875 C 6.191406 -8.90625 6.472656 -9.015625 6.828125 -9.015625 Z M 6.828125 -9.015625 "/></g></g></g></svg>