<svg xmlns="http://www.w3.org/2000/svg" xmlns:xlink="http://www.w3.org/1999/xlink" width="210" zoomAndPan="magnify" viewBox="0 0 157.5 31.5" height="42" preserveAspectRatio="xMidYMid meet" version="1.0"><defs><g/><clipPath id="d56e8fbc68"><path d="M 1 0 L 30.609375 0 L 30.609375 31.007812 L 1 31.007812 Z M 1 0 " clip-rule="nonzero"/></clipPath><clipPath id="b2ae4fee58"><path d="M 18.003906 14.492188 L 4.777344 14.492188 C 4.265625 14.492188 3.894531 14.003906 4.035156 13.507812 L 7.664062 0.570312 C 7.757812 0.238281 8.0625 0.0078125 8.410156 0.0078125 L 21.632812 0.0078125 C 22.144531 0.0078125 22.515625 0.496094 22.378906 0.988281 L 18.746094 13.925781 C 18.652344 14.261719 18.347656 14.492188 18.003906 14.492188 Z M 9.414062 24.257812 L 11.28125 17.597656 C 11.421875 17.101562 11.050781 16.613281 10.539062 16.613281 L 3.738281 16.613281 C 3.394531 16.613281 3.089844 16.84375 2.996094 17.179688 L 1.125 23.839844 C 0.988281 24.332031 1.359375 24.824219 1.871094 24.824219 L 8.667969 24.824219 C 9.015625 24.824219 9.320312 24.59375 9.414062 24.257812 Z M 12.851562 17.179688 L 9.222656 30.117188 C 9.085938 30.609375 9.457031 31.097656 9.96875 31.097656 L 23.191406 31.097656 C 23.539062 31.097656 23.84375 30.867188 23.9375 30.535156 L 27.566406 17.597656 C 27.707031 17.101562 27.335938 16.613281 26.820312 16.613281 L 13.597656 16.613281 C 13.25 16.613281 12.945312 16.84375 12.851562 17.179688 Z M 22.1875 6.847656 L 20.316406 13.507812 C 20.179688 14.003906 20.550781 14.492188 21.0625 14.492188 L 27.859375 14.492188 C 28.207031 14.492188 28.511719 14.261719 28.605469 13.925781 L 30.476562 7.265625 C 30.613281 6.773438 30.242188 6.28125 29.730469 6.28125 L 22.933594 6.28125 C 22.585938 6.28125 22.28125 6.515625 22.1875 6.847656 Z M 22.1875 6.847656 " clip-rule="nonzero"/></clipPath><linearGradient x1="114.296444" gradientTransform="matrix(0.0621851, 0, 0, 0.0621851, 1.096308, 0.00684239)" y1="-47.633965" x2="358.093468" gradientUnits="userSpaceOnUse" y2="546.346682" id="256715f5d6"><stop stop-opacity="1" stop-color="rgb(85.099792%, 85.099792%, 85.099792%)" offset="0"/><stop stop-opacity="1" stop-color="rgb(85.099792%, 85.099792%, 85.099792%)" offset="0.0625"/><stop stop-opacity="1" stop-color="rgb(85.125732%, 85.006714%, 85.006714%)" offset="0.09375"/><stop stop-opacity="1" stop-color="rgb(85.231018%, 84.645081%, 84.645081%)" offset="0.0976562"/><stop stop-opacity="1" stop-color="rgb(85.310364%, 84.378052%, 84.378052%)" offset="0.101563"/><stop stop-opacity="1" stop-color="rgb(85.388184%, 84.109497%, 84.109497%)" offset="0.105469"/><stop stop-opacity="1" stop-color="rgb(85.466003%, 83.840942%, 83.840942%)" offset="0.109375"/><stop stop-opacity="1" stop-color="rgb(85.543823%, 83.572388%, 83.572388%)" offset="0.113281"/><stop stop-opacity="1" stop-color="rgb(85.623169%, 83.305359%, 83.305359%)" offset="0.117188"/><stop stop-opacity="1" stop-color="rgb(85.700989%, 83.036804%, 83.036804%)" offset="0.121094"/><stop stop-opacity="1" stop-color="rgb(85.780334%, 82.76825%, 82.76825%)" offset="0.125"/><stop stop-opacity="1" stop-color="rgb(85.858154%, 82.499695%, 82.499695%)" offset="0.128906"/><stop stop-opacity="1" stop-color="rgb(85.9375%, 82.232666%, 82.232666%)" offset="0.132812"/><stop stop-opacity="1" stop-color="rgb(86.01532%, 81.964111%, 81.964111%)" offset="0.136719"/><stop stop-opacity="1" stop-color="rgb(86.09314%, 81.695557%, 81.695557%)" offset="0.140625"/><stop stop-opacity="1" stop-color="rgb(86.170959%, 81.427002%, 81.427002%)" offset="0.144531"/><stop stop-opacity="1" stop-color="rgb(86.250305%, 81.159973%, 81.159973%)" offset="0.148438"/><stop stop-opacity="1" stop-color="rgb(86.328125%, 80.891418%, 80.891418%)" offset="0.152344"/><stop stop-opacity="1" stop-color="rgb(86.407471%, 80.622864%, 80.622864%)" offset="0.15625"/><stop stop-opacity="1" stop-color="rgb(86.485291%, 80.354309%, 80.354309%)" offset="0.160156"/><stop stop-opacity="1" stop-color="rgb(86.56311%, 80.085754%, 80.085754%)" offset="0.164062"/><stop stop-opacity="1" stop-color="rgb(86.64093%, 79.8172%, 79.8172%)" offset="0.167969"/><stop stop-opacity="1" stop-color="rgb(86.720276%, 79.550171%, 79.550171%)" offset="0.171875"/><stop stop-opacity="1" stop-color="rgb(86.798096%, 79.281616%, 79.281616%)" offset="0.175781"/><stop stop-opacity="1" stop-color="rgb(86.877441%, 79.013062%, 79.013062%)" offset="0.179688"/><stop stop-opacity="1" stop-color="rgb(86.955261%, 78.744507%, 78.744507%)" offset="0.183594"/><stop stop-opacity="1" stop-color="rgb(87.034607%, 78.477478%, 78.477478%)" offset="0.1875"/><stop stop-opacity="1" stop-color="rgb(87.112427%, 78.208923%, 78.208923%)" offset="0.191406"/><stop stop-opacity="1" stop-color="rgb(87.190247%, 77.940369%, 77.940369%)" offset="0.195313"/><stop stop-opacity="1" stop-color="rgb(87.268066%, 77.671814%, 77.671814%)" offset="0.199219"/><stop stop-opacity="1" stop-color="rgb(87.347412%, 77.404785%, 77.404785%)" offset="0.203125"/><stop stop-opacity="1" stop-color="rgb(87.425232%, 77.13623%, 77.13623%)" offset="0.207031"/><stop stop-opacity="1" stop-color="rgb(87.504578%, 76.867676%, 76.867676%)" offset="0.210938"/><stop stop-opacity="1" stop-color="rgb(87.582397%, 76.599121%, 76.599121%)" offset="0.214844"/><stop stop-opacity="1" stop-color="rgb(87.660217%, 76.332092%, 76.332092%)" offset="0.21875"/><stop stop-opacity="1" stop-color="rgb(87.738037%, 76.063538%, 76.063538%)" offset="0.222656"/><stop stop-opacity="1" stop-color="rgb(87.817383%, 75.794983%, 75.794983%)" offset="0.226562"/><stop stop-opacity="1" stop-color="rgb(87.895203%, 75.526428%, 75.526428%)" offset="0.230469"/><stop stop-opacity="1" stop-color="rgb(87.974548%, 75.259399%, 75.259399%)" offset="0.234375"/><stop stop-opacity="1" stop-color="rgb(88.052368%, 74.990845%, 74.990845%)" offset="0.238281"/><stop stop-opacity="1" stop-color="rgb(88.130188%, 74.72229%, 74.72229%)" offset="0.242188"/><stop stop-opacity="1" stop-color="rgb(88.208008%, 74.453735%, 74.453735%)" offset="0.246094"/><stop stop-opacity="1" stop-color="rgb(88.287354%, 74.186707%, 74.186707%)" offset="0.25"/><stop stop-opacity="1" stop-color="rgb(88.365173%, 73.918152%, 73.918152%)" offset="0.253906"/><stop stop-opacity="1" stop-color="rgb(88.444519%, 73.649597%, 73.649597%)" offset="0.257812"/><stop stop-opacity="1" stop-color="rgb(88.522339%, 73.381042%, 73.381042%)" offset="0.261719"/><stop stop-opacity="1" stop-color="rgb(88.601685%, 73.114014%, 73.114014%)" offset="0.265625"/><stop stop-opacity="1" stop-color="rgb(88.679504%, 72.845459%, 72.845459%)" offset="0.269531"/><stop stop-opacity="1" stop-color="rgb(88.757324%, 72.576904%, 72.576904%)" offset="0.273438"/><stop stop-opacity="1" stop-color="rgb(88.835144%, 72.30835%, 72.30835%)" offset="0.277344"/><stop stop-opacity="1" stop-color="rgb(88.91449%, 72.039795%, 72.039795%)" offset="0.28125"/><stop stop-opacity="1" stop-color="rgb(88.99231%, 71.77124%, 71.77124%)" offset="0.285156"/><stop stop-opacity="1" stop-color="rgb(89.071655%, 71.504211%, 71.504211%)" offset="0.289062"/><stop stop-opacity="1" stop-color="rgb(89.149475%, 71.235657%, 71.235657%)" offset="0.292969"/><stop stop-opacity="1" stop-color="rgb(89.227295%, 70.967102%, 70.967102%)" offset="0.296875"/><stop stop-opacity="1" stop-color="rgb(89.305115%, 70.698547%, 70.698547%)" offset="0.300781"/><stop stop-opacity="1" stop-color="rgb(89.38446%, 70.431519%, 70.431519%)" offset="0.304688"/><stop stop-opacity="1" stop-color="rgb(89.46228%, 70.162964%, 70.162964%)" offset="0.308594"/><stop stop-opacity="1" stop-color="rgb(89.541626%, 69.894409%, 69.894409%)" offset="0.3125"/><stop stop-opacity="1" stop-color="rgb(89.619446%, 69.625854%, 69.625854%)" offset="0.316406"/><stop stop-opacity="1" stop-color="rgb(89.697266%, 69.358826%, 69.358826%)" offset="0.320312"/><stop stop-opacity="1" stop-color="rgb(89.775085%, 69.090271%, 69.090271%)" offset="0.324219"/><stop stop-opacity="1" stop-color="rgb(89.854431%, 68.821716%, 68.821716%)" offset="0.328125"/><stop stop-opacity="1" stop-color="rgb(89.932251%, 68.553162%, 68.553162%)" offset="0.332031"/><stop stop-opacity="1" stop-color="rgb(90.011597%, 68.286133%, 68.286133%)" offset="0.335938"/><stop stop-opacity="1" stop-color="rgb(90.089417%, 68.017578%, 68.017578%)" offset="0.339844"/><stop stop-opacity="1" stop-color="rgb(90.168762%, 67.749023%, 67.749023%)" offset="0.34375"/><stop stop-opacity="1" stop-color="rgb(90.246582%, 67.480469%, 67.480469%)" offset="0.347656"/><stop stop-opacity="1" stop-color="rgb(90.324402%, 67.21344%, 67.21344%)" offset="0.351562"/><stop stop-opacity="1" stop-color="rgb(90.402222%, 66.944885%, 66.944885%)" offset="0.355469"/><stop stop-opacity="1" stop-color="rgb(90.481567%, 66.676331%, 66.676331%)" offset="0.359375"/><stop stop-opacity="1" stop-color="rgb(90.559387%, 66.407776%, 66.407776%)" offset="0.363281"/><stop stop-opacity="1" stop-color="rgb(90.638733%, 66.140747%, 66.140747%)" offset="0.367188"/><stop stop-opacity="1" stop-color="rgb(90.716553%, 65.872192%, 65.872192%)" offset="0.371094"/><stop stop-opacity="1" stop-color="rgb(90.794373%, 65.603638%, 65.603638%)" offset="0.375"/><stop stop-opacity="1" stop-color="rgb(90.872192%, 65.335083%, 65.335083%)" offset="0.378906"/><stop stop-opacity="1" stop-color="rgb(90.951538%, 65.068054%, 65.068054%)" offset="0.382812"/><stop stop-opacity="1" stop-color="rgb(91.029358%, 64.7995%, 64.7995%)" offset="0.386719"/><stop stop-opacity="1" stop-color="rgb(91.108704%, 64.530945%, 64.530945%)" offset="0.390625"/><stop stop-opacity="1" stop-color="rgb(91.186523%, 64.26239%, 64.26239%)" offset="0.394531"/><stop stop-opacity="1" stop-color="rgb(91.265869%, 63.993835%, 63.993835%)" offset="0.398438"/><stop stop-opacity="1" stop-color="rgb(91.343689%, 63.725281%, 63.725281%)" offset="0.402344"/><stop stop-opacity="1" stop-color="rgb(91.421509%, 63.458252%, 63.458252%)" offset="0.40625"/><stop stop-opacity="1" stop-color="rgb(91.499329%, 63.189697%, 63.189697%)" offset="0.410156"/><stop stop-opacity="1" stop-color="rgb(91.578674%, 62.921143%, 62.921143%)" offset="0.414063"/><stop stop-opacity="1" stop-color="rgb(91.656494%, 62.652588%, 62.652588%)" offset="0.417969"/><stop stop-opacity="1" stop-color="rgb(91.73584%, 62.385559%, 62.385559%)" offset="0.421875"/><stop stop-opacity="1" stop-color="rgb(91.81366%, 62.117004%, 62.117004%)" offset="0.425781"/><stop stop-opacity="1" stop-color="rgb(91.891479%, 61.84845%, 61.84845%)" offset="0.429688"/><stop stop-opacity="1" stop-color="rgb(91.969299%, 61.579895%, 61.579895%)" offset="0.433594"/><stop stop-opacity="1" stop-color="rgb(92.048645%, 61.312866%, 61.312866%)" offset="0.4375"/><stop stop-opacity="1" stop-color="rgb(92.126465%, 61.044312%, 61.044312%)" offset="0.441406"/><stop stop-opacity="1" stop-color="rgb(92.205811%, 60.775757%, 60.775757%)" offset="0.445313"/><stop stop-opacity="1" stop-color="rgb(92.28363%, 60.507202%, 60.507202%)" offset="0.449219"/><stop stop-opacity="1" stop-color="rgb(92.36145%, 60.240173%, 60.240173%)" offset="0.453125"/><stop stop-opacity="1" stop-color="rgb(92.43927%, 59.971619%, 59.971619%)" offset="0.457031"/><stop stop-opacity="1" stop-color="rgb(92.518616%, 59.703064%, 59.703064%)" offset="0.460938"/><stop stop-opacity="1" stop-color="rgb(92.596436%, 59.434509%, 59.434509%)" offset="0.464844"/><stop stop-opacity="1" stop-color="rgb(92.675781%, 59.16748%, 59.16748%)" offset="0.46875"/><stop stop-opacity="1" stop-color="rgb(92.753601%, 58.898926%, 58.898926%)" offset="0.472656"/><stop stop-opacity="1" stop-color="rgb(92.832947%, 58.630371%, 58.630371%)" offset="0.476563"/><stop stop-opacity="1" stop-color="rgb(92.910767%, 58.361816%, 58.361816%)" offset="0.480469"/><stop stop-opacity="1" stop-color="rgb(92.988586%, 58.094788%, 58.094788%)" offset="0.484375"/><stop stop-opacity="1" stop-color="rgb(93.066406%, 57.826233%, 57.826233%)" offset="0.488281"/><stop stop-opacity="1" stop-color="rgb(93.145752%, 57.557678%, 57.557678%)" offset="0.492188"/><stop stop-opacity="1" stop-color="rgb(93.223572%, 57.289124%, 57.289124%)" offset="0.496094"/><stop stop-opacity="1" stop-color="rgb(93.302917%, 57.020569%, 57.020569%)" offset="0.5"/><stop stop-opacity="1" stop-color="rgb(93.380737%, 56.752014%, 56.752014%)" offset="0.503906"/><stop stop-opacity="1" stop-color="rgb(93.458557%, 56.484985%, 56.484985%)" offset="0.507813"/><stop stop-opacity="1" stop-color="rgb(93.536377%, 56.216431%, 56.216431%)" offset="0.511719"/><stop stop-opacity="1" stop-color="rgb(93.615723%, 55.947876%, 55.947876%)" offset="0.515625"/><stop stop-opacity="1" stop-color="rgb(93.693542%, 55.679321%, 55.679321%)" offset="0.519531"/><stop stop-opacity="1" stop-color="rgb(93.772888%, 55.412292%, 55.412292%)" offset="0.523438"/><stop stop-opacity="1" stop-color="rgb(93.850708%, 55.143738%, 55.143738%)" offset="0.527344"/><stop stop-opacity="1" stop-color="rgb(93.928528%, 54.875183%, 54.875183%)" offset="0.53125"/><stop stop-opacity="1" stop-color="rgb(94.006348%, 54.606628%, 54.606628%)" offset="0.535156"/><stop stop-opacity="1" stop-color="rgb(94.085693%, 54.3396%, 54.3396%)" offset="0.539063"/><stop stop-opacity="1" stop-color="rgb(94.163513%, 54.071045%, 54.071045%)" offset="0.542969"/><stop stop-opacity="1" stop-color="rgb(94.242859%, 53.80249%, 53.80249%)" offset="0.546875"/><stop stop-opacity="1" stop-color="rgb(94.320679%, 53.533936%, 53.533936%)" offset="0.550781"/><stop stop-opacity="1" stop-color="rgb(94.400024%, 53.266907%, 53.266907%)" offset="0.554688"/><stop stop-opacity="1" stop-color="rgb(94.477844%, 52.998352%, 52.998352%)" offset="0.558594"/><stop stop-opacity="1" stop-color="rgb(94.555664%, 52.729797%, 52.729797%)" offset="0.5625"/><stop stop-opacity="1" stop-color="rgb(94.633484%, 52.461243%, 52.461243%)" offset="0.566406"/><stop stop-opacity="1" stop-color="rgb(94.71283%, 52.194214%, 52.194214%)" offset="0.570313"/><stop stop-opacity="1" stop-color="rgb(94.790649%, 51.925659%, 51.925659%)" offset="0.574219"/><stop stop-opacity="1" stop-color="rgb(94.869995%, 51.657104%, 51.657104%)" offset="0.578125"/><stop stop-opacity="1" stop-color="rgb(94.947815%, 51.38855%, 51.38855%)" offset="0.582031"/><stop stop-opacity="1" stop-color="rgb(95.025635%, 51.121521%, 51.121521%)" offset="0.585938"/><stop stop-opacity="1" stop-color="rgb(95.103455%, 50.852966%, 50.852966%)" offset="0.589844"/><stop stop-opacity="1" stop-color="rgb(95.1828%, 50.584412%, 50.584412%)" offset="0.59375"/><stop stop-opacity="1" stop-color="rgb(95.26062%, 50.315857%, 50.315857%)" offset="0.597656"/><stop stop-opacity="1" stop-color="rgb(95.339966%, 50.048828%, 50.048828%)" offset="0.601563"/><stop stop-opacity="1" stop-color="rgb(95.417786%, 49.780273%, 49.780273%)" offset="0.605469"/><stop stop-opacity="1" stop-color="rgb(95.497131%, 49.511719%, 49.511719%)" offset="0.609375"/><stop stop-opacity="1" stop-color="rgb(95.574951%, 49.243164%, 49.243164%)" offset="0.613281"/><stop stop-opacity="1" stop-color="rgb(95.652771%, 48.974609%, 48.974609%)" offset="0.617188"/><stop stop-opacity="1" stop-color="rgb(95.730591%, 48.706055%, 48.706055%)" offset="0.621094"/><stop stop-opacity="1" stop-color="rgb(95.809937%, 48.439026%, 48.439026%)" offset="0.625"/><stop stop-opacity="1" stop-color="rgb(95.887756%, 48.170471%, 48.170471%)" offset="0.628906"/><stop stop-opacity="1" stop-color="rgb(95.967102%, 47.901917%, 47.901917%)" offset="0.632813"/><stop stop-opacity="1" stop-color="rgb(96.044922%, 47.633362%, 47.633362%)" offset="0.636719"/><stop stop-opacity="1" stop-color="rgb(96.122742%, 47.366333%, 47.366333%)" offset="0.640625"/><stop stop-opacity="1" stop-color="rgb(96.200562%, 47.097778%, 47.097778%)" offset="0.644531"/><stop stop-opacity="1" stop-color="rgb(96.279907%, 46.829224%, 46.829224%)" offset="0.648438"/><stop stop-opacity="1" stop-color="rgb(96.357727%, 46.560669%, 46.560669%)" offset="0.652344"/><stop stop-opacity="1" stop-color="rgb(96.437073%, 46.29364%, 46.29364%)" offset="0.65625"/><stop stop-opacity="1" stop-color="rgb(96.514893%, 46.025085%, 46.025085%)" offset="0.660156"/><stop stop-opacity="1" stop-color="rgb(96.592712%, 45.756531%, 45.756531%)" offset="0.664063"/><stop stop-opacity="1" stop-color="rgb(96.670532%, 45.487976%, 45.487976%)" offset="0.667969"/><stop stop-opacity="1" stop-color="rgb(96.749878%, 45.220947%, 45.220947%)" offset="0.671875"/><stop stop-opacity="1" stop-color="rgb(96.827698%, 44.952393%, 44.952393%)" offset="0.675781"/><stop stop-opacity="1" stop-color="rgb(96.907043%, 44.683838%, 44.683838%)" offset="0.679688"/><stop stop-opacity="1" stop-color="rgb(96.984863%, 44.415283%, 44.415283%)" offset="0.683594"/><stop stop-opacity="1" stop-color="rgb(97.064209%, 44.148254%, 44.148254%)" offset="0.6875"/><stop stop-opacity="1" stop-color="rgb(97.142029%, 43.8797%, 43.8797%)" offset="0.691406"/><stop stop-opacity="1" stop-color="rgb(97.219849%, 43.611145%, 43.611145%)" offset="0.695313"/><stop stop-opacity="1" stop-color="rgb(97.297668%, 43.34259%, 43.34259%)" offset="0.699219"/><stop stop-opacity="1" stop-color="rgb(97.377014%, 43.075562%, 43.075562%)" offset="0.703125"/><stop stop-opacity="1" stop-color="rgb(97.454834%, 42.807007%, 42.807007%)" offset="0.707031"/><stop stop-opacity="1" stop-color="rgb(97.53418%, 42.538452%, 42.538452%)" offset="0.710938"/><stop stop-opacity="1" stop-color="rgb(97.612%, 42.269897%, 42.269897%)" offset="0.714844"/><stop stop-opacity="1" stop-color="rgb(97.689819%, 42.001343%, 42.001343%)" offset="0.71875"/><stop stop-opacity="1" stop-color="rgb(97.767639%, 41.732788%, 41.732788%)" offset="0.722656"/><stop stop-opacity="1" stop-color="rgb(97.846985%, 41.465759%, 41.465759%)" offset="0.726563"/><stop stop-opacity="1" stop-color="rgb(97.924805%, 41.197205%, 41.197205%)" offset="0.730469"/><stop stop-opacity="1" stop-color="rgb(98.00415%, 40.92865%, 40.92865%)" offset="0.734375"/><stop stop-opacity="1" stop-color="rgb(98.08197%, 40.660095%, 40.660095%)" offset="0.738281"/><stop stop-opacity="1" stop-color="rgb(98.15979%, 40.393066%, 40.393066%)" offset="0.742188"/><stop stop-opacity="1" stop-color="rgb(98.23761%, 40.124512%, 40.124512%)" offset="0.746094"/><stop stop-opacity="1" stop-color="rgb(98.316956%, 39.855957%, 39.855957%)" offset="0.75"/><stop stop-opacity="1" stop-color="rgb(98.394775%, 39.587402%, 39.587402%)" offset="0.753906"/><stop stop-opacity="1" stop-color="rgb(98.474121%, 39.320374%, 39.320374%)" offset="0.757813"/><stop stop-opacity="1" stop-color="rgb(98.551941%, 39.051819%, 39.051819%)" offset="0.761719"/><stop stop-opacity="1" stop-color="rgb(98.631287%, 38.783264%, 38.783264%)" offset="0.765625"/><stop stop-opacity="1" stop-color="rgb(98.709106%, 38.514709%, 38.514709%)" offset="0.769531"/><stop stop-opacity="1" stop-color="rgb(98.786926%, 38.247681%, 38.247681%)" offset="0.773438"/><stop stop-opacity="1" stop-color="rgb(98.864746%, 37.979126%, 37.979126%)" offset="0.777344"/><stop stop-opacity="1" stop-color="rgb(98.944092%, 37.710571%, 37.710571%)" offset="0.78125"/><stop stop-opacity="1" stop-color="rgb(99.021912%, 37.442017%, 37.442017%)" offset="0.785156"/><stop stop-opacity="1" stop-color="rgb(99.101257%, 37.174988%, 37.174988%)" offset="0.789063"/><stop stop-opacity="1" stop-color="rgb(99.179077%, 36.906433%, 36.906433%)" offset="0.792969"/><stop stop-opacity="1" stop-color="rgb(99.256897%, 36.637878%, 36.637878%)" offset="0.796875"/><stop stop-opacity="1" stop-color="rgb(99.334717%, 36.369324%, 36.369324%)" offset="0.800781"/><stop stop-opacity="1" stop-color="rgb(99.414062%, 36.102295%, 36.102295%)" offset="0.804688"/><stop stop-opacity="1" stop-color="rgb(99.491882%, 35.83374%, 35.83374%)" offset="0.808594"/><stop stop-opacity="1" stop-color="rgb(99.571228%, 35.565186%, 35.565186%)" offset="0.8125"/><stop stop-opacity="1" stop-color="rgb(99.649048%, 35.296631%, 35.296631%)" offset="0.816406"/><stop stop-opacity="1" stop-color="rgb(99.728394%, 35.029602%, 35.029602%)" offset="0.820312"/><stop stop-opacity="1" stop-color="rgb(99.806213%, 34.761047%, 34.761047%)" offset="0.824219"/><stop stop-opacity="1" stop-color="rgb(99.884033%, 34.492493%, 34.492493%)" offset="0.828125"/><stop stop-opacity="1" stop-color="rgb(99.942017%, 34.295654%, 34.295654%)" offset="0.832031"/><stop stop-opacity="1" stop-color="rgb(100%, 34.098816%, 34.098816%)" offset="0.835938"/><stop stop-opacity="1" stop-color="rgb(100%, 34.098816%, 34.098816%)" offset="0.84375"/><stop stop-opacity="1" stop-color="rgb(100%, 34.098816%, 34.098816%)" offset="0.875"/><stop stop-opacity="1" stop-color="rgb(100%, 34.098816%, 34.098816%)" offset="1"/></linearGradient></defs><g fill="#ffffff" fill-opacity="1"><g transform="translate(35.633985, 20.990372)"><g><path d="M 1.84375 0 C 1.882812 -0.226562 1.90625 -0.476562 1.90625 -0.75 L 1.90625 -13.5 L 3.9375 -13.5 L 9.3125 -5.03125 L 9.3125 -12.8125 C 9.3125 -13.1875 9.273438 -13.414062 9.203125 -13.5 L 11.953125 -13.5 C 11.921875 -13.226562 11.90625 -12.929688 11.90625 -12.609375 L 11.90625 0 L 9.796875 0 L 4.484375 -8.140625 L 4.484375 0 Z M 1.84375 0 "/></g></g></g><g fill="#ffffff" fill-opacity="1"><g transform="translate(52.348032, 20.990372)"><g><path d="M 2.734375 0.078125 C 2.148438 0.0234375 1.46875 0 0.6875 0 L -0.109375 0 L 4.3125 -12.375 C 4.5 -12.9375 4.59375 -13.257812 4.59375 -13.34375 C 4.59375 -13.4375 4.59375 -13.492188 4.59375 -13.515625 L 4.59375 -13.53125 C 5.039062 -13.507812 5.507812 -13.5 6 -13.5 C 6.40625 -13.5 6.894531 -13.507812 7.46875 -13.53125 L 7.46875 -13.5 C 7.457031 -13.476562 7.453125 -13.441406 7.453125 -13.390625 C 7.453125 -13.265625 7.554688 -12.925781 7.765625 -12.375 L 12.265625 0.03125 C 12.128906 0.0195312 11.972656 0.015625 11.796875 0.015625 C 11.796875 0.015625 11.617188 0.0078125 11.265625 0 C 11.085938 0 10.929688 0 10.796875 0 L 9.234375 0 L 8.28125 -2.921875 L 3.6875 -2.921875 Z M 7.484375 -5.359375 L 5.953125 -10.078125 L 4.453125 -5.359375 Z M 7.484375 -5.359375 "/></g></g></g><g fill="#ffffff" fill-opacity="1"><g transform="translate(67.41681, 20.990372)"><g><path d="M 9.90625 -12.75 L 9.703125 -9.765625 L 9.640625 -9.75 C 9.140625 -10.5 8.285156 -10.984375 7.078125 -11.203125 C 6.703125 -11.285156 6.335938 -11.328125 5.984375 -11.328125 C 5.640625 -11.328125 5.34375 -11.296875 5.09375 -11.234375 C 4.84375 -11.171875 4.628906 -11.082031 4.453125 -10.96875 C 4.085938 -10.71875 3.90625 -10.398438 3.90625 -10.015625 C 3.90625 -9.492188 4.066406 -9.109375 4.390625 -8.859375 C 4.796875 -8.546875 5.46875 -8.328125 6.40625 -8.203125 C 7.34375 -8.078125 8.097656 -7.90625 8.671875 -7.6875 C 9.242188 -7.46875 9.710938 -7.191406 10.078125 -6.859375 C 10.765625 -6.242188 11.109375 -5.363281 11.109375 -4.21875 C 11.109375 -2.726562 10.546875 -1.582031 9.421875 -0.78125 C 8.460938 -0.09375 7.25 0.25 5.78125 0.25 C 4.601562 0.25 3.441406 0.0234375 2.296875 -0.421875 C 1.910156 -0.566406 1.578125 -0.738281 1.296875 -0.9375 L 1.40625 -4.328125 L 1.453125 -4.359375 C 2.296875 -2.910156 3.671875 -2.1875 5.578125 -2.1875 C 6.941406 -2.1875 7.84375 -2.515625 8.28125 -3.171875 C 8.4375 -3.390625 8.515625 -3.632812 8.515625 -3.90625 C 8.515625 -4.1875 8.46875 -4.414062 8.375 -4.59375 C 8.289062 -4.769531 8.144531 -4.925781 7.9375 -5.0625 C 7.550781 -5.3125 6.890625 -5.476562 5.953125 -5.5625 C 5.023438 -5.65625 4.265625 -5.820312 3.671875 -6.0625 C 3.085938 -6.3125 2.625 -6.613281 2.28125 -6.96875 C 1.632812 -7.625 1.3125 -8.535156 1.3125 -9.703125 C 1.3125 -10.898438 1.738281 -11.875 2.59375 -12.625 C 3.445312 -13.382812 4.601562 -13.765625 6.0625 -13.765625 C 7.519531 -13.765625 8.800781 -13.425781 9.90625 -12.75 Z M 9.90625 -12.75 "/></g></g></g><g fill="#ffffff" fill-opacity="1"><g transform="translate(82.444966, 20.990372)"><g><path d="M 7.796875 -13.765625 C 9.066406 -13.765625 10.144531 -13.539062 11.03125 -13.09375 L 11.03125 -10 L 11.015625 -9.96875 C 10.640625 -10.550781 9.84375 -10.9375 8.625 -11.125 C 8.257812 -11.1875 7.800781 -11.21875 7.25 -11.21875 C 6.707031 -11.21875 6.171875 -11.113281 5.640625 -10.90625 C 5.117188 -10.695312 4.6875 -10.40625 4.34375 -10.03125 C 3.6875 -9.289062 3.359375 -8.238281 3.359375 -6.875 C 3.359375 -5.28125 3.773438 -4.097656 4.609375 -3.328125 C 5.296875 -2.671875 6.210938 -2.34375 7.359375 -2.34375 C 8.640625 -2.34375 9.679688 -2.617188 10.484375 -3.171875 C 10.773438 -3.367188 11.019531 -3.613281 11.21875 -3.90625 L 11.25 -3.875 L 11.25 -1.03125 C 10.21875 -0.175781 8.820312 0.25 7.0625 0.25 C 5 0.25 3.382812 -0.40625 2.21875 -1.71875 C 1.09375 -2.96875 0.53125 -4.625 0.53125 -6.6875 C 0.53125 -8.875 1.144531 -10.597656 2.375 -11.859375 C 3.625 -13.128906 5.429688 -13.765625 7.796875 -13.765625 Z M 7.796875 -13.765625 "/></g></g></g><g fill="#ffffff" fill-opacity="1"><g transform="translate(97.422339, 20.990372)"><g><path d="M 4.484375 0.0625 C 3.835938 0.0195312 3.066406 0 2.171875 0 L 1.84375 0 L 1.84375 -13.5625 C 2.269531 -13.519531 2.566406 -13.5 2.734375 -13.5 L 3.15625 -13.5 C 3.6875 -13.5 4.128906 -13.53125 4.484375 -13.59375 L 4.484375 -8.171875 L 9.265625 -8.171875 L 9.265625 -13.5625 C 9.828125 -13.519531 10.375 -13.5 10.90625 -13.5 C 11.4375 -13.5 11.769531 -13.53125 11.90625 -13.59375 L 11.90625 0.0625 C 11.570312 0.0195312 10.925781 0 9.96875 0 L 9.265625 0 L 9.265625 -5.734375 L 4.484375 -5.734375 Z M 4.484375 0.0625 "/></g></g></g><g fill="#ffffff" fill-opacity="1"><g transform="translate(114.187165, 20.990372)"><g><path d="M 2.734375 0.078125 C 2.148438 0.0234375 1.46875 0 0.6875 0 L -0.109375 0 L 4.3125 -12.375 C 4.5 -12.9375 4.59375 -13.257812 4.59375 -13.34375 C 4.59375 -13.4375 4.59375 -13.492188 4.59375 -13.515625 L 4.59375 -13.53125 C 5.039062 -13.507812 5.507812 -13.5 6 -13.5 C 6.40625 -13.5 6.894531 -13.507812 7.46875 -13.53125 L 7.46875 -13.5 C 7.457031 -13.476562 7.453125 -13.441406 7.453125 -13.390625 C 7.453125 -13.265625 7.554688 -12.925781 7.765625 -12.375 L 12.265625 0.03125 C 12.128906 0.0195312 11.972656 0.015625 11.796875 0.015625 C 11.796875 0.015625 11.617188 0.0078125 11.265625 0 C 11.085938 0 10.929688 0 10.796875 0 L 9.234375 0 L 8.28125 -2.921875 L 3.6875 -2.921875 Z M 7.484375 -5.359375 L 5.953125 -10.078125 L 4.453125 -5.359375 Z M 7.484375 -5.359375 "/></g></g></g><g fill="#ffffff" fill-opacity="1"><g transform="translate(129.255941, 20.990372)"><g><path d="M 6.625 0.0625 C 6.300781 0.0195312 5.460938 0 4.109375 0 L 3.78125 0 L 3.78125 -11.234375 L 1.78125 -11.234375 C 1.1875 -11.234375 0.832031 -11.203125 0.71875 -11.140625 C 0.613281 -11.078125 0.53125 -11.023438 0.46875 -10.984375 L 0.4375 -10.984375 L 0.4375 -13.59375 L 0.46875 -13.625 C 0.6875 -13.539062 1.289062 -13.5 2.28125 -13.5 L 8.640625 -13.5 C 9.234375 -13.5 9.582031 -13.53125 9.6875 -13.59375 C 9.800781 -13.65625 9.890625 -13.710938 9.953125 -13.765625 L 9.984375 -13.75 L 9.984375 -11.15625 L 9.953125 -11.125 C 9.722656 -11.195312 9.117188 -11.234375 8.140625 -11.234375 L 6.625 -11.234375 Z M 6.625 0.0625 "/></g></g></g><g fill="#ffffff" fill-opacity="1"><g transform="translate(142.588045, 20.990372)"><g><path d="M 9.90625 -12.75 L 9.703125 -9.765625 L 9.640625 -9.75 C 9.140625 -10.5 8.285156 -10.984375 7.078125 -11.203125 C 6.703125 -11.285156 6.335938 -11.328125 5.984375 -11.328125 C 5.640625 -11.328125 5.34375 -11.296875 5.09375 -11.234375 C 4.84375 -11.171875 4.628906 -11.082031 4.453125 -10.96875 C 4.085938 -10.71875 3.90625 -10.398438 3.90625 -10.015625 C 3.90625 -9.492188 4.066406 -9.109375 4.390625 -8.859375 C 4.796875 -8.546875 5.46875 -8.328125 6.40625 -8.203125 C 7.34375 -8.078125 8.097656 -7.90625 8.671875 -7.6875 C 9.242188 -7.46875 9.710938 -7.191406 10.078125 -6.859375 C 10.765625 -6.242188 11.109375 -5.363281 11.109375 -4.21875 C 11.109375 -2.726562 10.546875 -1.582031 9.421875 -0.78125 C 8.460938 -0.09375 7.25 0.25 5.78125 0.25 C 4.601562 0.25 3.441406 0.0234375 2.296875 -0.421875 C 1.910156 -0.566406 1.578125 -0.738281 1.296875 -0.9375 L 1.40625 -4.328125 L 1.453125 -4.359375 C 2.296875 -2.910156 3.671875 -2.1875 5.578125 -2.1875 C 6.941406 -2.1875 7.84375 -2.515625 8.28125 -3.171875 C 8.4375 -3.390625 8.515625 -3.632812 8.515625 -3.90625 C 8.515625 -4.1875 8.46875 -4.414062 8.375 -4.59375 C 8.289062 -4.769531 8.144531 -4.925781 7.9375 -5.0625 C 7.550781 -5.3125 6.890625 -5.476562 5.953125 -5.5625 C 5.023438 -5.65625 4.265625 -5.820312 3.671875 -6.0625 C 3.085938 -6.3125 2.625 -6.613281 2.28125 -6.96875 C 1.632812 -7.625 1.3125 -8.535156 1.3125 -9.703125 C 1.3125 -10.898438 1.738281 -11.875 2.59375 -12.625 C 3.445312 -13.382812 4.601562 -13.765625 6.0625 -13.765625 C 7.519531 -13.765625 8.800781 -13.425781 9.90625 -12.75 Z M 9.90625 -12.75 "/></g></g></g><g clip-path="url(#d56e8fbc68)"><g clip-path="url(#b2ae4fee58)"><path fill="url(#256715f5d6)" d="M 0.988281 0.0078125 L 0.988281 31.007812 L 30.609375 31.007812 L 30.609375 0.0078125 Z M 0.988281 0.0078125 " fill-rule="nonzero"/></g></g></svg>