<svg xmlns="http://www.w3.org/2000/svg" xmlns:xlink="http://www.w3.org/1999/xlink" width="500" zoomAndPan="magnify" viewBox="0 0 375 374.999991" height="500" preserveAspectRatio="xMidYMid meet" version="1.0"><defs><g/><clipPath id="1991913ce3"><path d="M 136.136719 116.78125 L 252.386719 116.78125 L 252.386719 211.28125 L 136.136719 211.28125 Z M 136.136719 116.78125 " clip-rule="nonzero"/></clipPath><clipPath id="0bbaf90f29"><path d="M 238.347656 168.824219 C 238.347656 164.9375 241.492188 161.808594 245.375 161.808594 C 249.261719 161.808594 252.386719 164.953125 252.386719 168.824219 C 252.386719 172.710938 249.242188 175.835938 245.375 175.835938 C 244.167969 175.835938 243.007812 175.527344 242.015625 174.988281 L 236.957031 182.433594 C 238.148438 183.484375 238.910156 185.019531 238.910156 186.753906 C 238.910156 189.917969 236.34375 192.484375 233.179688 192.484375 C 230.019531 192.484375 227.453125 189.917969 227.453125 186.753906 C 227.453125 184.585938 228.664062 182.6875 230.453125 181.730469 L 229.023438 178.113281 C 228.699219 178.1875 228.355469 178.222656 228.011719 178.222656 C 225.5 178.222656 223.476562 176.179688 223.476562 173.683594 C 223.476562 171.171875 225.519531 169.128906 228.011719 169.128906 C 228.429688 169.128906 228.84375 169.183594 229.222656 169.292969 L 232.167969 162.75 C 231.445312 162.1875 230.976562 161.320312 230.976562 160.34375 C 230.976562 158.664062 232.332031 157.308594 234.011719 157.308594 C 234.753906 157.308594 235.421875 157.558594 235.945312 158.011719 L 241.222656 154 C 240.839844 153.3125 240.625 152.5 240.625 151.648438 C 240.625 150.238281 241.238281 148.957031 242.195312 148.070312 L 238.945312 143.28125 C 238.328125 143.570312 237.644531 143.730469 236.921875 143.730469 C 235.222656 143.730469 233.742188 142.828125 232.925781 141.488281 L 227.976562 143.570312 C 227.976562 143.640625 227.996094 143.714844 227.996094 143.769531 C 227.996094 144.90625 227.164062 145.847656 226.078125 146.027344 L 225.410156 150.835938 C 227.074219 151.359375 228.265625 152.914062 228.265625 154.742188 C 228.265625 157 226.421875 158.84375 224.164062 158.84375 C 222.648438 158.84375 221.328125 158.011719 220.605469 156.78125 L 214.734375 158.953125 C 214.734375 158.96875 214.734375 158.988281 214.734375 159.023438 C 214.734375 160.234375 213.757812 161.210938 212.546875 161.210938 C 212.421875 161.210938 212.277344 161.195312 212.148438 161.175781 L 209.167969 166.597656 C 209.53125 166.925781 209.835938 167.320312 210.035156 167.773438 L 218.273438 166.039062 C 218.402344 164.953125 219.324219 164.105469 220.441406 164.105469 C 221.652344 164.105469 222.628906 165.082031 222.628906 166.292969 C 222.628906 167.414062 221.78125 168.335938 220.695312 168.460938 L 218.273438 180.03125 C 220.839844 180.863281 222.683594 183.265625 222.683594 186.105469 C 222.683594 189.628906 219.828125 192.503906 216.285156 192.503906 C 216.179688 192.503906 216.070312 192.503906 215.960938 192.503906 L 215.003906 198.433594 C 215.871094 198.832031 216.484375 199.714844 216.484375 200.746094 C 216.484375 201.902344 215.726562 202.863281 214.679688 203.1875 L 214.769531 207.671875 C 215.4375 207.921875 215.925781 208.59375 215.925781 209.351562 C 215.925781 210.34375 215.113281 211.160156 214.117188 211.160156 C 213.125 211.160156 212.3125 210.34375 212.3125 209.351562 C 212.3125 209.171875 212.347656 208.988281 212.402344 208.808594 L 209.242188 206.167969 C 208.84375 206.441406 208.355469 206.601562 207.8125 206.601562 C 206.421875 206.601562 205.300781 205.484375 205.300781 204.089844 C 205.300781 203.097656 205.878906 202.246094 206.710938 201.832031 L 206.167969 198.832031 C 206.132812 198.832031 206.078125 198.832031 206.042969 198.832031 C 203.511719 198.832031 201.453125 196.769531 201.453125 194.238281 C 201.453125 191.707031 203.511719 189.648438 206.042969 189.648438 C 207.253906 189.648438 208.335938 190.117188 209.148438 190.875 L 210.902344 189.484375 C 210.269531 188.492188 209.910156 187.332031 209.910156 186.066406 C 209.910156 184.855469 210.253906 183.71875 210.847656 182.742188 L 206.367188 179.308594 C 206.023438 179.542969 205.609375 179.6875 205.15625 179.6875 C 204.667969 179.6875 204.21875 179.523438 203.855469 179.253906 L 201.019531 181.222656 C 201.523438 182.144531 201.796875 183.195312 201.796875 184.316406 C 201.796875 187.894531 198.90625 190.785156 195.328125 190.785156 C 192.292969 190.785156 189.761719 188.707031 189.058594 185.886719 L 184.214844 186.554688 C 184.160156 188.851562 182.28125 190.695312 179.96875 190.695312 C 177.621094 190.695312 175.722656 188.796875 175.722656 186.449219 C 175.722656 184.097656 177.621094 182.199219 179.96875 182.199219 C 180.402344 182.199219 180.820312 182.273438 181.199219 182.378906 L 186.367188 171.914062 C 185.046875 171.027344 184.144531 169.582031 183.980469 167.917969 L 179.71875 167.773438 C 179.410156 168.570312 178.652344 169.128906 177.746094 169.128906 C 177.511719 169.128906 177.296875 169.09375 177.078125 169.019531 L 173.664062 173.449219 C 174.730469 174.5 175.382812 175.945312 175.382812 177.554688 C 175.382812 180.734375 172.796875 183.320312 169.617188 183.320312 C 166.941406 183.320312 164.683594 181.476562 164.035156 179 L 160.078125 179.523438 C 160.003906 181.785156 158.144531 183.609375 155.867188 183.609375 C 153.535156 183.609375 151.65625 181.730469 151.65625 179.398438 C 151.65625 177.191406 153.355469 175.382812 155.523438 175.203125 L 155.902344 170.574219 C 155.144531 170.25 154.621094 169.492188 154.621094 168.605469 C 154.621094 167.429688 155.578125 166.453125 156.769531 166.453125 C 157.042969 166.453125 157.277344 166.507812 157.511719 166.582031 L 165.589844 156.636719 C 165.390625 156.3125 165.261719 155.914062 165.261719 155.5 C 165.261719 154.921875 165.496094 154.398438 165.859375 154.015625 L 164.613281 151.59375 C 163.980469 151.828125 163.3125 151.957031 162.605469 151.957031 C 161.59375 151.957031 160.636719 151.683594 159.824219 151.234375 L 154.964844 157.976562 C 155.46875 158.535156 155.777344 159.296875 155.777344 160.128906 C 155.777344 161.898438 154.332031 163.34375 152.5625 163.34375 C 152.199219 163.34375 151.839844 163.289062 151.511719 163.164062 L 146.4375 171.445312 C 147.59375 172.382812 148.316406 173.8125 148.316406 175.421875 C 148.316406 178.257812 146.019531 180.554688 143.183594 180.554688 C 140.347656 180.554688 138.050781 178.257812 138.050781 175.421875 C 138.050781 173.105469 139.589844 171.15625 141.683594 170.503906 L 141.285156 168.0625 C 141.25 168.0625 141.230469 168.0625 141.195312 168.0625 C 138.558594 168.0625 136.425781 165.929688 136.425781 163.289062 C 136.425781 160.667969 138.539062 158.535156 141.160156 158.519531 L 141.449219 156.402344 C 138.394531 155.664062 136.117188 152.898438 136.117188 149.605469 C 136.117188 145.757812 139.246094 142.628906 143.09375 142.628906 C 146.292969 142.628906 149 144.78125 149.816406 147.726562 L 156.84375 146.480469 C 156.84375 146.371094 156.84375 146.28125 156.84375 146.171875 C 156.84375 145.195312 157.097656 144.273438 157.511719 143.460938 L 152.324219 139.828125 C 151.746094 140.371094 150.972656 140.695312 150.121094 140.695312 C 148.332031 140.695312 146.871094 139.230469 146.871094 137.441406 C 146.871094 135.652344 148.332031 134.1875 150.121094 134.1875 C 151.910156 134.1875 153.375 135.652344 153.375 137.441406 C 153.375 137.894531 153.285156 138.308594 153.121094 138.6875 L 158.304688 142.320312 C 159.046875 141.488281 160.042969 140.875 161.144531 140.585938 L 161.125 135.324219 C 159.171875 135 157.691406 133.320312 157.691406 131.277344 C 157.691406 129.015625 159.535156 127.171875 161.792969 127.171875 C 163.128906 127.171875 164.304688 127.804688 165.046875 128.78125 L 171.605469 125.347656 C 171.441406 124.859375 171.351562 124.351562 171.351562 123.8125 C 171.351562 121.226562 173.449219 119.109375 176.050781 119.109375 C 178.632812 119.109375 180.746094 121.207031 180.746094 123.8125 C 180.746094 125.527344 179.824219 127.046875 178.433594 127.859375 L 180.601562 133.210938 C 180.945312 133.136719 181.289062 133.085938 181.667969 133.085938 C 182.519531 133.085938 183.332031 133.320312 184.015625 133.734375 L 188.933594 127.769531 C 187.8125 126.613281 187.105469 125.039062 187.105469 123.304688 C 187.105469 119.78125 189.960938 116.90625 193.503906 116.90625 C 197.027344 116.90625 199.898438 119.761719 199.898438 123.304688 C 199.898438 124.878906 199.320312 126.324219 198.382812 127.425781 L 203.261719 132.558594 C 203.550781 132.414062 203.875 132.34375 204.21875 132.34375 C 204.308594 132.34375 204.398438 132.34375 204.46875 132.359375 L 207.074219 126.738281 C 206.007812 125.996094 205.300781 124.769531 205.300781 123.359375 C 205.300781 121.097656 207.144531 119.253906 209.402344 119.253906 C 211.660156 119.253906 213.503906 121.097656 213.503906 123.359375 C 213.503906 123.863281 213.414062 124.351562 213.25 124.785156 L 217.390625 127.191406 C 218.417969 125.835938 220.0625 124.949219 221.886719 124.949219 C 225.015625 124.949219 227.542969 127.480469 227.542969 130.609375 C 227.542969 131.367188 227.398438 132.089844 227.128906 132.742188 L 233.234375 136.15625 C 234.085938 135.054688 235.421875 134.332031 236.9375 134.332031 C 239.523438 134.332031 241.617188 136.429688 241.617188 139.011719 C 241.617188 140.371094 241.039062 141.597656 240.117188 142.449219 L 243.371094 147.238281 C 244.003906 146.929688 244.726562 146.75 245.484375 146.75 C 248.160156 146.75 250.328125 148.917969 250.328125 151.59375 C 250.328125 154.269531 248.160156 156.441406 245.484375 156.441406 C 244.167969 156.441406 242.957031 155.914062 242.089844 155.046875 L 236.8125 159.0625 C 236.976562 159.441406 237.066406 159.855469 237.066406 160.289062 C 237.066406 161.972656 235.710938 163.328125 234.03125 163.328125 C 233.832031 163.328125 233.632812 163.308594 233.453125 163.273438 L 230.507812 169.816406 C 231.753906 170.628906 232.585938 172.039062 232.585938 173.632812 C 232.585938 175.292969 231.679688 176.757812 230.34375 177.554688 L 231.769531 181.167969 C 232.242188 181.042969 232.710938 180.988281 233.214844 180.988281 C 234.15625 180.988281 235.058594 181.222656 235.835938 181.621094 L 240.894531 174.171875 C 239.359375 172.890625 238.382812 170.957031 238.382812 168.785156 Z M 162.535156 140.441406 L 162.515625 135.34375 C 164.449219 135.019531 165.914062 133.320312 165.914062 131.292969 C 165.914062 130.859375 165.839844 130.425781 165.714844 130.027344 L 172.273438 126.59375 C 173.121094 127.769531 174.511719 128.527344 176.066406 128.527344 C 176.445312 128.527344 176.808594 128.492188 177.167969 128.402344 L 179.335938 133.753906 C 178 134.546875 177.097656 136.011719 177.097656 137.695312 C 177.097656 139.71875 178.417969 141.4375 180.242188 142.050781 L 179.265625 147.835938 C 179.140625 147.835938 179.011719 147.816406 178.867188 147.816406 C 175.289062 147.816406 172.398438 150.710938 172.398438 154.289062 C 172.398438 157.867188 175.289062 160.761719 178.867188 160.761719 C 182.265625 160.761719 185.046875 158.140625 185.316406 154.8125 L 189.058594 154.703125 C 189.367188 155.519531 190.140625 156.097656 191.0625 156.097656 C 191.714844 156.097656 192.292969 155.808594 192.691406 155.335938 L 197.585938 157.289062 C 197.53125 157.578125 197.496094 157.867188 197.496094 158.15625 C 197.496094 160.433594 199.355469 162.296875 201.632812 162.296875 C 203.910156 162.296875 205.769531 160.433594 205.769531 158.15625 C 205.769531 157.164062 205.410156 156.242188 204.832031 155.519531 L 210.015625 149.515625 C 210.921875 150.113281 212.003906 150.472656 213.160156 150.472656 C 216.285156 150.472656 218.816406 147.945312 218.816406 144.816406 C 218.816406 141.6875 216.285156 139.15625 213.160156 139.15625 C 211.988281 139.15625 210.882812 139.519531 209.980469 140.132812 L 206.113281 135.707031 C 206.3125 135.378906 206.421875 134.980469 206.421875 134.566406 C 206.421875 133.933594 206.152344 133.355469 205.71875 132.941406 L 208.300781 127.316406 C 208.644531 127.40625 209.003906 127.460938 209.367188 127.460938 C 210.632812 127.460938 211.769531 126.882812 212.511719 125.980469 L 216.648438 128.382812 C 216.359375 129.070312 216.195312 129.8125 216.195312 130.609375 C 216.195312 133.734375 218.726562 136.265625 221.851562 136.265625 C 222.160156 136.265625 222.464844 136.246094 222.753906 136.195312 L 224.382812 141.816406 C 223.765625 142.230469 223.371094 142.917969 223.371094 143.714844 C 223.371094 144.636719 223.910156 145.414062 224.671875 145.792969 L 224.003906 150.601562 C 221.796875 150.671875 220.027344 152.480469 220.027344 154.703125 C 220.027344 154.957031 220.046875 155.210938 220.097656 155.464844 L 214.226562 157.632812 C 213.828125 157.125 213.214844 156.820312 212.527344 156.820312 C 211.316406 156.820312 210.34375 157.796875 210.34375 159.007812 C 210.34375 159.585938 210.558594 160.089844 210.921875 160.488281 L 207.941406 165.910156 C 207.632812 165.820312 207.308594 165.765625 206.980469 165.765625 C 205.140625 165.765625 203.65625 167.25 203.65625 169.09375 C 203.65625 170.9375 205.140625 172.417969 206.980469 172.417969 C 208.824219 172.417969 210.304688 170.9375 210.304688 169.09375 L 218.546875 167.339844 C 218.746094 167.664062 218.996094 167.9375 219.324219 168.117188 L 216.902344 179.6875 C 216.703125 179.667969 216.484375 179.652344 216.269531 179.652344 C 214.460938 179.652344 212.816406 180.410156 211.644531 181.621094 L 207.164062 178.1875 C 207.234375 177.96875 207.289062 177.714844 207.289062 177.480469 C 207.289062 176.269531 206.3125 175.292969 205.101562 175.292969 C 203.890625 175.292969 202.917969 176.269531 202.917969 177.480469 C 202.917969 177.699219 202.953125 177.898438 203.007812 178.097656 L 200.171875 180.066406 C 198.976562 178.691406 197.226562 177.824219 195.273438 177.824219 C 191.695312 177.824219 188.804688 180.71875 188.804688 184.296875 C 188.804688 184.367188 188.804688 184.441406 188.804688 184.496094 L 183.964844 185.164062 C 183.691406 184.277344 183.113281 183.5 182.375 182.976562 L 187.539062 172.511719 C 188.082031 172.691406 188.679688 172.800781 189.292969 172.800781 C 192.273438 172.800781 194.695312 170.378906 194.695312 167.394531 C 194.695312 164.410156 192.273438 162.007812 189.292969 162.007812 C 186.621094 162.007812 184.398438 163.960938 183.964844 166.527344 L 179.699219 166.382812 C 179.429688 165.515625 178.632812 164.898438 177.695312 164.898438 C 176.539062 164.898438 175.578125 165.839844 175.578125 167.015625 C 175.578125 167.449219 175.707031 167.828125 175.921875 168.171875 L 172.507812 172.601562 C 171.640625 172.078125 170.628906 171.785156 169.5625 171.785156 C 166.382812 171.785156 163.800781 174.371094 163.800781 177.554688 C 163.800781 177.570312 163.800781 177.609375 163.800781 177.625 L 159.84375 178.148438 C 159.410156 176.757812 158.269531 175.65625 156.84375 175.292969 L 157.222656 170.667969 C 158.160156 170.429688 158.847656 169.582031 158.847656 168.585938 C 158.847656 168.171875 158.722656 167.773438 158.523438 167.449219 L 166.601562 157.507812 C 166.835938 157.597656 167.085938 157.632812 167.339844 157.632812 C 168.53125 157.632812 169.492188 156.675781 169.492188 155.480469 C 169.492188 154.304688 168.53125 153.332031 167.339844 153.332031 C 167.230469 153.332031 167.125 153.332031 167.035156 153.347656 L 165.785156 150.925781 C 167.304688 149.894531 168.316406 148.140625 168.316406 146.152344 C 168.316406 142.972656 165.734375 140.386719 162.550781 140.386719 C 162.515625 140.386719 162.5 140.386719 162.480469 140.386719 Z M 180.621094 148.070312 L 181.597656 142.285156 C 181.613281 142.285156 181.652344 142.285156 181.667969 142.285156 C 183.332031 142.285156 184.777344 141.398438 185.589844 140.078125 L 192.273438 142.847656 C 192.183594 143.226562 192.128906 143.605469 192.128906 144.019531 C 192.128906 146.660156 194.261719 148.792969 196.898438 148.792969 C 199.539062 148.792969 201.671875 146.660156 201.671875 144.019531 C 201.671875 142.738281 201.164062 141.582031 200.351562 140.710938 L 203.476562 136.679688 C 203.710938 136.773438 203.964844 136.808594 204.21875 136.808594 C 204.523438 136.808594 204.8125 136.753906 205.085938 136.628906 L 208.953125 141.054688 C 208.046875 142.050781 207.507812 143.386719 207.507812 144.835938 C 207.507812 146.296875 208.066406 147.617188 208.96875 148.628906 L 203.785156 154.632812 C 203.152344 154.253906 202.429688 154.035156 201.632812 154.035156 C 200.132812 154.035156 198.832031 154.832031 198.09375 156.023438 L 193.195312 154.070312 C 193.195312 154.035156 193.195312 154 193.195312 153.964844 C 193.195312 152.769531 192.238281 151.8125 191.046875 151.8125 C 190.089844 151.8125 189.273438 152.445312 189.003906 153.332031 L 185.265625 153.4375 C 184.921875 150.855469 183.058594 148.773438 180.601562 148.070312 Z M 197.371094 128.402344 L 202.25 133.535156 C 202.085938 133.84375 201.976562 134.203125 201.976562 134.585938 C 201.976562 135.035156 202.121094 135.46875 202.355469 135.832031 L 199.230469 139.863281 C 198.542969 139.464844 197.730469 139.25 196.882812 139.25 C 195.148438 139.25 193.628906 140.1875 192.796875 141.5625 L 186.113281 138.777344 C 186.203125 138.433594 186.238281 138.054688 186.238281 137.675781 C 186.238281 136.5 185.789062 135.433594 185.066406 134.621094 L 189.980469 128.65625 C 190.992188 129.324219 192.183594 129.703125 193.484375 129.703125 C 194.949219 129.703125 196.285156 129.214844 197.371094 128.382812 Z M 225.71875 141.472656 L 224.09375 135.832031 C 225.03125 135.433594 225.828125 134.785156 226.421875 133.96875 L 232.53125 137.386719 C 232.332031 137.894531 232.222656 138.453125 232.222656 139.03125 C 232.222656 139.429688 232.277344 139.808594 232.367188 140.1875 L 227.417969 142.265625 C 227 141.777344 226.40625 141.472656 225.71875 141.453125 Z M 214.625 192.25 L 213.667969 198.179688 C 212.402344 198.324219 211.410156 199.410156 211.410156 200.710938 C 211.410156 201.902344 212.222656 202.898438 213.324219 203.1875 L 213.414062 207.671875 C 213.378906 207.6875 213.324219 207.707031 213.289062 207.722656 L 210.125 205.085938 C 210.269531 204.777344 210.34375 204.433594 210.34375 204.074219 C 210.34375 202.769531 209.347656 201.703125 208.085938 201.578125 L 207.542969 198.578125 C 209.347656 197.960938 210.648438 196.246094 210.648438 194.238281 C 210.648438 193.40625 210.433594 192.628906 210.035156 191.960938 L 211.789062 190.570312 C 212.566406 191.347656 213.539062 191.941406 214.644531 192.230469 Z M 158.703125 150.4375 L 153.84375 157.179688 C 153.445312 157.019531 153.011719 156.910156 152.5625 156.910156 C 150.789062 156.910156 149.34375 158.355469 149.34375 160.128906 C 149.34375 161.03125 149.722656 161.863281 150.339844 162.441406 L 145.261719 170.71875 C 144.628906 170.429688 143.925781 170.285156 143.183594 170.285156 C 143.128906 170.285156 143.09375 170.285156 143.039062 170.285156 L 142.640625 167.847656 C 144.574219 167.230469 145.964844 165.425781 145.964844 163.308594 C 145.964844 161.140625 144.519531 159.3125 142.53125 158.734375 L 142.820312 156.621094 C 142.914062 156.621094 143.003906 156.621094 143.109375 156.621094 C 146.960938 156.621094 150.085938 153.492188 150.085938 149.644531 C 150.085938 149.460938 150.085938 149.300781 150.066406 149.117188 L 157.097656 147.890625 C 157.402344 148.882812 157.964844 149.769531 158.703125 150.457031 Z M 163.980469 164.503906 C 163.980469 162.242188 165.824219 160.398438 168.082031 160.398438 C 170.339844 160.398438 172.183594 162.242188 172.183594 164.503906 C 172.183594 166.761719 170.339844 168.605469 168.082031 168.605469 C 165.824219 168.605469 163.980469 166.761719 163.980469 164.503906 Z M 168.371094 136.96875 C 168.371094 135.777344 169.328125 134.820312 170.519531 134.820312 C 171.714844 134.820312 172.671875 135.777344 172.671875 136.96875 C 172.671875 138.144531 171.714844 139.121094 170.519531 139.121094 C 169.347656 139.121094 168.371094 138.164062 168.371094 136.96875 Z M 168.371094 136.96875 " clip-rule="evenodd"/></clipPath><linearGradient x1="39.985145" gradientTransform="matrix(1.806808, 0, 0, 1.807704, 136.13704, 116.923277)" y1="-0.154486" x2="39.673595" gradientUnits="userSpaceOnUse" y2="52.365332" id="15386f4900"><stop stop-opacity="1" stop-color="rgb(28.199768%, 79.199219%, 48.999023%)" offset="0"/><stop stop-opacity="1" stop-color="rgb(28.199768%, 79.199219%, 48.999023%)" offset="0.00726688"/><stop stop-opacity="1" stop-color="rgb(28.199768%, 79.199219%, 48.999023%)" offset="0.0625"/><stop stop-opacity="1" stop-color="rgb(28.199768%, 79.199219%, 48.999023%)" offset="0.09375"/><stop stop-opacity="1" stop-color="rgb(28.199768%, 79.199219%, 48.999023%)" offset="0.109375"/><stop stop-opacity="1" stop-color="rgb(28.125%, 79.171753%, 49.116516%)" offset="0.117188"/><stop stop-opacity="1" stop-color="rgb(27.919006%, 79.093933%, 49.443054%)" offset="0.121094"/><stop stop-opacity="1" stop-color="rgb(27.787781%, 79.043579%, 49.6521%)" offset="0.125"/><stop stop-opacity="1" stop-color="rgb(27.655029%, 78.993225%, 49.861145%)" offset="0.128906"/><stop stop-opacity="1" stop-color="rgb(27.523804%, 78.944397%, 50.07019%)" offset="0.132812"/><stop stop-opacity="1" stop-color="rgb(27.391052%, 78.894043%, 50.279236%)" offset="0.136719"/><stop stop-opacity="1" stop-color="rgb(27.259827%, 78.845215%, 50.489807%)" offset="0.140625"/><stop stop-opacity="1" stop-color="rgb(27.127075%, 78.794861%, 50.698853%)" offset="0.144531"/><stop stop-opacity="1" stop-color="rgb(26.99585%, 78.746033%, 50.907898%)" offset="0.148438"/><stop stop-opacity="1" stop-color="rgb(26.863098%, 78.695679%, 51.116943%)" offset="0.152344"/><stop stop-opacity="1" stop-color="rgb(26.731873%, 78.646851%, 51.325989%)" offset="0.15625"/><stop stop-opacity="1" stop-color="rgb(26.599121%, 78.596497%, 51.535034%)" offset="0.160156"/><stop stop-opacity="1" stop-color="rgb(26.467896%, 78.547668%, 51.74408%)" offset="0.164062"/><stop stop-opacity="1" stop-color="rgb(26.335144%, 78.497314%, 51.953125%)" offset="0.167969"/><stop stop-opacity="1" stop-color="rgb(26.203918%, 78.448486%, 52.163696%)" offset="0.171875"/><stop stop-opacity="1" stop-color="rgb(26.071167%, 78.398132%, 52.372742%)" offset="0.175781"/><stop stop-opacity="1" stop-color="rgb(25.939941%, 78.349304%, 52.581787%)" offset="0.179688"/><stop stop-opacity="1" stop-color="rgb(25.80719%, 78.29895%, 52.790833%)" offset="0.183594"/><stop stop-opacity="1" stop-color="rgb(25.675964%, 78.250122%, 52.999878%)" offset="0.1875"/><stop stop-opacity="1" stop-color="rgb(25.543213%, 78.199768%, 53.208923%)" offset="0.191406"/><stop stop-opacity="1" stop-color="rgb(25.410461%, 78.15094%, 53.417969%)" offset="0.195312"/><stop stop-opacity="1" stop-color="rgb(25.27771%, 78.100586%, 53.627014%)" offset="0.199219"/><stop stop-opacity="1" stop-color="rgb(25.146484%, 78.051758%, 53.837585%)" offset="0.203125"/><stop stop-opacity="1" stop-color="rgb(25.013733%, 78.001404%, 54.046631%)" offset="0.207031"/><stop stop-opacity="1" stop-color="rgb(24.882507%, 77.952576%, 54.255676%)" offset="0.210937"/><stop stop-opacity="1" stop-color="rgb(24.749756%, 77.902222%, 54.464722%)" offset="0.214844"/><stop stop-opacity="1" stop-color="rgb(24.61853%, 77.853394%, 54.673767%)" offset="0.21875"/><stop stop-opacity="1" stop-color="rgb(24.485779%, 77.80304%, 54.882812%)" offset="0.222656"/><stop stop-opacity="1" stop-color="rgb(24.354553%, 77.754211%, 55.091858%)" offset="0.226562"/><stop stop-opacity="1" stop-color="rgb(24.221802%, 77.703857%, 55.300903%)" offset="0.230469"/><stop stop-opacity="1" stop-color="rgb(24.090576%, 77.655029%, 55.511475%)" offset="0.234375"/><stop stop-opacity="1" stop-color="rgb(23.957825%, 77.604675%, 55.72052%)" offset="0.238281"/><stop stop-opacity="1" stop-color="rgb(23.826599%, 77.555847%, 55.929565%)" offset="0.242188"/><stop stop-opacity="1" stop-color="rgb(23.693848%, 77.505493%, 56.138611%)" offset="0.246094"/><stop stop-opacity="1" stop-color="rgb(23.562622%, 77.456665%, 56.347656%)" offset="0.25"/><stop stop-opacity="1" stop-color="rgb(23.429871%, 77.406311%, 56.556702%)" offset="0.253906"/><stop stop-opacity="1" stop-color="rgb(23.298645%, 77.357483%, 56.765747%)" offset="0.257812"/><stop stop-opacity="1" stop-color="rgb(23.165894%, 77.307129%, 56.974792%)" offset="0.261719"/><stop stop-opacity="1" stop-color="rgb(23.034668%, 77.258301%, 57.185364%)" offset="0.265625"/><stop stop-opacity="1" stop-color="rgb(22.901917%, 77.207947%, 57.394409%)" offset="0.269531"/><stop stop-opacity="1" stop-color="rgb(22.770691%, 77.159119%, 57.603455%)" offset="0.273438"/><stop stop-opacity="1" stop-color="rgb(22.637939%, 77.108765%, 57.8125%)" offset="0.277344"/><stop stop-opacity="1" stop-color="rgb(22.506714%, 77.059937%, 58.021545%)" offset="0.28125"/><stop stop-opacity="1" stop-color="rgb(22.373962%, 77.009583%, 58.230591%)" offset="0.285156"/><stop stop-opacity="1" stop-color="rgb(22.242737%, 76.960754%, 58.439636%)" offset="0.289062"/><stop stop-opacity="1" stop-color="rgb(22.109985%, 76.9104%, 58.648682%)" offset="0.292969"/><stop stop-opacity="1" stop-color="rgb(21.97876%, 76.861572%, 58.857727%)" offset="0.296875"/><stop stop-opacity="1" stop-color="rgb(21.846008%, 76.811218%, 59.066772%)" offset="0.300781"/><stop stop-opacity="1" stop-color="rgb(21.714783%, 76.76239%, 59.277344%)" offset="0.304688"/><stop stop-opacity="1" stop-color="rgb(21.582031%, 76.712036%, 59.486389%)" offset="0.308594"/><stop stop-opacity="1" stop-color="rgb(21.450806%, 76.663208%, 59.695435%)" offset="0.3125"/><stop stop-opacity="1" stop-color="rgb(21.318054%, 76.612854%, 59.90448%)" offset="0.316406"/><stop stop-opacity="1" stop-color="rgb(21.186829%, 76.564026%, 60.113525%)" offset="0.320312"/><stop stop-opacity="1" stop-color="rgb(21.054077%, 76.513672%, 60.322571%)" offset="0.324219"/><stop stop-opacity="1" stop-color="rgb(20.922852%, 76.464844%, 60.531616%)" offset="0.328125"/><stop stop-opacity="1" stop-color="rgb(20.7901%, 76.41449%, 60.740662%)" offset="0.332031"/><stop stop-opacity="1" stop-color="rgb(20.658875%, 76.365662%, 60.951233%)" offset="0.335938"/><stop stop-opacity="1" stop-color="rgb(20.526123%, 76.315308%, 61.160278%)" offset="0.339844"/><stop stop-opacity="1" stop-color="rgb(20.394897%, 76.266479%, 61.369324%)" offset="0.34375"/><stop stop-opacity="1" stop-color="rgb(20.262146%, 76.216125%, 61.578369%)" offset="0.347656"/><stop stop-opacity="1" stop-color="rgb(20.13092%, 76.167297%, 61.787415%)" offset="0.351562"/><stop stop-opacity="1" stop-color="rgb(19.998169%, 76.116943%, 61.99646%)" offset="0.355469"/><stop stop-opacity="1" stop-color="rgb(19.866943%, 76.068115%, 62.205505%)" offset="0.359375"/><stop stop-opacity="1" stop-color="rgb(19.734192%, 76.017761%, 62.414551%)" offset="0.363281"/><stop stop-opacity="1" stop-color="rgb(19.602966%, 75.968933%, 62.625122%)" offset="0.367188"/><stop stop-opacity="1" stop-color="rgb(19.470215%, 75.918579%, 62.834167%)" offset="0.371094"/><stop stop-opacity="1" stop-color="rgb(19.338989%, 75.868225%, 63.043213%)" offset="0.375"/><stop stop-opacity="1" stop-color="rgb(19.206238%, 75.817871%, 63.252258%)" offset="0.378906"/><stop stop-opacity="1" stop-color="rgb(19.075012%, 75.769043%, 63.461304%)" offset="0.382812"/><stop stop-opacity="1" stop-color="rgb(18.942261%, 75.718689%, 63.670349%)" offset="0.386719"/><stop stop-opacity="1" stop-color="rgb(18.811035%, 75.669861%, 63.879395%)" offset="0.390625"/><stop stop-opacity="1" stop-color="rgb(18.678284%, 75.619507%, 64.08844%)" offset="0.394531"/><stop stop-opacity="1" stop-color="rgb(18.547058%, 75.570679%, 64.299011%)" offset="0.398438"/><stop stop-opacity="1" stop-color="rgb(18.414307%, 75.520325%, 64.508057%)" offset="0.402344"/><stop stop-opacity="1" stop-color="rgb(18.283081%, 75.471497%, 64.717102%)" offset="0.40625"/><stop stop-opacity="1" stop-color="rgb(18.15033%, 75.421143%, 64.926147%)" offset="0.410156"/><stop stop-opacity="1" stop-color="rgb(18.019104%, 75.372314%, 65.135193%)" offset="0.414063"/><stop stop-opacity="1" stop-color="rgb(17.886353%, 75.32196%, 65.344238%)" offset="0.417969"/><stop stop-opacity="1" stop-color="rgb(17.755127%, 75.273132%, 65.553284%)" offset="0.421875"/><stop stop-opacity="1" stop-color="rgb(17.622375%, 75.222778%, 65.762329%)" offset="0.425781"/><stop stop-opacity="1" stop-color="rgb(17.49115%, 75.17395%, 65.9729%)" offset="0.429688"/><stop stop-opacity="1" stop-color="rgb(17.358398%, 75.123596%, 66.181946%)" offset="0.433594"/><stop stop-opacity="1" stop-color="rgb(17.227173%, 75.074768%, 66.390991%)" offset="0.4375"/><stop stop-opacity="1" stop-color="rgb(17.094421%, 75.024414%, 66.600037%)" offset="0.441406"/><stop stop-opacity="1" stop-color="rgb(16.963196%, 74.975586%, 66.809082%)" offset="0.445312"/><stop stop-opacity="1" stop-color="rgb(16.830444%, 74.925232%, 67.018127%)" offset="0.449219"/><stop stop-opacity="1" stop-color="rgb(16.699219%, 74.876404%, 67.227173%)" offset="0.453125"/><stop stop-opacity="1" stop-color="rgb(16.566467%, 74.82605%, 67.436218%)" offset="0.457031"/><stop stop-opacity="1" stop-color="rgb(16.435242%, 74.777222%, 67.64679%)" offset="0.460937"/><stop stop-opacity="1" stop-color="rgb(16.30249%, 74.726868%, 67.855835%)" offset="0.464844"/><stop stop-opacity="1" stop-color="rgb(16.171265%, 74.67804%, 68.06488%)" offset="0.46875"/><stop stop-opacity="1" stop-color="rgb(16.038513%, 74.627686%, 68.273926%)" offset="0.472656"/><stop stop-opacity="1" stop-color="rgb(15.907288%, 74.578857%, 68.482971%)" offset="0.476563"/><stop stop-opacity="1" stop-color="rgb(15.774536%, 74.528503%, 68.692017%)" offset="0.480469"/><stop stop-opacity="1" stop-color="rgb(15.643311%, 74.479675%, 68.901062%)" offset="0.484375"/><stop stop-opacity="1" stop-color="rgb(15.510559%, 74.429321%, 69.110107%)" offset="0.488281"/><stop stop-opacity="1" stop-color="rgb(15.379333%, 74.380493%, 69.319153%)" offset="0.492187"/><stop stop-opacity="1" stop-color="rgb(15.246582%, 74.330139%, 69.528198%)" offset="0.496094"/><stop stop-opacity="1" stop-color="rgb(15.115356%, 74.281311%, 69.73877%)" offset="0.5"/><stop stop-opacity="1" stop-color="rgb(14.982605%, 74.230957%, 69.947815%)" offset="0.503906"/><stop stop-opacity="1" stop-color="rgb(14.851379%, 74.182129%, 70.15686%)" offset="0.507812"/><stop stop-opacity="1" stop-color="rgb(14.718628%, 74.131775%, 70.365906%)" offset="0.511719"/><stop stop-opacity="1" stop-color="rgb(14.587402%, 74.082947%, 70.574951%)" offset="0.515625"/><stop stop-opacity="1" stop-color="rgb(14.454651%, 74.032593%, 70.783997%)" offset="0.519531"/><stop stop-opacity="1" stop-color="rgb(14.323425%, 73.983765%, 70.993042%)" offset="0.523438"/><stop stop-opacity="1" stop-color="rgb(14.190674%, 73.933411%, 71.202087%)" offset="0.527344"/><stop stop-opacity="1" stop-color="rgb(14.059448%, 73.884583%, 71.412659%)" offset="0.53125"/><stop stop-opacity="1" stop-color="rgb(13.926697%, 73.834229%, 71.621704%)" offset="0.535156"/><stop stop-opacity="1" stop-color="rgb(13.795471%, 73.7854%, 71.83075%)" offset="0.539062"/><stop stop-opacity="1" stop-color="rgb(13.66272%, 73.735046%, 72.039795%)" offset="0.542969"/><stop stop-opacity="1" stop-color="rgb(13.531494%, 73.686218%, 72.24884%)" offset="0.546875"/><stop stop-opacity="1" stop-color="rgb(13.398743%, 73.635864%, 72.457886%)" offset="0.550781"/><stop stop-opacity="1" stop-color="rgb(13.267517%, 73.587036%, 72.666931%)" offset="0.554688"/><stop stop-opacity="1" stop-color="rgb(13.134766%, 73.536682%, 72.875977%)" offset="0.558594"/><stop stop-opacity="1" stop-color="rgb(13.00354%, 73.487854%, 73.086548%)" offset="0.5625"/><stop stop-opacity="1" stop-color="rgb(12.870789%, 73.4375%, 73.295593%)" offset="0.566406"/><stop stop-opacity="1" stop-color="rgb(12.739563%, 73.388672%, 73.504639%)" offset="0.570312"/><stop stop-opacity="1" stop-color="rgb(12.606812%, 73.338318%, 73.713684%)" offset="0.574219"/><stop stop-opacity="1" stop-color="rgb(12.475586%, 73.28949%, 73.922729%)" offset="0.578125"/><stop stop-opacity="1" stop-color="rgb(12.342834%, 73.239136%, 74.131775%)" offset="0.582031"/><stop stop-opacity="1" stop-color="rgb(12.211609%, 73.190308%, 74.34082%)" offset="0.585938"/><stop stop-opacity="1" stop-color="rgb(12.078857%, 73.139954%, 74.549866%)" offset="0.589844"/><stop stop-opacity="1" stop-color="rgb(11.947632%, 73.091125%, 74.760437%)" offset="0.59375"/><stop stop-opacity="1" stop-color="rgb(11.81488%, 73.040771%, 74.969482%)" offset="0.597656"/><stop stop-opacity="1" stop-color="rgb(11.683655%, 72.991943%, 75.178528%)" offset="0.601562"/><stop stop-opacity="1" stop-color="rgb(11.550903%, 72.941589%, 75.387573%)" offset="0.605469"/><stop stop-opacity="1" stop-color="rgb(11.419678%, 72.892761%, 75.596619%)" offset="0.609375"/><stop stop-opacity="1" stop-color="rgb(11.286926%, 72.842407%, 75.805664%)" offset="0.613281"/><stop stop-opacity="1" stop-color="rgb(11.155701%, 72.792053%, 76.014709%)" offset="0.617188"/><stop stop-opacity="1" stop-color="rgb(11.022949%, 72.741699%, 76.223755%)" offset="0.621094"/><stop stop-opacity="1" stop-color="rgb(10.891724%, 72.692871%, 76.434326%)" offset="0.625"/><stop stop-opacity="1" stop-color="rgb(10.758972%, 72.642517%, 76.643372%)" offset="0.628906"/><stop stop-opacity="1" stop-color="rgb(10.627747%, 72.593689%, 76.852417%)" offset="0.632812"/><stop stop-opacity="1" stop-color="rgb(10.494995%, 72.543335%, 77.061462%)" offset="0.636719"/><stop stop-opacity="1" stop-color="rgb(10.36377%, 72.494507%, 77.270508%)" offset="0.640625"/><stop stop-opacity="1" stop-color="rgb(10.231018%, 72.444153%, 77.479553%)" offset="0.644531"/><stop stop-opacity="1" stop-color="rgb(10.099792%, 72.395325%, 77.688599%)" offset="0.648438"/><stop stop-opacity="1" stop-color="rgb(9.967041%, 72.344971%, 77.897644%)" offset="0.652344"/><stop stop-opacity="1" stop-color="rgb(9.835815%, 72.296143%, 78.106689%)" offset="0.65625"/><stop stop-opacity="1" stop-color="rgb(9.703064%, 72.245789%, 78.315735%)" offset="0.660156"/><stop stop-opacity="1" stop-color="rgb(9.571838%, 72.19696%, 78.526306%)" offset="0.664062"/><stop stop-opacity="1" stop-color="rgb(9.439087%, 72.146606%, 78.735352%)" offset="0.667969"/><stop stop-opacity="1" stop-color="rgb(9.307861%, 72.097778%, 78.944397%)" offset="0.671875"/><stop stop-opacity="1" stop-color="rgb(9.17511%, 72.047424%, 79.153442%)" offset="0.675781"/><stop stop-opacity="1" stop-color="rgb(9.043884%, 71.998596%, 79.362488%)" offset="0.679688"/><stop stop-opacity="1" stop-color="rgb(8.911133%, 71.948242%, 79.571533%)" offset="0.683594"/><stop stop-opacity="1" stop-color="rgb(8.779907%, 71.899414%, 79.780579%)" offset="0.6875"/><stop stop-opacity="1" stop-color="rgb(8.647156%, 71.84906%, 79.989624%)" offset="0.691406"/><stop stop-opacity="1" stop-color="rgb(8.51593%, 71.800232%, 80.200195%)" offset="0.695312"/><stop stop-opacity="1" stop-color="rgb(8.383179%, 71.749878%, 80.409241%)" offset="0.699219"/><stop stop-opacity="1" stop-color="rgb(8.251953%, 71.70105%, 80.618286%)" offset="0.703125"/><stop stop-opacity="1" stop-color="rgb(8.119202%, 71.650696%, 80.827332%)" offset="0.707031"/><stop stop-opacity="1" stop-color="rgb(7.987976%, 71.601868%, 81.036377%)" offset="0.710938"/><stop stop-opacity="1" stop-color="rgb(7.855225%, 71.551514%, 81.245422%)" offset="0.714844"/><stop stop-opacity="1" stop-color="rgb(7.723999%, 71.502686%, 81.454468%)" offset="0.71875"/><stop stop-opacity="1" stop-color="rgb(7.591248%, 71.452332%, 81.663513%)" offset="0.722656"/><stop stop-opacity="1" stop-color="rgb(7.460022%, 71.403503%, 81.874084%)" offset="0.726562"/><stop stop-opacity="1" stop-color="rgb(7.327271%, 71.353149%, 82.08313%)" offset="0.730469"/><stop stop-opacity="1" stop-color="rgb(7.196045%, 71.304321%, 82.292175%)" offset="0.734375"/><stop stop-opacity="1" stop-color="rgb(7.063293%, 71.253967%, 82.501221%)" offset="0.738281"/><stop stop-opacity="1" stop-color="rgb(6.932068%, 71.205139%, 82.710266%)" offset="0.742188"/><stop stop-opacity="1" stop-color="rgb(6.799316%, 71.154785%, 82.919312%)" offset="0.746094"/><stop stop-opacity="1" stop-color="rgb(6.668091%, 71.105957%, 83.128357%)" offset="0.75"/><stop stop-opacity="1" stop-color="rgb(6.535339%, 71.055603%, 83.337402%)" offset="0.753906"/><stop stop-opacity="1" stop-color="rgb(6.404114%, 71.006775%, 83.547974%)" offset="0.757812"/><stop stop-opacity="1" stop-color="rgb(6.271362%, 70.956421%, 83.757019%)" offset="0.761719"/><stop stop-opacity="1" stop-color="rgb(6.140137%, 70.907593%, 83.966064%)" offset="0.765625"/><stop stop-opacity="1" stop-color="rgb(6.007385%, 70.857239%, 84.17511%)" offset="0.769531"/><stop stop-opacity="1" stop-color="rgb(5.87616%, 70.808411%, 84.384155%)" offset="0.773438"/><stop stop-opacity="1" stop-color="rgb(5.743408%, 70.758057%, 84.593201%)" offset="0.777344"/><stop stop-opacity="1" stop-color="rgb(5.612183%, 70.709229%, 84.802246%)" offset="0.78125"/><stop stop-opacity="1" stop-color="rgb(5.479431%, 70.658875%, 85.011292%)" offset="0.785156"/><stop stop-opacity="1" stop-color="rgb(5.348206%, 70.610046%, 85.221863%)" offset="0.789062"/><stop stop-opacity="1" stop-color="rgb(5.215454%, 70.559692%, 85.430908%)" offset="0.792969"/><stop stop-opacity="1" stop-color="rgb(5.084229%, 70.510864%, 85.639954%)" offset="0.796875"/><stop stop-opacity="1" stop-color="rgb(4.951477%, 70.46051%, 85.848999%)" offset="0.800781"/><stop stop-opacity="1" stop-color="rgb(4.820251%, 70.411682%, 86.058044%)" offset="0.804688"/><stop stop-opacity="1" stop-color="rgb(4.6875%, 70.361328%, 86.26709%)" offset="0.808594"/><stop stop-opacity="1" stop-color="rgb(4.556274%, 70.3125%, 86.476135%)" offset="0.8125"/><stop stop-opacity="1" stop-color="rgb(4.423523%, 70.262146%, 86.685181%)" offset="0.816406"/><stop stop-opacity="1" stop-color="rgb(4.292297%, 70.213318%, 86.894226%)" offset="0.820312"/><stop stop-opacity="1" stop-color="rgb(4.159546%, 70.162964%, 87.103271%)" offset="0.824219"/><stop stop-opacity="1" stop-color="rgb(4.02832%, 70.114136%, 87.313843%)" offset="0.828125"/><stop stop-opacity="1" stop-color="rgb(3.895569%, 70.063782%, 87.522888%)" offset="0.832031"/><stop stop-opacity="1" stop-color="rgb(3.764343%, 70.014954%, 87.731934%)" offset="0.835938"/><stop stop-opacity="1" stop-color="rgb(3.631592%, 69.9646%, 87.940979%)" offset="0.839844"/><stop stop-opacity="1" stop-color="rgb(3.500366%, 69.915771%, 88.150024%)" offset="0.84375"/><stop stop-opacity="1" stop-color="rgb(3.367615%, 69.865417%, 88.35907%)" offset="0.847656"/><stop stop-opacity="1" stop-color="rgb(3.236389%, 69.816589%, 88.568115%)" offset="0.851563"/><stop stop-opacity="1" stop-color="rgb(3.103638%, 69.766235%, 88.777161%)" offset="0.855469"/><stop stop-opacity="1" stop-color="rgb(2.972412%, 69.715881%, 88.987732%)" offset="0.859375"/><stop stop-opacity="1" stop-color="rgb(2.839661%, 69.665527%, 89.196777%)" offset="0.863281"/><stop stop-opacity="1" stop-color="rgb(2.708435%, 69.616699%, 89.405823%)" offset="0.867188"/><stop stop-opacity="1" stop-color="rgb(2.575684%, 69.566345%, 89.614868%)" offset="0.871094"/><stop stop-opacity="1" stop-color="rgb(2.444458%, 69.517517%, 89.823914%)" offset="0.875"/><stop stop-opacity="1" stop-color="rgb(2.311707%, 69.467163%, 90.032959%)" offset="0.878906"/><stop stop-opacity="1" stop-color="rgb(2.180481%, 69.418335%, 90.242004%)" offset="0.882813"/><stop stop-opacity="1" stop-color="rgb(2.047729%, 69.367981%, 90.45105%)" offset="0.886719"/><stop stop-opacity="1" stop-color="rgb(1.916504%, 69.319153%, 90.661621%)" offset="0.890625"/><stop stop-opacity="1" stop-color="rgb(1.783752%, 69.268799%, 90.870667%)" offset="0.894531"/><stop stop-opacity="1" stop-color="rgb(1.652527%, 69.219971%, 91.079712%)" offset="0.898438"/><stop stop-opacity="1" stop-color="rgb(1.519775%, 69.169617%, 91.288757%)" offset="0.902344"/><stop stop-opacity="1" stop-color="rgb(1.38855%, 69.120789%, 91.497803%)" offset="0.90625"/><stop stop-opacity="1" stop-color="rgb(1.255798%, 69.070435%, 91.706848%)" offset="0.910156"/><stop stop-opacity="1" stop-color="rgb(1.124573%, 69.021606%, 91.915894%)" offset="0.914062"/><stop stop-opacity="1" stop-color="rgb(0.991821%, 68.971252%, 92.124939%)" offset="0.917969"/><stop stop-opacity="1" stop-color="rgb(0.860596%, 68.922424%, 92.33551%)" offset="0.921875"/><stop stop-opacity="1" stop-color="rgb(0.727844%, 68.87207%, 92.544556%)" offset="0.925781"/><stop stop-opacity="1" stop-color="rgb(0.596619%, 68.823242%, 92.753601%)" offset="0.929688"/><stop stop-opacity="1" stop-color="rgb(0.463867%, 68.772888%, 92.962646%)" offset="0.933594"/><stop stop-opacity="1" stop-color="rgb(0.332642%, 68.72406%, 93.171692%)" offset="0.9375"/><stop stop-opacity="1" stop-color="rgb(0.19989%, 68.673706%, 93.380737%)" offset="0.941406"/><stop stop-opacity="1" stop-color="rgb(0.0686646%, 68.624878%, 93.589783%)" offset="0.945313"/><stop stop-opacity="1" stop-color="rgb(0.0335693%, 68.611145%, 93.644714%)" offset="0.953125"/><stop stop-opacity="1" stop-color="rgb(0%, 68.598938%, 93.699646%)" offset="0.96875"/><stop stop-opacity="1" stop-color="rgb(0%, 68.598938%, 93.699646%)" offset="0.992733"/><stop stop-opacity="1" stop-color="rgb(0%, 68.598938%, 93.699646%)" offset="1"/></linearGradient></defs><rect x="-37.5" width="450" fill="#ffffff" y="-37.499999" height="449.999989" fill-opacity="1"/><rect x="-37.5" width="450" fill="#ffffff" y="-37.499999" height="449.999989" fill-opacity="1"/><rect x="-37.5" width="450" fill="#01212e" y="-37.499999" height="449.999989" fill-opacity="1"/><g clip-path="url(#1991913ce3)"><g clip-path="url(#0bbaf90f29)"><path fill="url(#15386f4900)" d="M 136.136719 116.90625 L 136.136719 211.160156 L 252.386719 211.160156 L 252.386719 116.90625 Z M 136.136719 116.90625 " fill-rule="nonzero"/></g></g><g fill="#d9d9d9" fill-opacity="1"><g transform="translate(97.633502, 244.093856)"><g><path d="M 2.78125 0 C 2.832031 -0.34375 2.859375 -0.722656 2.859375 -1.140625 L 2.859375 -20.390625 L 5.9375 -20.390625 L 14.0625 -7.609375 L 14.0625 -19.34375 C 14.0625 -19.90625 14.007812 -20.253906 13.90625 -20.390625 L 18.046875 -20.390625 C 17.992188 -19.972656 17.96875 -19.519531 17.96875 -19.03125 L 17.96875 0 L 14.78125 0 L 6.78125 -12.28125 L 6.78125 0 Z M 2.78125 0 "/></g></g></g><g fill="#d9d9d9" fill-opacity="1"><g transform="translate(122.862378, 244.093856)"><g><path d="M 4.125 0.125 C 3.25 0.0390625 2.222656 0 1.046875 0 L -0.171875 0 L 6.5 -18.6875 C 6.789062 -19.519531 6.9375 -20.003906 6.9375 -20.140625 C 6.9375 -20.285156 6.929688 -20.375 6.921875 -20.40625 L 6.9375 -20.4375 C 7.601562 -20.40625 8.3125 -20.390625 9.0625 -20.390625 C 9.675781 -20.390625 10.410156 -20.398438 11.265625 -20.421875 L 11.28125 -20.390625 C 11.257812 -20.347656 11.25 -20.289062 11.25 -20.21875 C 11.25 -20.019531 11.398438 -19.503906 11.703125 -18.671875 L 18.515625 0.046875 C 18.304688 0.0351562 18.066406 0.03125 17.796875 0.03125 C 17.796875 0.03125 17.53125 0.0195312 17 0 C 16.738281 0 16.507812 0 16.3125 0 L 13.9375 0 L 12.484375 -4.421875 L 5.5625 -4.421875 Z M 11.296875 -8.09375 L 8.984375 -15.21875 L 6.734375 -8.09375 Z M 11.296875 -8.09375 "/></g></g></g><g fill="#d9d9d9" fill-opacity="1"><g transform="translate(145.607817, 244.093856)"><g><path d="M 14.9375 -19.25 L 14.65625 -14.75 L 14.546875 -14.71875 C 13.785156 -15.851562 12.5 -16.585938 10.6875 -16.921875 C 10.113281 -17.035156 9.5625 -17.09375 9.03125 -17.09375 C 8.507812 -17.09375 8.0625 -17.046875 7.6875 -16.953125 C 7.3125 -16.859375 6.992188 -16.722656 6.734375 -16.546875 C 6.171875 -16.179688 5.890625 -15.703125 5.890625 -15.109375 C 5.890625 -14.335938 6.132812 -13.753906 6.625 -13.359375 C 7.238281 -12.890625 8.253906 -12.5625 9.671875 -12.375 C 11.085938 -12.1875 12.222656 -11.925781 13.078125 -11.59375 C 13.941406 -11.269531 14.648438 -10.859375 15.203125 -10.359375 C 16.242188 -9.421875 16.765625 -8.09375 16.765625 -6.375 C 16.765625 -4.125 15.914062 -2.394531 14.21875 -1.1875 C 12.769531 -0.132812 10.941406 0.390625 8.734375 0.390625 C 6.953125 0.390625 5.195312 0.0507812 3.46875 -0.625 C 2.894531 -0.851562 2.394531 -1.113281 1.96875 -1.40625 L 2.125 -6.53125 L 2.1875 -6.578125 C 3.457031 -4.390625 5.539062 -3.296875 8.4375 -3.296875 C 10.488281 -3.296875 11.84375 -3.789062 12.5 -4.78125 C 12.726562 -5.113281 12.84375 -5.488281 12.84375 -5.90625 C 12.84375 -6.320312 12.773438 -6.664062 12.640625 -6.9375 C 12.515625 -7.207031 12.296875 -7.441406 11.984375 -7.640625 C 11.390625 -8.023438 10.390625 -8.28125 8.984375 -8.40625 C 7.585938 -8.539062 6.445312 -8.789062 5.5625 -9.15625 C 4.675781 -9.53125 3.96875 -9.988281 3.4375 -10.53125 C 2.476562 -11.507812 2 -12.878906 2 -14.640625 C 2 -16.453125 2.632812 -17.921875 3.90625 -19.046875 C 5.207031 -20.191406 6.957031 -20.765625 9.15625 -20.765625 C 11.363281 -20.765625 13.289062 -20.257812 14.9375 -19.25 Z M 14.9375 -19.25 "/></g></g></g><g fill="#d9d9d9" fill-opacity="1"><g transform="translate(168.291938, 244.093856)"><g><path d="M 11.765625 -20.765625 C 13.679688 -20.765625 15.3125 -20.429688 16.65625 -19.765625 L 16.65625 -15.078125 L 16.625 -15.046875 C 16.050781 -15.929688 14.847656 -16.515625 13.015625 -16.796875 C 12.472656 -16.890625 11.785156 -16.9375 10.953125 -16.9375 C 10.128906 -16.9375 9.316406 -16.78125 8.515625 -16.46875 C 7.722656 -16.15625 7.070312 -15.710938 6.5625 -15.140625 C 5.570312 -14.023438 5.078125 -12.4375 5.078125 -10.375 C 5.078125 -7.976562 5.703125 -6.191406 6.953125 -5.015625 C 7.992188 -4.035156 9.375 -3.546875 11.09375 -3.546875 C 13.039062 -3.546875 14.613281 -3.957031 15.8125 -4.78125 C 16.257812 -5.082031 16.632812 -5.453125 16.9375 -5.890625 L 16.984375 -5.859375 L 16.984375 -1.5625 C 15.421875 -0.257812 13.316406 0.390625 10.671875 0.390625 C 7.554688 0.390625 5.113281 -0.601562 3.34375 -2.59375 C 1.644531 -4.476562 0.796875 -6.976562 0.796875 -10.09375 C 0.796875 -13.394531 1.726562 -16 3.59375 -17.90625 C 5.46875 -19.8125 8.191406 -20.765625 11.765625 -20.765625 Z M 11.765625 -20.765625 "/></g></g></g><g fill="#d9d9d9" fill-opacity="1"><g transform="translate(190.899406, 244.093856)"><g><path d="M 6.78125 0.09375 C 5.789062 0.03125 4.625 0 3.28125 0 L 2.796875 0 L 2.796875 -20.46875 C 3.421875 -20.414062 3.867188 -20.390625 4.140625 -20.390625 L 4.765625 -20.390625 C 5.578125 -20.390625 6.25 -20.429688 6.78125 -20.515625 L 6.78125 -12.34375 L 13.984375 -12.34375 L 13.984375 -20.46875 C 14.828125 -20.414062 15.648438 -20.390625 16.453125 -20.390625 C 17.253906 -20.390625 17.757812 -20.429688 17.96875 -20.515625 L 17.96875 0.09375 C 17.476562 0.03125 16.503906 0 15.046875 0 L 13.984375 0 L 13.984375 -8.65625 L 6.78125 -8.65625 Z M 6.78125 0.09375 "/></g></g></g><g fill="#d9d9d9" fill-opacity="1"><g transform="translate(216.20493, 244.093856)"><g><path d="M 4.125 0.125 C 3.25 0.0390625 2.222656 0 1.046875 0 L -0.171875 0 L 6.5 -18.6875 C 6.789062 -19.519531 6.9375 -20.003906 6.9375 -20.140625 C 6.9375 -20.285156 6.929688 -20.375 6.921875 -20.40625 L 6.9375 -20.4375 C 7.601562 -20.40625 8.3125 -20.390625 9.0625 -20.390625 C 9.675781 -20.390625 10.410156 -20.398438 11.265625 -20.421875 L 11.28125 -20.390625 C 11.257812 -20.347656 11.25 -20.289062 11.25 -20.21875 C 11.25 -20.019531 11.398438 -19.503906 11.703125 -18.671875 L 18.515625 0.046875 C 18.304688 0.0351562 18.066406 0.03125 17.796875 0.03125 C 17.796875 0.03125 17.53125 0.0195312 17 0 C 16.738281 0 16.507812 0 16.3125 0 L 13.9375 0 L 12.484375 -4.421875 L 5.5625 -4.421875 Z M 11.296875 -8.09375 L 8.984375 -15.21875 L 6.734375 -8.09375 Z M 11.296875 -8.09375 "/></g></g></g><g fill="#d9d9d9" fill-opacity="1"><g transform="translate(238.950366, 244.093856)"><g><path d="M 10 0.09375 C 9.5 0.03125 8.234375 0 6.203125 0 L 5.71875 0 L 5.71875 -16.953125 L 2.6875 -16.953125 C 1.78125 -16.953125 1.242188 -16.90625 1.078125 -16.8125 C 0.921875 -16.71875 0.796875 -16.632812 0.703125 -16.5625 L 0.65625 -16.578125 L 0.65625 -20.515625 L 0.703125 -20.546875 C 1.035156 -20.441406 1.945312 -20.390625 3.4375 -20.390625 L 13.046875 -20.390625 C 13.941406 -20.390625 14.472656 -20.429688 14.640625 -20.515625 C 14.804688 -20.609375 14.929688 -20.691406 15.015625 -20.765625 L 15.0625 -20.75 L 15.0625 -16.828125 L 15.015625 -16.78125 C 14.679688 -16.894531 13.773438 -16.953125 12.296875 -16.953125 L 10 -16.953125 Z M 10 0.09375 "/></g></g></g><g fill="#d9d9d9" fill-opacity="1"><g transform="translate(259.074397, 244.093856)"><g><path d="M 14.9375 -19.25 L 14.65625 -14.75 L 14.546875 -14.71875 C 13.785156 -15.851562 12.5 -16.585938 10.6875 -16.921875 C 10.113281 -17.035156 9.5625 -17.09375 9.03125 -17.09375 C 8.507812 -17.09375 8.0625 -17.046875 7.6875 -16.953125 C 7.3125 -16.859375 6.992188 -16.722656 6.734375 -16.546875 C 6.171875 -16.179688 5.890625 -15.703125 5.890625 -15.109375 C 5.890625 -14.335938 6.132812 -13.753906 6.625 -13.359375 C 7.238281 -12.890625 8.253906 -12.5625 9.671875 -12.375 C 11.085938 -12.1875 12.222656 -11.925781 13.078125 -11.59375 C 13.941406 -11.269531 14.648438 -10.859375 15.203125 -10.359375 C 16.242188 -9.421875 16.765625 -8.09375 16.765625 -6.375 C 16.765625 -4.125 15.914062 -2.394531 14.21875 -1.1875 C 12.769531 -0.132812 10.941406 0.390625 8.734375 0.390625 C 6.953125 0.390625 5.195312 0.0507812 3.46875 -0.625 C 2.894531 -0.851562 2.394531 -1.113281 1.96875 -1.40625 L 2.125 -6.53125 L 2.1875 -6.578125 C 3.457031 -4.390625 5.539062 -3.296875 8.4375 -3.296875 C 10.488281 -3.296875 11.84375 -3.789062 12.5 -4.78125 C 12.726562 -5.113281 12.84375 -5.488281 12.84375 -5.90625 C 12.84375 -6.320312 12.773438 -6.664062 12.640625 -6.9375 C 12.515625 -7.207031 12.296875 -7.441406 11.984375 -7.640625 C 11.390625 -8.023438 10.390625 -8.28125 8.984375 -8.40625 C 7.585938 -8.539062 6.445312 -8.789062 5.5625 -9.15625 C 4.675781 -9.53125 3.96875 -9.988281 3.4375 -10.53125 C 2.476562 -11.507812 2 -12.878906 2 -14.640625 C 2 -16.453125 2.632812 -17.921875 3.90625 -19.046875 C 5.207031 -20.191406 6.957031 -20.765625 9.15625 -20.765625 C 11.363281 -20.765625 13.289062 -20.257812 14.9375 -19.25 Z M 14.9375 -19.25 "/></g></g></g><g fill="#d9d9d9" fill-opacity="1"><g transform="translate(146.250508, 267.831855)"><g><path d="M 10.359375 -11.375 C 10.671875 -11.375 10.914062 -11.285156 11.09375 -11.109375 C 11.28125 -10.929688 11.375 -10.710938 11.375 -10.453125 C 11.375 -9.910156 11.070312 -9.488281 10.46875 -9.1875 C 9.925781 -8.9375 9.1875 -8.8125 8.25 -8.8125 C 8.09375 -8.8125 7.835938 -8.816406 7.484375 -8.828125 L 5.53125 -1.53125 C 5.457031 -1.269531 5.421875 -1.066406 5.421875 -0.921875 C 5.421875 -0.691406 5.503906 -0.53125 5.671875 -0.4375 C 5.835938 -0.34375 6.125 -0.285156 6.53125 -0.265625 L 6.46875 0 C 5.914062 -0.03125 5.097656 -0.046875 4.015625 -0.046875 C 2.960938 -0.046875 2.1875 -0.03125 1.6875 0 L 1.734375 -0.265625 C 2.117188 -0.285156 2.414062 -0.332031 2.625 -0.40625 C 2.832031 -0.476562 2.992188 -0.597656 3.109375 -0.765625 C 3.234375 -0.941406 3.335938 -1.195312 3.421875 -1.53125 L 5.421875 -9.03125 C 4.765625 -9.09375 4.234375 -9.125 3.828125 -9.125 C 3.097656 -9.125 2.597656 -9.050781 2.328125 -8.90625 C 2.554688 -8.832031 2.742188 -8.695312 2.890625 -8.5 C 3.046875 -8.3125 3.125 -8.085938 3.125 -7.828125 C 3.125 -7.515625 3.023438 -7.25 2.828125 -7.03125 C 2.640625 -6.820312 2.394531 -6.71875 2.09375 -6.71875 C 1.800781 -6.71875 1.566406 -6.816406 1.390625 -7.015625 C 1.222656 -7.210938 1.140625 -7.460938 1.140625 -7.765625 C 1.140625 -8.003906 1.207031 -8.238281 1.34375 -8.46875 C 1.476562 -8.707031 1.695312 -8.898438 2 -9.046875 C 2.4375 -9.253906 3.03125 -9.359375 3.78125 -9.359375 C 4.363281 -9.359375 5.1875 -9.304688 6.25 -9.203125 C 7.21875 -9.117188 7.925781 -9.078125 8.375 -9.078125 C 8.96875 -9.078125 9.4375 -9.132812 9.78125 -9.25 C 9.644531 -9.375 9.53125 -9.523438 9.4375 -9.703125 C 9.351562 -9.878906 9.3125 -10.078125 9.3125 -10.296875 C 9.3125 -10.609375 9.40625 -10.863281 9.59375 -11.0625 C 9.789062 -11.269531 10.046875 -11.375 10.359375 -11.375 Z M 10.359375 -11.375 "/></g></g></g><g fill="#d9d9d9" fill-opacity="1"><g transform="translate(156.934326, 267.831855)"><g><path d="M 6.203125 -6 C 6.203125 -5.257812 5.789062 -4.613281 4.96875 -4.0625 C 4.144531 -3.519531 3.191406 -3.097656 2.109375 -2.796875 C 2.054688 -2.492188 2.03125 -2.191406 2.03125 -1.890625 C 2.03125 -1.421875 2.113281 -1.085938 2.28125 -0.890625 C 2.457031 -0.703125 2.710938 -0.609375 3.046875 -0.609375 C 3.328125 -0.609375 3.640625 -0.691406 3.984375 -0.859375 C 4.328125 -1.035156 4.660156 -1.316406 4.984375 -1.703125 L 5.203125 -1.59375 C 4.878906 -1.09375 4.453125 -0.671875 3.921875 -0.328125 C 3.390625 0.015625 2.789062 0.1875 2.125 0.1875 C 1.507812 0.1875 1.007812 0.0234375 0.625 -0.296875 C 0.238281 -0.628906 0.046875 -1.09375 0.046875 -1.6875 C 0.046875 -2.46875 0.253906 -3.28125 0.671875 -4.125 C 1.097656 -4.96875 1.675781 -5.664062 2.40625 -6.21875 C 3.144531 -6.769531 3.953125 -7.046875 4.828125 -7.046875 C 5.234375 -7.046875 5.5625 -6.953125 5.8125 -6.765625 C 6.070312 -6.585938 6.203125 -6.332031 6.203125 -6 Z M 4.53125 -6.796875 C 4.28125 -6.796875 3.988281 -6.613281 3.65625 -6.25 C 3.332031 -5.882812 3.03125 -5.410156 2.75 -4.828125 C 2.476562 -4.253906 2.28125 -3.660156 2.15625 -3.046875 C 2.78125 -3.328125 3.265625 -3.625 3.609375 -3.9375 C 3.960938 -4.257812 4.238281 -4.625 4.4375 -5.03125 C 4.644531 -5.445312 4.75 -5.890625 4.75 -6.359375 C 4.75 -6.523438 4.726562 -6.640625 4.6875 -6.703125 C 4.65625 -6.765625 4.601562 -6.796875 4.53125 -6.796875 Z M 4.53125 -6.796875 "/></g></g></g><g fill="#d9d9d9" fill-opacity="1"><g transform="translate(164.808393, 267.831855)"><g><path d="M 4.75 -6.78125 C 4.3125 -6.78125 3.882812 -6.539062 3.46875 -6.0625 C 3.0625 -5.59375 2.726562 -4.972656 2.46875 -4.203125 C 2.21875 -3.441406 2.09375 -2.660156 2.09375 -1.859375 C 2.09375 -0.972656 2.429688 -0.53125 3.109375 -0.53125 C 3.742188 -0.53125 4.328125 -0.921875 4.859375 -1.703125 L 5.125 -1.59375 C 4.800781 -1.082031 4.394531 -0.65625 3.90625 -0.3125 C 3.414062 0.0195312 2.859375 0.1875 2.234375 0.1875 C 1.585938 0.1875 1.070312 0.015625 0.6875 -0.328125 C 0.300781 -0.671875 0.109375 -1.179688 0.109375 -1.859375 C 0.109375 -2.617188 0.296875 -3.398438 0.671875 -4.203125 C 1.054688 -5.015625 1.59375 -5.691406 2.28125 -6.234375 C 2.96875 -6.773438 3.75 -7.046875 4.625 -7.046875 C 5.113281 -7.046875 5.503906 -6.921875 5.796875 -6.671875 C 6.097656 -6.429688 6.25 -6.128906 6.25 -5.765625 C 6.25 -5.523438 6.191406 -5.289062 6.078125 -5.0625 C 5.960938 -4.832031 5.800781 -4.644531 5.59375 -4.5 C 5.394531 -4.363281 5.175781 -4.296875 4.9375 -4.296875 C 4.71875 -4.296875 4.535156 -4.363281 4.390625 -4.5 C 4.242188 -4.644531 4.171875 -4.832031 4.171875 -5.0625 C 4.171875 -5.40625 4.289062 -5.710938 4.53125 -5.984375 C 4.769531 -6.253906 5.054688 -6.429688 5.390625 -6.515625 C 5.234375 -6.691406 5.019531 -6.78125 4.75 -6.78125 Z M 4.75 -6.78125 "/></g></g></g><g fill="#d9d9d9" fill-opacity="1"><g transform="translate(172.60294, 267.831855)"><g><path d="M 6.96875 -2.15625 L 6.625 -1.1875 C 6.3125 -0.269531 5.722656 0.1875 4.859375 0.1875 C 4.046875 0.1875 3.640625 -0.171875 3.640625 -0.890625 C 3.640625 -1.203125 3.707031 -1.546875 3.84375 -1.921875 L 5.03125 -5.5 C 5.101562 -5.757812 5.140625 -5.957031 5.140625 -6.09375 C 5.140625 -6.28125 5.054688 -6.375 4.890625 -6.375 C 4.648438 -6.375 4.359375 -6.144531 4.015625 -5.6875 C 3.671875 -5.226562 3.320312 -4.609375 2.96875 -3.828125 C 2.613281 -3.054688 2.289062 -2.207031 2 -1.28125 L 1.6875 -0.171875 C 1.675781 -0.160156 1.671875 -0.144531 1.671875 -0.125 L 1.671875 -0.140625 L 1.625 0 L -0.234375 0 L 2.390625 -8.84375 C 2.429688 -9.007812 2.453125 -9.132812 2.453125 -9.21875 C 2.453125 -9.394531 2.382812 -9.519531 2.25 -9.59375 C 2.113281 -9.675781 1.878906 -9.71875 1.546875 -9.71875 L 1.625 -10 C 2.25 -10.007812 2.804688 -10.054688 3.296875 -10.140625 C 3.785156 -10.234375 4.257812 -10.367188 4.71875 -10.546875 L 2.921875 -4.375 C 3.367188 -5.375 3.8125 -6.066406 4.25 -6.453125 C 4.6875 -6.847656 5.1875 -7.046875 5.75 -7.046875 C 6.164062 -7.046875 6.46875 -6.945312 6.65625 -6.75 C 6.851562 -6.5625 6.953125 -6.304688 6.953125 -5.984375 C 6.953125 -5.703125 6.890625 -5.390625 6.765625 -5.046875 L 5.46875 -1.125 C 5.414062 -0.96875 5.390625 -0.84375 5.390625 -0.75 C 5.390625 -0.5625 5.476562 -0.46875 5.65625 -0.46875 C 5.945312 -0.46875 6.21875 -0.816406 6.46875 -1.515625 L 6.71875 -2.15625 Z M 6.96875 -2.15625 "/></g></g></g><g fill="#d9d9d9" fill-opacity="1"><g transform="translate(181.815611, 267.831855)"><g><path d="M 7.421875 -2.15625 L 7.078125 -1.1875 C 6.765625 -0.269531 6.175781 0.1875 5.3125 0.1875 C 4.8125 0.1875 4.457031 0.0390625 4.25 -0.25 C 4.132812 -0.414062 4.078125 -0.625 4.078125 -0.875 C 4.078125 -1.15625 4.144531 -1.503906 4.28125 -1.921875 L 5.484375 -5.5 C 5.554688 -5.738281 5.59375 -5.929688 5.59375 -6.078125 C 5.59375 -6.273438 5.507812 -6.375 5.34375 -6.375 C 5.082031 -6.375 4.765625 -6.101562 4.390625 -5.5625 C 4.015625 -5.03125 3.632812 -4.320312 3.25 -3.4375 C 2.863281 -2.5625 2.53125 -1.632812 2.25 -0.65625 L 2.078125 0 L 0.21875 0 L 1.8125 -5.734375 C 1.863281 -5.890625 1.890625 -6.03125 1.890625 -6.15625 C 1.890625 -6.3125 1.816406 -6.390625 1.671875 -6.390625 C 1.503906 -6.390625 1.351562 -6.3125 1.21875 -6.15625 C 1.09375 -6.007812 0.960938 -5.738281 0.828125 -5.34375 L 0.578125 -4.671875 L 0.3125 -4.671875 L 0.671875 -5.671875 C 0.835938 -6.160156 1.0625 -6.507812 1.34375 -6.71875 C 1.632812 -6.9375 1.984375 -7.046875 2.390625 -7.046875 C 3.148438 -7.046875 3.53125 -6.679688 3.53125 -5.953125 C 3.53125 -5.703125 3.492188 -5.445312 3.421875 -5.1875 L 3.015625 -3.578125 C 3.378906 -4.484375 3.722656 -5.1875 4.046875 -5.6875 C 4.378906 -6.1875 4.71875 -6.535156 5.0625 -6.734375 C 5.40625 -6.941406 5.78125 -7.046875 6.1875 -7.046875 C 6.988281 -7.046875 7.390625 -6.691406 7.390625 -5.984375 C 7.390625 -5.710938 7.332031 -5.398438 7.21875 -5.046875 L 5.921875 -1.125 C 5.867188 -0.96875 5.84375 -0.84375 5.84375 -0.75 C 5.84375 -0.5625 5.925781 -0.46875 6.09375 -0.46875 C 6.226562 -0.46875 6.363281 -0.539062 6.5 -0.6875 C 6.644531 -0.84375 6.785156 -1.117188 6.921875 -1.515625 L 7.15625 -2.15625 Z M 7.421875 -2.15625 "/></g></g></g><g fill="#d9d9d9" fill-opacity="1"><g transform="translate(191.465652, 267.831855)"><g><path d="M 0.15625 -2 C 0.15625 -2.726562 0.320312 -3.484375 0.65625 -4.265625 C 0.988281 -5.054688 1.476562 -5.71875 2.125 -6.25 C 2.78125 -6.78125 3.554688 -7.046875 4.453125 -7.046875 C 5.140625 -7.046875 5.671875 -6.859375 6.046875 -6.484375 C 6.421875 -6.109375 6.609375 -5.566406 6.609375 -4.859375 C 6.609375 -4.128906 6.441406 -3.367188 6.109375 -2.578125 C 5.773438 -1.796875 5.28125 -1.140625 4.625 -0.609375 C 3.976562 -0.078125 3.207031 0.1875 2.3125 0.1875 C 1.625 0.1875 1.09375 0 0.71875 -0.375 C 0.34375 -0.75 0.15625 -1.289062 0.15625 -2 Z M 4.390625 -6.78125 C 4.066406 -6.78125 3.707031 -6.460938 3.3125 -5.828125 C 2.925781 -5.203125 2.597656 -4.429688 2.328125 -3.515625 C 2.066406 -2.609375 1.9375 -1.765625 1.9375 -0.984375 C 1.9375 -0.660156 1.972656 -0.425781 2.046875 -0.28125 C 2.117188 -0.144531 2.234375 -0.078125 2.390625 -0.078125 C 2.710938 -0.078125 3.066406 -0.378906 3.453125 -0.984375 C 3.835938 -1.597656 4.160156 -2.359375 4.421875 -3.265625 C 4.691406 -4.171875 4.828125 -5.03125 4.828125 -5.84375 C 4.828125 -6.195312 4.789062 -6.441406 4.71875 -6.578125 C 4.644531 -6.710938 4.535156 -6.78125 4.390625 -6.78125 Z M 4.390625 -6.78125 "/></g></g></g><g fill="#d9d9d9" fill-opacity="1"><g transform="translate(200.134926, 267.831855)"><g><path d="M 1.890625 -1.125 C 1.847656 -1.007812 1.828125 -0.898438 1.828125 -0.796875 C 1.828125 -0.578125 1.921875 -0.46875 2.109375 -0.46875 C 2.378906 -0.46875 2.644531 -0.816406 2.90625 -1.515625 L 3.140625 -2.15625 L 3.390625 -2.15625 L 3.0625 -1.1875 C 2.894531 -0.6875 2.648438 -0.332031 2.328125 -0.125 C 2.015625 0.0820312 1.671875 0.1875 1.296875 0.1875 C 0.898438 0.1875 0.597656 0.0820312 0.390625 -0.125 C 0.191406 -0.332031 0.09375 -0.625 0.09375 -1 C 0.09375 -1.269531 0.144531 -1.578125 0.25 -1.921875 L 2.328125 -8.84375 C 2.378906 -9.007812 2.40625 -9.132812 2.40625 -9.21875 C 2.40625 -9.394531 2.332031 -9.519531 2.1875 -9.59375 C 2.050781 -9.675781 1.820312 -9.71875 1.5 -9.71875 L 1.59375 -10 C 2.195312 -10.007812 2.742188 -10.054688 3.234375 -10.140625 C 3.722656 -10.234375 4.203125 -10.367188 4.671875 -10.546875 Z M 1.890625 -1.125 "/></g></g></g><g fill="#d9d9d9" fill-opacity="1"><g transform="translate(205.769145, 267.831855)"><g><path d="M 0.15625 -2 C 0.15625 -2.726562 0.320312 -3.484375 0.65625 -4.265625 C 0.988281 -5.054688 1.476562 -5.71875 2.125 -6.25 C 2.78125 -6.78125 3.554688 -7.046875 4.453125 -7.046875 C 5.140625 -7.046875 5.671875 -6.859375 6.046875 -6.484375 C 6.421875 -6.109375 6.609375 -5.566406 6.609375 -4.859375 C 6.609375 -4.128906 6.441406 -3.367188 6.109375 -2.578125 C 5.773438 -1.796875 5.28125 -1.140625 4.625 -0.609375 C 3.976562 -0.078125 3.207031 0.1875 2.3125 0.1875 C 1.625 0.1875 1.09375 0 0.71875 -0.375 C 0.34375 -0.75 0.15625 -1.289062 0.15625 -2 Z M 4.390625 -6.78125 C 4.066406 -6.78125 3.707031 -6.460938 3.3125 -5.828125 C 2.925781 -5.203125 2.597656 -4.429688 2.328125 -3.515625 C 2.066406 -2.609375 1.9375 -1.765625 1.9375 -0.984375 C 1.9375 -0.660156 1.972656 -0.425781 2.046875 -0.28125 C 2.117188 -0.144531 2.234375 -0.078125 2.390625 -0.078125 C 2.710938 -0.078125 3.066406 -0.378906 3.453125 -0.984375 C 3.835938 -1.597656 4.160156 -2.359375 4.421875 -3.265625 C 4.691406 -4.171875 4.828125 -5.03125 4.828125 -5.84375 C 4.828125 -6.195312 4.789062 -6.441406 4.71875 -6.578125 C 4.644531 -6.710938 4.535156 -6.78125 4.390625 -6.78125 Z M 4.390625 -6.78125 "/></g></g></g><g fill="#d9d9d9" fill-opacity="1"><g transform="translate(214.438419, 267.831855)"><g><path d="M 6.15625 -7.625 C 6.425781 -7.625 6.632812 -7.546875 6.78125 -7.390625 C 6.9375 -7.242188 7.015625 -7.039062 7.015625 -6.78125 C 7.015625 -6.539062 6.953125 -6.351562 6.828125 -6.21875 C 6.703125 -6.082031 6.554688 -6.015625 6.390625 -6.015625 C 6.210938 -6.015625 6.054688 -6.082031 5.921875 -6.21875 C 5.796875 -6.351562 5.734375 -6.539062 5.734375 -6.78125 C 5.734375 -6.945312 5.769531 -7.140625 5.84375 -7.359375 C 5.5 -7.210938 5.234375 -7.015625 5.046875 -6.765625 C 5.285156 -6.648438 5.460938 -6.488281 5.578125 -6.28125 C 5.703125 -6.070312 5.765625 -5.820312 5.765625 -5.53125 C 5.765625 -5.15625 5.660156 -4.785156 5.453125 -4.421875 C 5.242188 -4.054688 4.945312 -3.738281 4.5625 -3.46875 C 4.1875 -3.195312 3.75 -3.015625 3.25 -2.921875 C 2.75 -2.703125 2.390625 -2.523438 2.171875 -2.390625 C 1.960938 -2.253906 1.859375 -2.125 1.859375 -2 C 1.859375 -1.925781 1.90625 -1.859375 2 -1.796875 C 2.101562 -1.742188 2.253906 -1.6875 2.453125 -1.625 L 3.5625 -1.25 C 4.03125 -1.09375 4.398438 -0.910156 4.671875 -0.703125 C 4.941406 -0.492188 5.078125 -0.195312 5.078125 0.1875 C 5.078125 0.613281 4.894531 1.003906 4.53125 1.359375 C 4.164062 1.710938 3.671875 1.992188 3.046875 2.203125 C 2.429688 2.421875 1.765625 2.53125 1.046875 2.53125 C 0.359375 2.53125 -0.210938 2.4375 -0.671875 2.25 C -1.128906 2.070312 -1.359375 1.832031 -1.359375 1.53125 C -1.359375 1.21875 -1.109375 0.953125 -0.609375 0.734375 C -0.117188 0.515625 0.4375 0.375 1.0625 0.3125 L 1.109375 0.5 C 0.566406 0.800781 0.296875 1.148438 0.296875 1.546875 C 0.296875 1.796875 0.382812 1.984375 0.5625 2.109375 C 0.75 2.242188 1.007812 2.3125 1.34375 2.3125 C 1.664062 2.3125 2.003906 2.242188 2.359375 2.109375 C 2.722656 1.984375 3.023438 1.8125 3.265625 1.59375 C 3.503906 1.382812 3.625 1.15625 3.625 0.90625 C 3.625 0.757812 3.570312 0.648438 3.46875 0.578125 C 3.363281 0.515625 3.1875 0.453125 2.9375 0.390625 L 1.046875 -0.15625 C 0.804688 -0.226562 0.613281 -0.335938 0.46875 -0.484375 C 0.320312 -0.628906 0.25 -0.804688 0.25 -1.015625 C 0.25 -1.335938 0.4375 -1.632812 0.8125 -1.90625 C 1.1875 -2.1875 1.789062 -2.503906 2.625 -2.859375 L 2.5 -2.859375 C 1.90625 -2.859375 1.421875 -2.976562 1.046875 -3.21875 C 0.679688 -3.46875 0.5 -3.84375 0.5 -4.34375 C 0.5 -4.75 0.625 -5.15625 0.875 -5.5625 C 1.132812 -5.976562 1.507812 -6.328125 2 -6.609375 C 2.5 -6.890625 3.085938 -7.03125 3.765625 -7.03125 C 4.140625 -7.03125 4.484375 -6.984375 4.796875 -6.890625 C 4.960938 -7.109375 5.164062 -7.285156 5.40625 -7.421875 C 5.644531 -7.554688 5.894531 -7.625 6.15625 -7.625 Z M 2.71875 -3.09375 C 3.113281 -3.09375 3.414062 -3.390625 3.625 -3.984375 C 3.84375 -4.578125 3.953125 -5.234375 3.953125 -5.953125 C 3.953125 -6.222656 3.921875 -6.429688 3.859375 -6.578125 C 3.804688 -6.722656 3.695312 -6.796875 3.53125 -6.796875 C 3.269531 -6.796875 3.046875 -6.640625 2.859375 -6.328125 C 2.671875 -6.015625 2.53125 -5.628906 2.4375 -5.171875 C 2.34375 -4.722656 2.296875 -4.289062 2.296875 -3.875 C 2.296875 -3.59375 2.328125 -3.390625 2.390625 -3.265625 C 2.460938 -3.148438 2.570312 -3.09375 2.71875 -3.09375 Z M 2.71875 -3.09375 "/></g></g></g><g fill="#d9d9d9" fill-opacity="1"><g transform="translate(222.352247, 267.831855)"><g><path d="M 5.328125 -7.046875 C 5.910156 -7.046875 6.203125 -6.644531 6.203125 -5.84375 C 6.203125 -5.039062 5.945312 -4.085938 5.4375 -2.984375 C 4.925781 -1.890625 4.3125 -0.910156 3.59375 -0.046875 C 3.144531 0.484375 2.644531 0.957031 2.09375 1.375 C 1.550781 1.789062 0.992188 2.097656 0.421875 2.296875 C 0.0664062 2.429688 -0.242188 2.5 -0.515625 2.5 C -0.796875 2.5 -1.019531 2.429688 -1.1875 2.296875 C -1.351562 2.160156 -1.4375 1.976562 -1.4375 1.75 C -1.4375 1.507812 -1.347656 1.3125 -1.171875 1.15625 C -1.003906 1 -0.785156 0.921875 -0.515625 0.921875 C 0.00390625 0.921875 0.476562 1.226562 0.90625 1.84375 C 1.539062 1.53125 2.113281 1.125 2.625 0.625 L 1.59375 -5.71875 C 1.550781 -5.96875 1.503906 -6.132812 1.453125 -6.21875 C 1.398438 -6.300781 1.332031 -6.34375 1.25 -6.34375 C 1.144531 -6.34375 1.046875 -6.273438 0.953125 -6.140625 C 0.867188 -6.003906 0.757812 -5.742188 0.625 -5.359375 L 0.390625 -4.703125 L 0.125 -4.703125 L 0.46875 -5.671875 C 0.644531 -6.179688 0.863281 -6.535156 1.125 -6.734375 C 1.394531 -6.941406 1.71875 -7.046875 2.09375 -7.046875 C 2.476562 -7.046875 2.773438 -6.9375 2.984375 -6.71875 C 3.191406 -6.507812 3.335938 -6.140625 3.421875 -5.609375 L 4.03125 -1.0625 C 4.414062 -1.613281 4.75 -2.179688 5.03125 -2.765625 C 5.320312 -3.347656 5.535156 -3.90625 5.671875 -4.4375 C 5.304688 -4.625 5.007812 -4.867188 4.78125 -5.171875 C 4.550781 -5.472656 4.4375 -5.796875 4.4375 -6.140625 C 4.4375 -6.410156 4.515625 -6.628906 4.671875 -6.796875 C 4.835938 -6.960938 5.054688 -7.046875 5.328125 -7.046875 Z M 5.328125 -7.046875 "/></g></g></g></svg>