<svg xmlns="http://www.w3.org/2000/svg" xmlns:xlink="http://www.w3.org/1999/xlink" width="500" zoomAndPan="magnify" viewBox="0 0 375 374.999991" height="500" preserveAspectRatio="xMidYMid meet" version="1.0"><defs><g/><clipPath id="f111bb4b4c"><path d="M 0 137.183594 L 80 137.183594 L 80 221.933594 L 0 221.933594 Z M 0 137.183594 " clip-rule="nonzero"/></clipPath><clipPath id="91aaf14630"><path d="M 46.097656 176.667969 L 10.28125 176.667969 C 8.890625 176.667969 7.886719 175.332031 8.261719 173.988281 L 18.09375 138.730469 C 18.347656 137.820312 19.171875 137.1875 20.113281 137.1875 L 55.933594 137.1875 C 57.320312 137.1875 58.328125 138.523438 57.953125 139.867188 L 48.117188 175.128906 C 47.863281 176.039062 47.039062 176.667969 46.097656 176.667969 Z M 22.832031 203.28125 L 27.898438 185.128906 C 28.273438 183.78125 27.265625 182.449219 25.878906 182.449219 L 7.464844 182.449219 C 6.523438 182.449219 5.699219 183.078125 5.445312 183.988281 L 0.382812 202.144531 C 0.0078125 203.488281 1.011719 204.824219 2.402344 204.824219 L 20.816406 204.824219 C 21.753906 204.824219 22.578125 204.191406 22.832031 203.28125 Z M 32.152344 183.988281 L 22.316406 219.246094 C 21.941406 220.59375 22.949219 221.925781 24.335938 221.925781 L 60.15625 221.925781 C 61.097656 221.925781 61.921875 221.296875 62.175781 220.386719 L 72.007812 185.128906 C 72.386719 183.78125 71.378906 182.449219 69.992188 182.449219 L 34.171875 182.449219 C 33.230469 182.449219 32.40625 183.078125 32.152344 183.988281 Z M 57.4375 155.832031 L 52.371094 173.988281 C 51.996094 175.332031 53.003906 176.667969 54.390625 176.667969 L 72.804688 176.667969 C 73.746094 176.667969 74.570312 176.039062 74.824219 175.128906 L 79.886719 156.972656 C 80.261719 155.628906 79.257812 154.292969 77.867188 154.292969 L 59.457031 154.292969 C 58.515625 154.292969 57.691406 154.921875 57.4375 155.832031 Z M 57.4375 155.832031 " clip-rule="nonzero"/></clipPath><linearGradient x1="114.296443" gradientTransform="matrix(0.168451, 0, 0, 0.169476, 0.303216, 137.189057)" y1="-47.633969" x2="358.61087" gradientUnits="userSpaceOnUse" y2="547.607267" id="4227a00151"><stop stop-opacity="1" stop-color="rgb(85.099792%, 85.099792%, 85.099792%)" offset="0"/><stop stop-opacity="1" stop-color="rgb(85.099792%, 85.099792%, 85.099792%)" offset="0.0625"/><stop stop-opacity="1" stop-color="rgb(85.128784%, 84.999084%, 84.999084%)" offset="0.09375"/><stop stop-opacity="1" stop-color="rgb(85.235596%, 84.631348%, 84.631348%)" offset="0.0976562"/><stop stop-opacity="1" stop-color="rgb(85.314941%, 84.362793%, 84.362793%)" offset="0.101562"/><stop stop-opacity="1" stop-color="rgb(85.392761%, 84.094238%, 84.094238%)" offset="0.105469"/><stop stop-opacity="1" stop-color="rgb(85.472107%, 83.825684%, 83.825684%)" offset="0.109375"/><stop stop-opacity="1" stop-color="rgb(85.549927%, 83.557129%, 83.557129%)" offset="0.113281"/><stop stop-opacity="1" stop-color="rgb(85.627747%, 83.288574%, 83.288574%)" offset="0.117187"/><stop stop-opacity="1" stop-color="rgb(85.705566%, 83.018494%, 83.018494%)" offset="0.121094"/><stop stop-opacity="1" stop-color="rgb(85.784912%, 82.749939%, 82.749939%)" offset="0.125"/><stop stop-opacity="1" stop-color="rgb(85.862732%, 82.481384%, 82.481384%)" offset="0.128906"/><stop stop-opacity="1" stop-color="rgb(85.942078%, 82.21283%, 82.21283%)" offset="0.132812"/><stop stop-opacity="1" stop-color="rgb(86.019897%, 81.944275%, 81.944275%)" offset="0.136719"/><stop stop-opacity="1" stop-color="rgb(86.099243%, 81.67572%, 81.67572%)" offset="0.140625"/><stop stop-opacity="1" stop-color="rgb(86.177063%, 81.40564%, 81.40564%)" offset="0.144531"/><stop stop-opacity="1" stop-color="rgb(86.256409%, 81.137085%, 81.137085%)" offset="0.148438"/><stop stop-opacity="1" stop-color="rgb(86.334229%, 80.86853%, 80.86853%)" offset="0.152344"/><stop stop-opacity="1" stop-color="rgb(86.413574%, 80.599976%, 80.599976%)" offset="0.15625"/><stop stop-opacity="1" stop-color="rgb(86.491394%, 80.331421%, 80.331421%)" offset="0.160156"/><stop stop-opacity="1" stop-color="rgb(86.57074%, 80.062866%, 80.062866%)" offset="0.164062"/><stop stop-opacity="1" stop-color="rgb(86.64856%, 79.794312%, 79.794312%)" offset="0.167969"/><stop stop-opacity="1" stop-color="rgb(86.727905%, 79.525757%, 79.525757%)" offset="0.171875"/><stop stop-opacity="1" stop-color="rgb(86.805725%, 79.255676%, 79.255676%)" offset="0.175781"/><stop stop-opacity="1" stop-color="rgb(86.885071%, 78.987122%, 78.987122%)" offset="0.179687"/><stop stop-opacity="1" stop-color="rgb(86.962891%, 78.718567%, 78.718567%)" offset="0.183594"/><stop stop-opacity="1" stop-color="rgb(87.042236%, 78.450012%, 78.450012%)" offset="0.1875"/><stop stop-opacity="1" stop-color="rgb(87.120056%, 78.181458%, 78.181458%)" offset="0.191406"/><stop stop-opacity="1" stop-color="rgb(87.199402%, 77.912903%, 77.912903%)" offset="0.195312"/><stop stop-opacity="1" stop-color="rgb(87.277222%, 77.642822%, 77.642822%)" offset="0.199219"/><stop stop-opacity="1" stop-color="rgb(87.356567%, 77.374268%, 77.374268%)" offset="0.203125"/><stop stop-opacity="1" stop-color="rgb(87.434387%, 77.105713%, 77.105713%)" offset="0.207031"/><stop stop-opacity="1" stop-color="rgb(87.513733%, 76.837158%, 76.837158%)" offset="0.210937"/><stop stop-opacity="1" stop-color="rgb(87.591553%, 76.568604%, 76.568604%)" offset="0.214844"/><stop stop-opacity="1" stop-color="rgb(87.669373%, 76.300049%, 76.300049%)" offset="0.21875"/><stop stop-opacity="1" stop-color="rgb(87.747192%, 76.031494%, 76.031494%)" offset="0.222656"/><stop stop-opacity="1" stop-color="rgb(87.826538%, 75.762939%, 75.762939%)" offset="0.226562"/><stop stop-opacity="1" stop-color="rgb(87.904358%, 75.492859%, 75.492859%)" offset="0.230469"/><stop stop-opacity="1" stop-color="rgb(87.983704%, 75.224304%, 75.224304%)" offset="0.234375"/><stop stop-opacity="1" stop-color="rgb(88.061523%, 74.95575%, 74.95575%)" offset="0.238281"/><stop stop-opacity="1" stop-color="rgb(88.140869%, 74.687195%, 74.687195%)" offset="0.242188"/><stop stop-opacity="1" stop-color="rgb(88.218689%, 74.41864%, 74.41864%)" offset="0.246094"/><stop stop-opacity="1" stop-color="rgb(88.298035%, 74.150085%, 74.150085%)" offset="0.25"/><stop stop-opacity="1" stop-color="rgb(88.375854%, 73.880005%, 73.880005%)" offset="0.253906"/><stop stop-opacity="1" stop-color="rgb(88.4552%, 73.61145%, 73.61145%)" offset="0.257812"/><stop stop-opacity="1" stop-color="rgb(88.53302%, 73.342896%, 73.342896%)" offset="0.261719"/><stop stop-opacity="1" stop-color="rgb(88.612366%, 73.074341%, 73.074341%)" offset="0.265625"/><stop stop-opacity="1" stop-color="rgb(88.690186%, 72.805786%, 72.805786%)" offset="0.269531"/><stop stop-opacity="1" stop-color="rgb(88.769531%, 72.537231%, 72.537231%)" offset="0.273437"/><stop stop-opacity="1" stop-color="rgb(88.847351%, 72.268677%, 72.268677%)" offset="0.277344"/><stop stop-opacity="1" stop-color="rgb(88.926697%, 72.000122%, 72.000122%)" offset="0.28125"/><stop stop-opacity="1" stop-color="rgb(89.004517%, 71.730042%, 71.730042%)" offset="0.285156"/><stop stop-opacity="1" stop-color="rgb(89.083862%, 71.461487%, 71.461487%)" offset="0.289062"/><stop stop-opacity="1" stop-color="rgb(89.161682%, 71.192932%, 71.192932%)" offset="0.292969"/><stop stop-opacity="1" stop-color="rgb(89.241028%, 70.924377%, 70.924377%)" offset="0.296875"/><stop stop-opacity="1" stop-color="rgb(89.318848%, 70.655823%, 70.655823%)" offset="0.300781"/><stop stop-opacity="1" stop-color="rgb(89.398193%, 70.387268%, 70.387268%)" offset="0.304687"/><stop stop-opacity="1" stop-color="rgb(89.476013%, 70.117188%, 70.117188%)" offset="0.308594"/><stop stop-opacity="1" stop-color="rgb(89.553833%, 69.848633%, 69.848633%)" offset="0.3125"/><stop stop-opacity="1" stop-color="rgb(89.631653%, 69.580078%, 69.580078%)" offset="0.316406"/><stop stop-opacity="1" stop-color="rgb(89.710999%, 69.311523%, 69.311523%)" offset="0.320312"/><stop stop-opacity="1" stop-color="rgb(89.788818%, 69.042969%, 69.042969%)" offset="0.324219"/><stop stop-opacity="1" stop-color="rgb(89.868164%, 68.774414%, 68.774414%)" offset="0.328125"/><stop stop-opacity="1" stop-color="rgb(89.945984%, 68.505859%, 68.505859%)" offset="0.332031"/><stop stop-opacity="1" stop-color="rgb(90.02533%, 68.237305%, 68.237305%)" offset="0.335938"/><stop stop-opacity="1" stop-color="rgb(90.103149%, 67.967224%, 67.967224%)" offset="0.339844"/><stop stop-opacity="1" stop-color="rgb(90.182495%, 67.698669%, 67.698669%)" offset="0.34375"/><stop stop-opacity="1" stop-color="rgb(90.260315%, 67.430115%, 67.430115%)" offset="0.347656"/><stop stop-opacity="1" stop-color="rgb(90.339661%, 67.16156%, 67.16156%)" offset="0.351562"/><stop stop-opacity="1" stop-color="rgb(90.41748%, 66.893005%, 66.893005%)" offset="0.355469"/><stop stop-opacity="1" stop-color="rgb(90.496826%, 66.624451%, 66.624451%)" offset="0.359375"/><stop stop-opacity="1" stop-color="rgb(90.574646%, 66.355896%, 66.355896%)" offset="0.363281"/><stop stop-opacity="1" stop-color="rgb(90.653992%, 66.087341%, 66.087341%)" offset="0.367187"/><stop stop-opacity="1" stop-color="rgb(90.731812%, 65.817261%, 65.817261%)" offset="0.371094"/><stop stop-opacity="1" stop-color="rgb(90.811157%, 65.548706%, 65.548706%)" offset="0.375"/><stop stop-opacity="1" stop-color="rgb(90.888977%, 65.280151%, 65.280151%)" offset="0.378906"/><stop stop-opacity="1" stop-color="rgb(90.968323%, 65.011597%, 65.011597%)" offset="0.382812"/><stop stop-opacity="1" stop-color="rgb(91.046143%, 64.743042%, 64.743042%)" offset="0.386719"/><stop stop-opacity="1" stop-color="rgb(91.125488%, 64.474487%, 64.474487%)" offset="0.390625"/><stop stop-opacity="1" stop-color="rgb(91.203308%, 64.204407%, 64.204407%)" offset="0.394531"/><stop stop-opacity="1" stop-color="rgb(91.282654%, 63.935852%, 63.935852%)" offset="0.398437"/><stop stop-opacity="1" stop-color="rgb(91.360474%, 63.667297%, 63.667297%)" offset="0.402344"/><stop stop-opacity="1" stop-color="rgb(91.439819%, 63.398743%, 63.398743%)" offset="0.40625"/><stop stop-opacity="1" stop-color="rgb(91.517639%, 63.130188%, 63.130188%)" offset="0.410156"/><stop stop-opacity="1" stop-color="rgb(91.595459%, 62.861633%, 62.861633%)" offset="0.414062"/><stop stop-opacity="1" stop-color="rgb(91.673279%, 62.593079%, 62.593079%)" offset="0.417969"/><stop stop-opacity="1" stop-color="rgb(91.752625%, 62.324524%, 62.324524%)" offset="0.421875"/><stop stop-opacity="1" stop-color="rgb(91.830444%, 62.054443%, 62.054443%)" offset="0.425781"/><stop stop-opacity="1" stop-color="rgb(91.90979%, 61.785889%, 61.785889%)" offset="0.429687"/><stop stop-opacity="1" stop-color="rgb(91.98761%, 61.517334%, 61.517334%)" offset="0.433594"/><stop stop-opacity="1" stop-color="rgb(92.066956%, 61.248779%, 61.248779%)" offset="0.4375"/><stop stop-opacity="1" stop-color="rgb(92.144775%, 60.980225%, 60.980225%)" offset="0.441406"/><stop stop-opacity="1" stop-color="rgb(92.224121%, 60.71167%, 60.71167%)" offset="0.445312"/><stop stop-opacity="1" stop-color="rgb(92.301941%, 60.441589%, 60.441589%)" offset="0.449219"/><stop stop-opacity="1" stop-color="rgb(92.381287%, 60.173035%, 60.173035%)" offset="0.453125"/><stop stop-opacity="1" stop-color="rgb(92.459106%, 59.90448%, 59.90448%)" offset="0.457031"/><stop stop-opacity="1" stop-color="rgb(92.538452%, 59.635925%, 59.635925%)" offset="0.460937"/><stop stop-opacity="1" stop-color="rgb(92.616272%, 59.367371%, 59.367371%)" offset="0.464844"/><stop stop-opacity="1" stop-color="rgb(92.695618%, 59.098816%, 59.098816%)" offset="0.46875"/><stop stop-opacity="1" stop-color="rgb(92.773438%, 58.830261%, 58.830261%)" offset="0.472656"/><stop stop-opacity="1" stop-color="rgb(92.852783%, 58.561707%, 58.561707%)" offset="0.476562"/><stop stop-opacity="1" stop-color="rgb(92.930603%, 58.291626%, 58.291626%)" offset="0.480469"/><stop stop-opacity="1" stop-color="rgb(93.009949%, 58.023071%, 58.023071%)" offset="0.484375"/><stop stop-opacity="1" stop-color="rgb(93.087769%, 57.754517%, 57.754517%)" offset="0.488281"/><stop stop-opacity="1" stop-color="rgb(93.167114%, 57.485962%, 57.485962%)" offset="0.492187"/><stop stop-opacity="1" stop-color="rgb(93.244934%, 57.217407%, 57.217407%)" offset="0.496094"/><stop stop-opacity="1" stop-color="rgb(93.32428%, 56.948853%, 56.948853%)" offset="0.5"/><stop stop-opacity="1" stop-color="rgb(93.4021%, 56.678772%, 56.678772%)" offset="0.503906"/><stop stop-opacity="1" stop-color="rgb(93.481445%, 56.410217%, 56.410217%)" offset="0.507812"/><stop stop-opacity="1" stop-color="rgb(93.559265%, 56.141663%, 56.141663%)" offset="0.511719"/><stop stop-opacity="1" stop-color="rgb(93.637085%, 55.873108%, 55.873108%)" offset="0.515625"/><stop stop-opacity="1" stop-color="rgb(93.714905%, 55.604553%, 55.604553%)" offset="0.519531"/><stop stop-opacity="1" stop-color="rgb(93.79425%, 55.335999%, 55.335999%)" offset="0.523438"/><stop stop-opacity="1" stop-color="rgb(93.87207%, 55.067444%, 55.067444%)" offset="0.527344"/><stop stop-opacity="1" stop-color="rgb(93.951416%, 54.798889%, 54.798889%)" offset="0.53125"/><stop stop-opacity="1" stop-color="rgb(94.029236%, 54.528809%, 54.528809%)" offset="0.535156"/><stop stop-opacity="1" stop-color="rgb(94.108582%, 54.260254%, 54.260254%)" offset="0.539062"/><stop stop-opacity="1" stop-color="rgb(94.186401%, 53.991699%, 53.991699%)" offset="0.542969"/><stop stop-opacity="1" stop-color="rgb(94.265747%, 53.723145%, 53.723145%)" offset="0.546875"/><stop stop-opacity="1" stop-color="rgb(94.343567%, 53.45459%, 53.45459%)" offset="0.550781"/><stop stop-opacity="1" stop-color="rgb(94.422913%, 53.186035%, 53.186035%)" offset="0.554687"/><stop stop-opacity="1" stop-color="rgb(94.500732%, 52.915955%, 52.915955%)" offset="0.558594"/><stop stop-opacity="1" stop-color="rgb(94.580078%, 52.6474%, 52.6474%)" offset="0.5625"/><stop stop-opacity="1" stop-color="rgb(94.657898%, 52.378845%, 52.378845%)" offset="0.566406"/><stop stop-opacity="1" stop-color="rgb(94.737244%, 52.110291%, 52.110291%)" offset="0.570312"/><stop stop-opacity="1" stop-color="rgb(94.815063%, 51.841736%, 51.841736%)" offset="0.574219"/><stop stop-opacity="1" stop-color="rgb(94.894409%, 51.573181%, 51.573181%)" offset="0.578125"/><stop stop-opacity="1" stop-color="rgb(94.972229%, 51.304626%, 51.304626%)" offset="0.582031"/><stop stop-opacity="1" stop-color="rgb(95.051575%, 51.036072%, 51.036072%)" offset="0.585937"/><stop stop-opacity="1" stop-color="rgb(95.129395%, 50.765991%, 50.765991%)" offset="0.589844"/><stop stop-opacity="1" stop-color="rgb(95.20874%, 50.497437%, 50.497437%)" offset="0.59375"/><stop stop-opacity="1" stop-color="rgb(95.28656%, 50.228882%, 50.228882%)" offset="0.597656"/><stop stop-opacity="1" stop-color="rgb(95.365906%, 49.960327%, 49.960327%)" offset="0.601562"/><stop stop-opacity="1" stop-color="rgb(95.443726%, 49.691772%, 49.691772%)" offset="0.605469"/><stop stop-opacity="1" stop-color="rgb(95.523071%, 49.423218%, 49.423218%)" offset="0.609375"/><stop stop-opacity="1" stop-color="rgb(95.600891%, 49.154663%, 49.154663%)" offset="0.613281"/><stop stop-opacity="1" stop-color="rgb(95.678711%, 48.886108%, 48.886108%)" offset="0.617188"/><stop stop-opacity="1" stop-color="rgb(95.756531%, 48.616028%, 48.616028%)" offset="0.621094"/><stop stop-opacity="1" stop-color="rgb(95.835876%, 48.347473%, 48.347473%)" offset="0.625"/><stop stop-opacity="1" stop-color="rgb(95.913696%, 48.078918%, 48.078918%)" offset="0.628906"/><stop stop-opacity="1" stop-color="rgb(95.993042%, 47.810364%, 47.810364%)" offset="0.632812"/><stop stop-opacity="1" stop-color="rgb(96.070862%, 47.541809%, 47.541809%)" offset="0.636719"/><stop stop-opacity="1" stop-color="rgb(96.150208%, 47.273254%, 47.273254%)" offset="0.640625"/><stop stop-opacity="1" stop-color="rgb(96.228027%, 47.003174%, 47.003174%)" offset="0.644531"/><stop stop-opacity="1" stop-color="rgb(96.307373%, 46.734619%, 46.734619%)" offset="0.648437"/><stop stop-opacity="1" stop-color="rgb(96.385193%, 46.466064%, 46.466064%)" offset="0.652344"/><stop stop-opacity="1" stop-color="rgb(96.464539%, 46.19751%, 46.19751%)" offset="0.65625"/><stop stop-opacity="1" stop-color="rgb(96.542358%, 45.928955%, 45.928955%)" offset="0.660156"/><stop stop-opacity="1" stop-color="rgb(96.621704%, 45.6604%, 45.6604%)" offset="0.664062"/><stop stop-opacity="1" stop-color="rgb(96.699524%, 45.391846%, 45.391846%)" offset="0.667969"/><stop stop-opacity="1" stop-color="rgb(96.77887%, 45.123291%, 45.123291%)" offset="0.671875"/><stop stop-opacity="1" stop-color="rgb(96.856689%, 44.85321%, 44.85321%)" offset="0.675781"/><stop stop-opacity="1" stop-color="rgb(96.936035%, 44.584656%, 44.584656%)" offset="0.679687"/><stop stop-opacity="1" stop-color="rgb(97.013855%, 44.316101%, 44.316101%)" offset="0.683594"/><stop stop-opacity="1" stop-color="rgb(97.093201%, 44.047546%, 44.047546%)" offset="0.6875"/><stop stop-opacity="1" stop-color="rgb(97.171021%, 43.778992%, 43.778992%)" offset="0.691406"/><stop stop-opacity="1" stop-color="rgb(97.250366%, 43.510437%, 43.510437%)" offset="0.695312"/><stop stop-opacity="1" stop-color="rgb(97.328186%, 43.240356%, 43.240356%)" offset="0.699219"/><stop stop-opacity="1" stop-color="rgb(97.407532%, 42.971802%, 42.971802%)" offset="0.703125"/><stop stop-opacity="1" stop-color="rgb(97.485352%, 42.703247%, 42.703247%)" offset="0.707031"/><stop stop-opacity="1" stop-color="rgb(97.563171%, 42.434692%, 42.434692%)" offset="0.710938"/><stop stop-opacity="1" stop-color="rgb(97.640991%, 42.166138%, 42.166138%)" offset="0.714844"/><stop stop-opacity="1" stop-color="rgb(97.720337%, 41.897583%, 41.897583%)" offset="0.71875"/><stop stop-opacity="1" stop-color="rgb(97.798157%, 41.629028%, 41.629028%)" offset="0.722656"/><stop stop-opacity="1" stop-color="rgb(97.877502%, 41.360474%, 41.360474%)" offset="0.726562"/><stop stop-opacity="1" stop-color="rgb(97.955322%, 41.090393%, 41.090393%)" offset="0.730469"/><stop stop-opacity="1" stop-color="rgb(98.034668%, 40.821838%, 40.821838%)" offset="0.734375"/><stop stop-opacity="1" stop-color="rgb(98.112488%, 40.553284%, 40.553284%)" offset="0.738281"/><stop stop-opacity="1" stop-color="rgb(98.191833%, 40.284729%, 40.284729%)" offset="0.742187"/><stop stop-opacity="1" stop-color="rgb(98.269653%, 40.016174%, 40.016174%)" offset="0.746094"/><stop stop-opacity="1" stop-color="rgb(98.348999%, 39.74762%, 39.74762%)" offset="0.75"/><stop stop-opacity="1" stop-color="rgb(98.426819%, 39.477539%, 39.477539%)" offset="0.753906"/><stop stop-opacity="1" stop-color="rgb(98.506165%, 39.208984%, 39.208984%)" offset="0.757812"/><stop stop-opacity="1" stop-color="rgb(98.583984%, 38.94043%, 38.94043%)" offset="0.761719"/><stop stop-opacity="1" stop-color="rgb(98.66333%, 38.671875%, 38.671875%)" offset="0.765625"/><stop stop-opacity="1" stop-color="rgb(98.74115%, 38.40332%, 38.40332%)" offset="0.769531"/><stop stop-opacity="1" stop-color="rgb(98.820496%, 38.134766%, 38.134766%)" offset="0.773438"/><stop stop-opacity="1" stop-color="rgb(98.898315%, 37.866211%, 37.866211%)" offset="0.777344"/><stop stop-opacity="1" stop-color="rgb(98.977661%, 37.597656%, 37.597656%)" offset="0.78125"/><stop stop-opacity="1" stop-color="rgb(99.055481%, 37.327576%, 37.327576%)" offset="0.785156"/><stop stop-opacity="1" stop-color="rgb(99.134827%, 37.059021%, 37.059021%)" offset="0.789062"/><stop stop-opacity="1" stop-color="rgb(99.212646%, 36.790466%, 36.790466%)" offset="0.792969"/><stop stop-opacity="1" stop-color="rgb(99.291992%, 36.521912%, 36.521912%)" offset="0.796875"/><stop stop-opacity="1" stop-color="rgb(99.369812%, 36.253357%, 36.253357%)" offset="0.800781"/><stop stop-opacity="1" stop-color="rgb(99.449158%, 35.984802%, 35.984802%)" offset="0.804688"/><stop stop-opacity="1" stop-color="rgb(99.526978%, 35.714722%, 35.714722%)" offset="0.808594"/><stop stop-opacity="1" stop-color="rgb(99.604797%, 35.446167%, 35.446167%)" offset="0.8125"/><stop stop-opacity="1" stop-color="rgb(99.682617%, 35.177612%, 35.177612%)" offset="0.816406"/><stop stop-opacity="1" stop-color="rgb(99.761963%, 34.909058%, 34.909058%)" offset="0.820312"/><stop stop-opacity="1" stop-color="rgb(99.839783%, 34.640503%, 34.640503%)" offset="0.824219"/><stop stop-opacity="1" stop-color="rgb(99.919128%, 34.371948%, 34.371948%)" offset="0.828125"/><stop stop-opacity="1" stop-color="rgb(99.958801%, 34.234619%, 34.234619%)" offset="0.84375"/><stop stop-opacity="1" stop-color="rgb(100%, 34.098816%, 34.098816%)" offset="0.875"/><stop stop-opacity="1" stop-color="rgb(100%, 34.098816%, 34.098816%)" offset="1"/></linearGradient></defs><g clip-path="url(#f111bb4b4c)"><g clip-path="url(#91aaf14630)"><path fill="url(#4227a00151)" d="M 0.0078125 137.1875 L 0.0078125 221.925781 L 80.25 221.925781 L 80.25 137.1875 Z M 0.0078125 137.1875 " fill-rule="nonzero"/></g></g><g fill="#ffffff" fill-opacity="1"><g transform="translate(85.139389, 193.889895)"><g><path d="M 4.53125 0 C 4.625 -0.5625 4.671875 -1.175781 4.671875 -1.84375 L 4.671875 -33.25 L 9.671875 -33.25 L 22.921875 -12.40625 L 22.921875 -31.546875 C 22.921875 -32.460938 22.835938 -33.03125 22.671875 -33.25 L 29.421875 -33.25 C 29.335938 -32.582031 29.296875 -31.847656 29.296875 -31.046875 L 29.296875 0 L 24.09375 0 L 11.046875 -20.03125 L 11.046875 0 Z M 4.53125 0 "/></g></g></g><g fill="#ffffff" fill-opacity="1"><g transform="translate(126.279327, 193.889895)"><g><path d="M 6.71875 0.203125 C 5.289062 0.0664062 3.617188 0 1.703125 0 L -0.28125 0 L 10.59375 -30.484375 C 11.082031 -31.847656 11.328125 -32.640625 11.328125 -32.859375 C 11.328125 -33.085938 11.316406 -33.226562 11.296875 -33.28125 L 11.328125 -33.328125 C 12.410156 -33.273438 13.5625 -33.25 14.78125 -33.25 C 15.78125 -33.25 16.976562 -33.265625 18.375 -33.296875 L 18.40625 -33.25 C 18.363281 -33.1875 18.34375 -33.097656 18.34375 -32.984375 C 18.34375 -32.660156 18.59375 -31.816406 19.09375 -30.453125 L 30.203125 0.078125 C 29.867188 0.0546875 29.476562 0.046875 29.03125 0.046875 C 29.03125 0.046875 28.597656 0.03125 27.734375 0 C 27.316406 0 26.941406 0 26.609375 0 L 22.71875 0 L 20.375 -7.203125 L 9.078125 -7.203125 Z M 18.421875 -13.203125 L 14.65625 -24.828125 L 10.96875 -13.203125 Z M 18.421875 -13.203125 "/></g></g></g><g fill="#ffffff" fill-opacity="1"><g transform="translate(163.369603, 193.889895)"><g><path d="M 24.375 -31.40625 L 23.90625 -24.046875 L 23.71875 -24 C 22.488281 -25.851562 20.390625 -27.054688 17.421875 -27.609375 C 16.492188 -27.785156 15.597656 -27.875 14.734375 -27.875 C 13.878906 -27.875 13.144531 -27.796875 12.53125 -27.640625 C 11.925781 -27.492188 11.40625 -27.28125 10.96875 -27 C 10.050781 -26.40625 9.59375 -25.625 9.59375 -24.65625 C 9.59375 -23.382812 9.992188 -22.429688 10.796875 -21.796875 C 11.796875 -21.035156 13.453125 -20.5 15.765625 -20.1875 C 18.085938 -19.875 19.945312 -19.453125 21.34375 -18.921875 C 22.75 -18.390625 23.898438 -17.71875 24.796875 -16.90625 C 26.503906 -15.363281 27.359375 -13.195312 27.359375 -10.40625 C 27.359375 -6.738281 25.972656 -3.910156 23.203125 -1.921875 C 20.835938 -0.222656 17.851562 0.625 14.25 0.625 C 11.351562 0.625 8.488281 0.0703125 5.65625 -1.03125 C 4.71875 -1.394531 3.898438 -1.816406 3.203125 -2.296875 L 3.46875 -10.65625 L 3.578125 -10.71875 C 5.640625 -7.15625 9.03125 -5.375 13.75 -5.375 C 17.101562 -5.375 19.320312 -6.179688 20.40625 -7.796875 C 20.769531 -8.347656 20.953125 -8.960938 20.953125 -9.640625 C 20.953125 -10.316406 20.84375 -10.875 20.625 -11.3125 C 20.40625 -11.75 20.046875 -12.128906 19.546875 -12.453125 C 18.578125 -13.085938 16.953125 -13.507812 14.671875 -13.71875 C 12.390625 -13.9375 10.523438 -14.34375 9.078125 -14.9375 C 7.628906 -15.539062 6.46875 -16.285156 5.59375 -17.171875 C 4.03125 -18.773438 3.25 -21.007812 3.25 -23.875 C 3.25 -26.84375 4.289062 -29.242188 6.375 -31.078125 C 8.488281 -32.941406 11.34375 -33.875 14.9375 -33.875 C 18.53125 -33.875 21.675781 -33.050781 24.375 -31.40625 Z M 24.375 -31.40625 "/></g></g></g><g fill="#ffffff" fill-opacity="1"><g transform="translate(200.35989, 193.889895)"><g><path d="M 19.203125 -33.875 C 22.316406 -33.875 24.972656 -33.332031 27.171875 -32.25 L 27.171875 -24.59375 L 27.125 -24.546875 C 26.195312 -25.984375 24.226562 -26.9375 21.21875 -27.40625 C 20.34375 -27.550781 19.226562 -27.625 17.875 -27.625 C 16.519531 -27.625 15.191406 -27.367188 13.890625 -26.859375 C 12.597656 -26.359375 11.535156 -25.640625 10.703125 -24.703125 C 9.085938 -22.878906 8.28125 -20.285156 8.28125 -16.921875 C 8.28125 -13.003906 9.300781 -10.085938 11.34375 -8.171875 C 13.050781 -6.578125 15.300781 -5.78125 18.09375 -5.78125 C 21.257812 -5.78125 23.828125 -6.453125 25.796875 -7.796875 C 26.515625 -8.285156 27.125 -8.882812 27.625 -9.59375 L 27.703125 -9.546875 L 27.703125 -2.546875 C 25.148438 -0.429688 21.71875 0.625 17.40625 0.625 C 12.320312 0.625 8.335938 -0.988281 5.453125 -4.21875 C 2.679688 -7.300781 1.296875 -11.382812 1.296875 -16.46875 C 1.296875 -21.851562 2.8125 -26.097656 5.84375 -29.203125 C 8.914062 -32.316406 13.367188 -33.875 19.203125 -33.875 Z M 19.203125 -33.875 "/></g></g></g><g fill="#ffffff" fill-opacity="1"><g transform="translate(237.225181, 193.889895)"><g><path d="M 11.046875 0.15625 C 9.453125 0.0507812 7.550781 0 5.34375 0 L 4.546875 0 L 4.546875 -33.375 C 5.578125 -33.289062 6.3125 -33.25 6.75 -33.25 L 7.78125 -33.25 C 9.09375 -33.25 10.179688 -33.316406 11.046875 -33.453125 L 11.046875 -20.125 L 22.796875 -20.125 L 22.796875 -33.375 C 24.179688 -33.289062 25.523438 -33.25 26.828125 -33.25 C 28.140625 -33.25 28.960938 -33.316406 29.296875 -33.453125 L 29.296875 0.15625 C 28.503906 0.0507812 26.921875 0 24.546875 0 L 22.796875 0 L 22.796875 -14.125 L 11.046875 -14.125 Z M 11.046875 0.15625 "/></g></g></g><g fill="#ffffff" fill-opacity="1"><g transform="translate(278.490106, 193.889895)"><g><path d="M 6.71875 0.203125 C 5.289062 0.0664062 3.617188 0 1.703125 0 L -0.28125 0 L 10.59375 -30.484375 C 11.082031 -31.847656 11.328125 -32.640625 11.328125 -32.859375 C 11.328125 -33.085938 11.316406 -33.226562 11.296875 -33.28125 L 11.328125 -33.328125 C 12.410156 -33.273438 13.5625 -33.25 14.78125 -33.25 C 15.78125 -33.25 16.976562 -33.265625 18.375 -33.296875 L 18.40625 -33.25 C 18.363281 -33.1875 18.34375 -33.097656 18.34375 -32.984375 C 18.34375 -32.660156 18.59375 -31.816406 19.09375 -30.453125 L 30.203125 0.078125 C 29.867188 0.0546875 29.476562 0.046875 29.03125 0.046875 C 29.03125 0.046875 28.597656 0.03125 27.734375 0 C 27.316406 0 26.941406 0 26.609375 0 L 22.71875 0 L 20.375 -7.203125 L 9.078125 -7.203125 Z M 18.421875 -13.203125 L 14.65625 -24.828125 L 10.96875 -13.203125 Z M 18.421875 -13.203125 "/></g></g></g><g fill="#ffffff" fill-opacity="1"><g transform="translate(315.580378, 193.889895)"><g><path d="M 16.296875 0.15625 C 15.492188 0.0507812 13.4375 0 10.125 0 L 9.328125 0 L 9.328125 -27.65625 L 4.375 -27.65625 C 2.90625 -27.65625 2.035156 -27.578125 1.765625 -27.421875 C 1.503906 -27.273438 1.300781 -27.144531 1.15625 -27.03125 L 1.078125 -27.046875 L 1.078125 -33.453125 L 1.15625 -33.53125 C 1.695312 -33.34375 3.175781 -33.25 5.59375 -33.25 L 21.28125 -33.25 C 22.738281 -33.25 23.601562 -33.320312 23.875 -33.46875 C 24.144531 -33.625 24.351562 -33.757812 24.5 -33.875 L 24.578125 -33.859375 L 24.578125 -27.453125 L 24.5 -27.375 C 23.945312 -27.5625 22.460938 -27.65625 20.046875 -27.65625 L 16.296875 -27.65625 Z M 16.296875 0.15625 "/></g></g></g><g fill="#ffffff" fill-opacity="1"><g transform="translate(348.396005, 193.889895)"><g><path d="M 24.375 -31.40625 L 23.90625 -24.046875 L 23.71875 -24 C 22.488281 -25.851562 20.390625 -27.054688 17.421875 -27.609375 C 16.492188 -27.785156 15.597656 -27.875 14.734375 -27.875 C 13.878906 -27.875 13.144531 -27.796875 12.53125 -27.640625 C 11.925781 -27.492188 11.40625 -27.28125 10.96875 -27 C 10.050781 -26.40625 9.59375 -25.625 9.59375 -24.65625 C 9.59375 -23.382812 9.992188 -22.429688 10.796875 -21.796875 C 11.796875 -21.035156 13.453125 -20.5 15.765625 -20.1875 C 18.085938 -19.875 19.945312 -19.453125 21.34375 -18.921875 C 22.75 -18.390625 23.898438 -17.71875 24.796875 -16.90625 C 26.503906 -15.363281 27.359375 -13.195312 27.359375 -10.40625 C 27.359375 -6.738281 25.972656 -3.910156 23.203125 -1.921875 C 20.835938 -0.222656 17.851562 0.625 14.25 0.625 C 11.351562 0.625 8.488281 0.0703125 5.65625 -1.03125 C 4.71875 -1.394531 3.898438 -1.816406 3.203125 -2.296875 L 3.46875 -10.65625 L 3.578125 -10.71875 C 5.640625 -7.15625 9.03125 -5.375 13.75 -5.375 C 17.101562 -5.375 19.320312 -6.179688 20.40625 -7.796875 C 20.769531 -8.347656 20.953125 -8.960938 20.953125 -9.640625 C 20.953125 -10.316406 20.84375 -10.875 20.625 -11.3125 C 20.40625 -11.75 20.046875 -12.128906 19.546875 -12.453125 C 18.578125 -13.085938 16.953125 -13.507812 14.671875 -13.71875 C 12.390625 -13.9375 10.523438 -14.34375 9.078125 -14.9375 C 7.628906 -15.539062 6.46875 -16.285156 5.59375 -17.171875 C 4.03125 -18.773438 3.25 -21.007812 3.25 -23.875 C 3.25 -26.84375 4.289062 -29.242188 6.375 -31.078125 C 8.488281 -32.941406 11.34375 -33.875 14.9375 -33.875 C 18.53125 -33.875 21.675781 -33.050781 24.375 -31.40625 Z M 24.375 -31.40625 "/></g></g></g></svg>