<svg xmlns="http://www.w3.org/2000/svg" xmlns:xlink="http://www.w3.org/1999/xlink" width="500" zoomAndPan="magnify" viewBox="0 0 375 374.999991" height="500" preserveAspectRatio="xMidYMid meet" version="1.0"><defs><g/><clipPath id="19ffb2cb51"><path d="M 57.507812 148.746094 L 125.007812 148.746094 L 125.007812 203.496094 L 57.507812 203.496094 Z M 57.507812 148.746094 " clip-rule="nonzero"/></clipPath><clipPath id="5da76a2b7e"><path d="M 116.855469 178.894531 C 116.855469 176.644531 118.683594 174.832031 120.9375 174.832031 C 123.195312 174.832031 125.007812 176.652344 125.007812 178.894531 C 125.007812 181.144531 123.183594 182.957031 120.9375 182.957031 C 120.234375 182.957031 119.5625 182.78125 118.988281 182.464844 L 116.050781 186.78125 C 116.742188 187.386719 117.183594 188.277344 117.183594 189.28125 C 117.183594 191.113281 115.691406 192.601562 113.855469 192.601562 C 112.019531 192.601562 110.53125 191.113281 110.53125 189.28125 C 110.53125 188.027344 111.234375 186.925781 112.273438 186.371094 L 111.445312 184.277344 C 111.253906 184.320312 111.054688 184.339844 110.855469 184.339844 C 109.398438 184.339844 108.222656 183.15625 108.222656 181.710938 C 108.222656 180.253906 109.40625 179.074219 110.855469 179.074219 C 111.097656 179.074219 111.339844 179.105469 111.558594 179.167969 L 113.269531 175.375 C 112.847656 175.050781 112.578125 174.546875 112.578125 173.984375 C 112.578125 173.007812 113.363281 172.222656 114.339844 172.222656 C 114.769531 172.222656 115.15625 172.371094 115.460938 172.632812 L 118.523438 170.308594 C 118.304688 169.910156 118.179688 169.4375 118.179688 168.945312 C 118.179688 168.128906 118.535156 167.386719 119.089844 166.871094 L 117.203125 164.097656 C 116.847656 164.265625 116.449219 164.359375 116.027344 164.359375 C 115.042969 164.359375 114.179688 163.835938 113.710938 163.0625 L 110.835938 164.265625 C 110.835938 164.308594 110.84375 164.347656 110.84375 164.378906 C 110.84375 165.039062 110.363281 165.585938 109.734375 165.691406 L 109.34375 168.476562 C 110.308594 168.777344 111.003906 169.679688 111.003906 170.738281 C 111.003906 172.046875 109.933594 173.113281 108.621094 173.113281 C 107.738281 173.113281 106.972656 172.632812 106.554688 171.921875 L 103.144531 173.175781 C 103.144531 173.1875 103.144531 173.199219 103.144531 173.21875 C 103.144531 173.921875 102.578125 174.484375 101.875 174.484375 C 101.800781 174.484375 101.71875 174.476562 101.644531 174.464844 L 99.914062 177.605469 C 100.125 177.792969 100.300781 178.023438 100.417969 178.285156 L 105.199219 177.28125 C 105.273438 176.652344 105.808594 176.160156 106.460938 176.160156 C 107.164062 176.160156 107.730469 176.726562 107.730469 177.429688 C 107.730469 178.078125 107.238281 178.613281 106.605469 178.683594 L 105.199219 185.386719 C 106.691406 185.867188 107.761719 187.261719 107.761719 188.90625 C 107.761719 190.949219 106.101562 192.613281 104.046875 192.613281 C 103.984375 192.613281 103.921875 192.613281 103.859375 192.613281 L 103.300781 196.046875 C 103.804688 196.277344 104.164062 196.789062 104.164062 197.386719 C 104.164062 198.058594 103.722656 198.613281 103.113281 198.800781 L 103.164062 201.398438 C 103.554688 201.542969 103.835938 201.933594 103.835938 202.371094 C 103.835938 202.949219 103.363281 203.417969 102.789062 203.417969 C 102.210938 203.417969 101.738281 202.949219 101.738281 202.371094 C 101.738281 202.265625 101.761719 202.164062 101.792969 202.058594 L 99.957031 200.527344 C 99.726562 200.6875 99.441406 200.78125 99.125 200.78125 C 98.320312 200.78125 97.667969 200.132812 97.667969 199.324219 C 97.667969 198.75 98.003906 198.257812 98.488281 198.015625 L 98.171875 196.277344 C 98.152344 196.277344 98.121094 196.277344 98.097656 196.277344 C 96.628906 196.277344 95.433594 195.082031 95.433594 193.617188 C 95.433594 192.152344 96.628906 190.957031 98.097656 190.957031 C 98.800781 190.957031 99.429688 191.230469 99.902344 191.667969 L 100.921875 190.863281 C 100.554688 190.289062 100.34375 189.617188 100.34375 188.882812 C 100.34375 188.183594 100.542969 187.523438 100.890625 186.957031 L 98.289062 184.96875 C 98.089844 185.105469 97.847656 185.1875 97.585938 185.1875 C 97.300781 185.1875 97.039062 185.09375 96.828125 184.9375 L 95.183594 186.078125 C 95.476562 186.613281 95.632812 187.21875 95.632812 187.867188 C 95.632812 189.941406 93.953125 191.617188 91.878906 191.617188 C 90.113281 191.617188 88.644531 190.414062 88.238281 188.78125 L 85.425781 189.167969 C 85.394531 190.496094 84.304688 191.566406 82.960938 191.566406 C 81.597656 191.566406 80.496094 190.464844 80.496094 189.105469 C 80.496094 187.742188 81.597656 186.644531 82.960938 186.644531 C 83.210938 186.644531 83.453125 186.683594 83.671875 186.75 L 86.671875 180.683594 C 85.90625 180.171875 85.382812 179.335938 85.289062 178.371094 L 82.8125 178.285156 C 82.632812 178.746094 82.195312 179.074219 81.667969 179.074219 C 81.53125 179.074219 81.40625 179.050781 81.28125 179.007812 L 79.296875 181.574219 C 79.917969 182.183594 80.296875 183.019531 80.296875 183.953125 C 80.296875 185.796875 78.796875 187.292969 76.949219 187.292969 C 75.394531 187.292969 74.085938 186.222656 73.707031 184.789062 L 71.410156 185.09375 C 71.367188 186.402344 70.285156 187.460938 68.964844 187.460938 C 67.613281 187.460938 66.519531 186.371094 66.519531 185.019531 C 66.519531 183.742188 67.507812 182.695312 68.765625 182.589844 L 68.984375 179.910156 C 68.546875 179.722656 68.242188 179.28125 68.242188 178.769531 C 68.242188 178.089844 68.796875 177.523438 69.488281 177.523438 C 69.648438 177.523438 69.78125 177.554688 69.917969 177.597656 L 74.609375 171.835938 C 74.492188 171.648438 74.421875 171.417969 74.421875 171.175781 C 74.421875 170.839844 74.554688 170.539062 74.765625 170.316406 L 74.042969 168.914062 C 73.675781 169.050781 73.285156 169.125 72.878906 169.125 C 72.289062 169.125 71.734375 168.96875 71.261719 168.707031 L 68.441406 172.613281 C 68.734375 172.9375 68.914062 173.375 68.914062 173.859375 C 68.914062 174.882812 68.074219 175.722656 67.042969 175.722656 C 66.835938 175.722656 66.625 175.691406 66.4375 175.617188 L 63.488281 180.414062 C 64.160156 180.957031 64.578125 181.785156 64.578125 182.714844 C 64.578125 184.359375 63.246094 185.691406 61.601562 185.691406 C 59.953125 185.691406 58.621094 184.359375 58.621094 182.714844 C 58.621094 181.375 59.511719 180.246094 60.730469 179.867188 L 60.5 178.453125 C 60.476562 178.453125 60.46875 178.453125 60.445312 178.453125 C 58.914062 178.453125 57.675781 177.21875 57.675781 175.691406 C 57.675781 174.171875 58.902344 172.9375 60.425781 172.925781 L 60.59375 171.699219 C 58.820312 171.269531 57.496094 169.667969 57.496094 167.761719 C 57.496094 165.53125 59.3125 163.722656 61.546875 163.722656 C 63.40625 163.722656 64.976562 164.96875 65.449219 166.675781 L 69.53125 165.953125 C 69.53125 165.886719 69.53125 165.835938 69.53125 165.773438 C 69.53125 165.207031 69.679688 164.675781 69.917969 164.203125 L 66.910156 162.097656 C 66.574219 162.410156 66.121094 162.601562 65.628906 162.601562 C 64.589844 162.601562 63.738281 161.753906 63.738281 160.714844 C 63.738281 159.679688 64.589844 158.832031 65.628906 158.832031 C 66.667969 158.832031 67.515625 159.679688 67.515625 160.714844 C 67.515625 160.976562 67.464844 161.21875 67.371094 161.4375 L 70.382812 163.542969 C 70.8125 163.0625 71.386719 162.707031 72.027344 162.539062 L 72.019531 159.492188 C 70.882812 159.300781 70.023438 158.328125 70.023438 157.144531 C 70.023438 155.835938 71.09375 154.769531 72.40625 154.769531 C 73.183594 154.769531 73.863281 155.132812 74.292969 155.699219 L 78.101562 153.710938 C 78.007812 153.425781 77.957031 153.132812 77.957031 152.820312 C 77.957031 151.324219 79.171875 150.097656 80.683594 150.097656 C 82.183594 150.097656 83.410156 151.3125 83.410156 152.820312 C 83.410156 153.816406 82.875 154.695312 82.066406 155.164062 L 83.328125 158.265625 C 83.527344 158.222656 83.726562 158.191406 83.945312 158.191406 C 84.4375 158.191406 84.910156 158.328125 85.308594 158.570312 L 88.164062 155.113281 C 87.511719 154.441406 87.105469 153.53125 87.105469 152.527344 C 87.105469 150.484375 88.761719 148.820312 90.816406 148.820312 C 92.863281 148.820312 94.53125 150.472656 94.53125 152.527344 C 94.53125 153.4375 94.195312 154.277344 93.652344 154.914062 L 96.484375 157.886719 C 96.652344 157.804688 96.839844 157.761719 97.039062 157.761719 C 97.089844 157.761719 97.144531 157.761719 97.1875 157.773438 L 98.695312 154.515625 C 98.078125 154.085938 97.667969 153.375 97.667969 152.558594 C 97.667969 151.25 98.738281 150.179688 100.050781 150.179688 C 101.363281 150.179688 102.429688 151.25 102.429688 152.558594 C 102.429688 152.851562 102.378906 153.132812 102.285156 153.386719 L 104.6875 154.777344 C 105.285156 153.992188 106.238281 153.480469 107.300781 153.480469 C 109.113281 153.480469 110.582031 154.945312 110.582031 156.757812 C 110.582031 157.195312 110.5 157.617188 110.34375 157.992188 L 113.886719 159.972656 C 114.382812 159.332031 115.15625 158.914062 116.039062 158.914062 C 117.539062 158.914062 118.753906 160.128906 118.753906 161.625 C 118.753906 162.410156 118.421875 163.125 117.886719 163.617188 L 119.773438 166.390625 C 120.140625 166.214844 120.558594 166.109375 121 166.109375 C 122.554688 166.109375 123.8125 167.363281 123.8125 168.914062 C 123.8125 170.464844 122.554688 171.722656 121 171.722656 C 120.234375 171.722656 119.53125 171.417969 119.027344 170.914062 L 115.964844 173.238281 C 116.058594 173.460938 116.113281 173.699219 116.113281 173.953125 C 116.113281 174.925781 115.324219 175.710938 114.347656 175.710938 C 114.234375 175.710938 114.117188 175.699219 114.015625 175.679688 L 112.304688 179.46875 C 113.027344 179.941406 113.511719 180.757812 113.511719 181.679688 C 113.511719 182.644531 112.984375 183.492188 112.210938 183.953125 L 113.039062 186.046875 C 113.3125 185.972656 113.582031 185.941406 113.878906 185.941406 C 114.421875 185.941406 114.949219 186.078125 115.398438 186.308594 L 118.335938 181.992188 C 117.445312 181.25 116.878906 180.128906 116.878906 178.875 Z M 72.835938 162.453125 L 72.824219 159.5 C 73.949219 159.3125 74.796875 158.328125 74.796875 157.15625 C 74.796875 156.902344 74.757812 156.652344 74.683594 156.421875 L 78.492188 154.433594 C 78.984375 155.113281 79.792969 155.554688 80.695312 155.554688 C 80.914062 155.554688 81.125 155.53125 81.332031 155.480469 L 82.59375 158.578125 C 81.816406 159.039062 81.292969 159.886719 81.292969 160.863281 C 81.292969 162.035156 82.058594 163.03125 83.117188 163.386719 L 82.550781 166.738281 C 82.476562 166.738281 82.402344 166.726562 82.320312 166.726562 C 80.242188 166.726562 78.5625 168.402344 78.5625 170.476562 C 78.5625 172.546875 80.242188 174.222656 82.320312 174.222656 C 84.292969 174.222656 85.90625 172.707031 86.066406 170.777344 L 88.238281 170.714844 C 88.414062 171.1875 88.867188 171.523438 89.402344 171.523438 C 89.777344 171.523438 90.113281 171.355469 90.347656 171.082031 L 93.1875 172.214844 C 93.15625 172.382812 93.136719 172.546875 93.136719 172.714844 C 93.136719 174.035156 94.21875 175.113281 95.539062 175.113281 C 96.859375 175.113281 97.941406 174.035156 97.941406 172.714844 C 97.941406 172.140625 97.730469 171.605469 97.394531 171.1875 L 100.40625 167.710938 C 100.929688 168.054688 101.5625 168.265625 102.230469 168.265625 C 104.046875 168.265625 105.515625 166.800781 105.515625 164.988281 C 105.515625 163.175781 104.046875 161.710938 102.230469 161.710938 C 101.550781 161.710938 100.910156 161.917969 100.386719 162.277344 L 98.140625 159.710938 C 98.257812 159.523438 98.320312 159.292969 98.320312 159.050781 C 98.320312 158.683594 98.160156 158.347656 97.910156 158.109375 L 99.410156 154.851562 C 99.609375 154.902344 99.820312 154.933594 100.027344 154.933594 C 100.761719 154.933594 101.425781 154.601562 101.855469 154.078125 L 104.257812 155.46875 C 104.089844 155.867188 103.996094 156.296875 103.996094 156.757812 C 103.996094 158.570312 105.464844 160.035156 107.277344 160.035156 C 107.457031 160.035156 107.636719 160.023438 107.804688 159.992188 L 108.746094 163.25 C 108.390625 163.492188 108.160156 163.886719 108.160156 164.347656 C 108.160156 164.882812 108.472656 165.332031 108.914062 165.554688 L 108.527344 168.339844 C 107.246094 168.382812 106.21875 169.429688 106.21875 170.714844 C 106.21875 170.863281 106.230469 171.007812 106.261719 171.15625 L 102.851562 172.414062 C 102.621094 172.121094 102.261719 171.941406 101.863281 171.941406 C 101.160156 171.941406 100.59375 172.507812 100.59375 173.207031 C 100.59375 173.542969 100.722656 173.835938 100.929688 174.066406 L 99.199219 177.207031 C 99.023438 177.15625 98.832031 177.125 98.644531 177.125 C 97.574219 177.125 96.714844 177.984375 96.714844 179.050781 C 96.714844 180.121094 97.574219 180.976562 98.644531 180.976562 C 99.714844 180.976562 100.574219 180.121094 100.574219 179.050781 L 105.359375 178.035156 C 105.472656 178.222656 105.621094 178.382812 105.808594 178.484375 L 104.402344 185.1875 C 104.289062 185.175781 104.164062 185.167969 104.035156 185.167969 C 102.988281 185.167969 102.03125 185.605469 101.351562 186.308594 L 98.75 184.320312 C 98.792969 184.191406 98.824219 184.046875 98.824219 183.910156 C 98.824219 183.207031 98.257812 182.644531 97.554688 182.644531 C 96.851562 182.644531 96.285156 183.207031 96.285156 183.910156 C 96.285156 184.035156 96.304688 184.152344 96.335938 184.265625 L 94.6875 185.40625 C 93.996094 184.613281 92.980469 184.109375 91.847656 184.109375 C 89.769531 184.109375 88.089844 185.785156 88.089844 187.859375 C 88.089844 187.898438 88.089844 187.941406 88.089844 187.972656 L 85.277344 188.359375 C 85.121094 187.847656 84.785156 187.398438 84.355469 187.09375 L 87.355469 181.03125 C 87.671875 181.136719 88.015625 181.199219 88.375 181.199219 C 90.105469 181.199219 91.511719 179.796875 91.511719 178.066406 C 91.511719 176.339844 90.105469 174.945312 88.375 174.945312 C 86.820312 174.945312 85.53125 176.078125 85.277344 177.566406 L 82.800781 177.480469 C 82.644531 176.976562 82.183594 176.621094 81.636719 176.621094 C 80.964844 176.621094 80.410156 177.167969 80.410156 177.847656 C 80.410156 178.097656 80.484375 178.320312 80.609375 178.515625 L 78.628906 181.082031 C 78.125 180.78125 77.535156 180.613281 76.917969 180.613281 C 75.070312 180.613281 73.570312 182.109375 73.570312 183.953125 C 73.570312 183.960938 73.570312 183.984375 73.570312 183.992188 L 71.273438 184.296875 C 71.019531 183.492188 70.359375 182.851562 69.53125 182.644531 L 69.75 179.960938 C 70.296875 179.828125 70.695312 179.335938 70.695312 178.757812 C 70.695312 178.515625 70.621094 178.285156 70.507812 178.097656 L 75.195312 172.339844 C 75.332031 172.390625 75.480469 172.414062 75.625 172.414062 C 76.320312 172.414062 76.875 171.859375 76.875 171.167969 C 76.875 170.484375 76.320312 169.921875 75.625 169.921875 C 75.5625 169.921875 75.5 169.921875 75.449219 169.929688 L 74.722656 168.527344 C 75.605469 167.929688 76.191406 166.914062 76.191406 165.761719 C 76.191406 163.921875 74.691406 162.421875 72.847656 162.421875 C 72.824219 162.421875 72.816406 162.421875 72.804688 162.421875 Z M 83.335938 166.871094 L 83.902344 163.523438 C 83.914062 163.523438 83.9375 163.523438 83.945312 163.523438 C 84.910156 163.523438 85.75 163.007812 86.222656 162.246094 L 90.105469 163.847656 C 90.050781 164.066406 90.019531 164.285156 90.019531 164.527344 C 90.019531 166.054688 91.257812 167.292969 92.789062 167.292969 C 94.320312 167.292969 95.558594 166.054688 95.558594 164.527344 C 95.558594 163.785156 95.265625 163.113281 94.792969 162.609375 L 96.609375 160.277344 C 96.746094 160.328125 96.890625 160.347656 97.039062 160.347656 C 97.21875 160.347656 97.386719 160.316406 97.542969 160.246094 L 99.789062 162.808594 C 99.261719 163.386719 98.949219 164.160156 98.949219 165 C 98.949219 165.847656 99.273438 166.609375 99.796875 167.199219 L 96.789062 170.675781 C 96.421875 170.453125 96 170.328125 95.539062 170.328125 C 94.667969 170.328125 93.914062 170.789062 93.484375 171.480469 L 90.640625 170.347656 C 90.640625 170.328125 90.640625 170.308594 90.640625 170.285156 C 90.640625 169.59375 90.082031 169.039062 89.390625 169.039062 C 88.835938 169.039062 88.363281 169.40625 88.207031 169.921875 L 86.035156 169.984375 C 85.835938 168.484375 84.753906 167.28125 83.328125 166.871094 Z M 93.0625 155.480469 L 95.894531 158.453125 C 95.800781 158.632812 95.738281 158.839844 95.738281 159.0625 C 95.738281 159.324219 95.820312 159.574219 95.957031 159.785156 L 94.144531 162.117188 C 93.746094 161.886719 93.273438 161.761719 92.78125 161.761719 C 91.773438 161.761719 90.890625 162.308594 90.410156 163.101562 L 86.527344 161.492188 C 86.578125 161.292969 86.601562 161.070312 86.601562 160.851562 C 86.601562 160.171875 86.339844 159.554688 85.917969 159.082031 L 88.773438 155.625 C 89.359375 156.015625 90.050781 156.234375 90.808594 156.234375 C 91.65625 156.234375 92.433594 155.949219 93.0625 155.46875 Z M 109.523438 163.050781 L 108.578125 159.785156 C 109.125 159.554688 109.585938 159.175781 109.933594 158.703125 L 113.480469 160.683594 C 113.363281 160.976562 113.300781 161.300781 113.300781 161.636719 C 113.300781 161.867188 113.332031 162.085938 113.382812 162.308594 L 110.507812 163.511719 C 110.269531 163.230469 109.921875 163.050781 109.523438 163.039062 Z M 103.082031 192.464844 L 102.527344 195.902344 C 101.792969 195.984375 101.214844 196.613281 101.214844 197.367188 C 101.214844 198.058594 101.6875 198.632812 102.328125 198.800781 L 102.378906 201.398438 C 102.359375 201.410156 102.328125 201.417969 102.304688 201.429688 L 100.46875 199.902344 C 100.554688 199.722656 100.59375 199.523438 100.59375 199.3125 C 100.59375 198.558594 100.019531 197.941406 99.285156 197.867188 L 98.96875 196.128906 C 100.019531 195.773438 100.773438 194.78125 100.773438 193.617188 C 100.773438 193.136719 100.648438 192.6875 100.417969 192.296875 L 101.433594 191.492188 C 101.886719 191.941406 102.453125 192.289062 103.09375 192.457031 Z M 70.613281 168.246094 L 67.789062 172.152344 C 67.558594 172.054688 67.308594 171.992188 67.042969 171.992188 C 66.015625 171.992188 65.175781 172.832031 65.175781 173.859375 C 65.175781 174.382812 65.398438 174.863281 65.753906 175.199219 L 62.804688 179.992188 C 62.4375 179.828125 62.03125 179.742188 61.601562 179.742188 C 61.570312 179.742188 61.546875 179.742188 61.515625 179.742188 L 61.285156 178.328125 C 62.40625 177.972656 63.214844 176.925781 63.214844 175.699219 C 63.214844 174.445312 62.375 173.386719 61.222656 173.050781 L 61.390625 171.824219 C 61.441406 171.824219 61.496094 171.824219 61.558594 171.824219 C 63.792969 171.824219 65.609375 170.015625 65.609375 167.785156 C 65.609375 167.679688 65.609375 167.585938 65.597656 167.480469 L 69.679688 166.769531 C 69.855469 167.34375 70.183594 167.855469 70.613281 168.253906 Z M 73.675781 176.390625 C 73.675781 175.082031 74.746094 174.015625 76.058594 174.015625 C 77.367188 174.015625 78.4375 175.082031 78.4375 176.390625 C 78.4375 177.699219 77.367188 178.769531 76.058594 178.769531 C 74.746094 178.769531 73.675781 177.699219 73.675781 176.390625 Z M 76.226562 160.441406 C 76.226562 159.753906 76.78125 159.195312 77.472656 159.195312 C 78.164062 159.195312 78.722656 159.753906 78.722656 160.441406 C 78.722656 161.125 78.164062 161.691406 77.472656 161.691406 C 76.792969 161.691406 76.226562 161.132812 76.226562 160.441406 Z M 76.226562 160.441406 " clip-rule="evenodd"/></clipPath><linearGradient x1="39.985145" gradientTransform="matrix(1.049114, 0, 0, 1.047167, 57.508445, 148.830276)" y1="-0.154483" x2="39.673595" gradientUnits="userSpaceOnUse" y2="52.365337" id="b88437827d"><stop stop-opacity="1" stop-color="rgb(100%, 34.098816%, 34.098816%)" offset="0"/><stop stop-opacity="1" stop-color="rgb(100%, 34.098816%, 34.098816%)" offset="0.00726688"/><stop stop-opacity="1" stop-color="rgb(100%, 34.098816%, 34.098816%)" offset="0.0625"/><stop stop-opacity="1" stop-color="rgb(100%, 34.098816%, 34.098816%)" offset="0.09375"/><stop stop-opacity="1" stop-color="rgb(100%, 34.098816%, 34.098816%)" offset="0.109375"/><stop stop-opacity="1" stop-color="rgb(99.833679%, 34.033203%, 34.251404%)" offset="0.117187"/><stop stop-opacity="1" stop-color="rgb(99.371338%, 33.850098%, 34.675598%)" offset="0.121094"/><stop stop-opacity="1" stop-color="rgb(99.076843%, 33.732605%, 34.94873%)" offset="0.125"/><stop stop-opacity="1" stop-color="rgb(98.780823%, 33.615112%, 35.220337%)" offset="0.128906"/><stop stop-opacity="1" stop-color="rgb(98.486328%, 33.49762%, 35.491943%)" offset="0.132812"/><stop stop-opacity="1" stop-color="rgb(98.190308%, 33.380127%, 35.76355%)" offset="0.136719"/><stop stop-opacity="1" stop-color="rgb(97.895813%, 33.262634%, 36.036682%)" offset="0.140625"/><stop stop-opacity="1" stop-color="rgb(97.599792%, 33.145142%, 36.308289%)" offset="0.144531"/><stop stop-opacity="1" stop-color="rgb(97.305298%, 33.027649%, 36.579895%)" offset="0.148437"/><stop stop-opacity="1" stop-color="rgb(97.009277%, 32.910156%, 36.851501%)" offset="0.152344"/><stop stop-opacity="1" stop-color="rgb(96.714783%, 32.792664%, 37.123108%)" offset="0.15625"/><stop stop-opacity="1" stop-color="rgb(96.418762%, 32.675171%, 37.394714%)" offset="0.160156"/><stop stop-opacity="1" stop-color="rgb(96.124268%, 32.557678%, 37.667847%)" offset="0.164062"/><stop stop-opacity="1" stop-color="rgb(95.828247%, 32.440186%, 37.939453%)" offset="0.167969"/><stop stop-opacity="1" stop-color="rgb(95.532227%, 32.322693%, 38.21106%)" offset="0.171875"/><stop stop-opacity="1" stop-color="rgb(95.236206%, 32.2052%, 38.482666%)" offset="0.175781"/><stop stop-opacity="1" stop-color="rgb(94.941711%, 32.087708%, 38.755798%)" offset="0.179687"/><stop stop-opacity="1" stop-color="rgb(94.645691%, 31.970215%, 39.027405%)" offset="0.183594"/><stop stop-opacity="1" stop-color="rgb(94.351196%, 31.852722%, 39.299011%)" offset="0.1875"/><stop stop-opacity="1" stop-color="rgb(94.055176%, 31.735229%, 39.570618%)" offset="0.191406"/><stop stop-opacity="1" stop-color="rgb(93.760681%, 31.617737%, 39.84375%)" offset="0.195312"/><stop stop-opacity="1" stop-color="rgb(93.464661%, 31.500244%, 40.115356%)" offset="0.199219"/><stop stop-opacity="1" stop-color="rgb(93.170166%, 31.382751%, 40.386963%)" offset="0.203125"/><stop stop-opacity="1" stop-color="rgb(92.874146%, 31.265259%, 40.658569%)" offset="0.207031"/><stop stop-opacity="1" stop-color="rgb(92.579651%, 31.147766%, 40.931702%)" offset="0.210938"/><stop stop-opacity="1" stop-color="rgb(92.28363%, 31.030273%, 41.203308%)" offset="0.214844"/><stop stop-opacity="1" stop-color="rgb(91.989136%, 30.912781%, 41.474915%)" offset="0.21875"/><stop stop-opacity="1" stop-color="rgb(91.693115%, 30.795288%, 41.746521%)" offset="0.222656"/><stop stop-opacity="1" stop-color="rgb(91.398621%, 30.677795%, 42.019653%)" offset="0.226562"/><stop stop-opacity="1" stop-color="rgb(91.1026%, 30.560303%, 42.29126%)" offset="0.230469"/><stop stop-opacity="1" stop-color="rgb(90.80658%, 30.44281%, 42.562866%)" offset="0.234375"/><stop stop-opacity="1" stop-color="rgb(90.510559%, 30.325317%, 42.834473%)" offset="0.238281"/><stop stop-opacity="1" stop-color="rgb(90.216064%, 30.207825%, 43.106079%)" offset="0.242187"/><stop stop-opacity="1" stop-color="rgb(89.920044%, 30.090332%, 43.377686%)" offset="0.246094"/><stop stop-opacity="1" stop-color="rgb(89.625549%, 29.972839%, 43.650818%)" offset="0.25"/><stop stop-opacity="1" stop-color="rgb(89.329529%, 29.855347%, 43.922424%)" offset="0.253906"/><stop stop-opacity="1" stop-color="rgb(89.035034%, 29.737854%, 44.194031%)" offset="0.257812"/><stop stop-opacity="1" stop-color="rgb(88.739014%, 29.620361%, 44.465637%)" offset="0.261719"/><stop stop-opacity="1" stop-color="rgb(88.444519%, 29.502869%, 44.73877%)" offset="0.265625"/><stop stop-opacity="1" stop-color="rgb(88.148499%, 29.385376%, 45.010376%)" offset="0.269531"/><stop stop-opacity="1" stop-color="rgb(87.854004%, 29.267883%, 45.281982%)" offset="0.273437"/><stop stop-opacity="1" stop-color="rgb(87.557983%, 29.150391%, 45.553589%)" offset="0.277344"/><stop stop-opacity="1" stop-color="rgb(87.263489%, 29.032898%, 45.826721%)" offset="0.28125"/><stop stop-opacity="1" stop-color="rgb(86.967468%, 28.915405%, 46.098328%)" offset="0.285156"/><stop stop-opacity="1" stop-color="rgb(86.672974%, 28.797913%, 46.369934%)" offset="0.289062"/><stop stop-opacity="1" stop-color="rgb(86.376953%, 28.68042%, 46.641541%)" offset="0.292969"/><stop stop-opacity="1" stop-color="rgb(86.080933%, 28.562927%, 46.914673%)" offset="0.296875"/><stop stop-opacity="1" stop-color="rgb(85.784912%, 28.445435%, 47.186279%)" offset="0.300781"/><stop stop-opacity="1" stop-color="rgb(85.490417%, 28.327942%, 47.457886%)" offset="0.304688"/><stop stop-opacity="1" stop-color="rgb(85.194397%, 28.210449%, 47.729492%)" offset="0.308594"/><stop stop-opacity="1" stop-color="rgb(84.899902%, 28.092957%, 48.001099%)" offset="0.3125"/><stop stop-opacity="1" stop-color="rgb(84.603882%, 27.975464%, 48.272705%)" offset="0.316406"/><stop stop-opacity="1" stop-color="rgb(84.309387%, 27.857971%, 48.545837%)" offset="0.320312"/><stop stop-opacity="1" stop-color="rgb(84.013367%, 27.740479%, 48.817444%)" offset="0.324219"/><stop stop-opacity="1" stop-color="rgb(83.718872%, 27.622986%, 49.08905%)" offset="0.328125"/><stop stop-opacity="1" stop-color="rgb(83.422852%, 27.505493%, 49.360657%)" offset="0.332031"/><stop stop-opacity="1" stop-color="rgb(83.128357%, 27.388%, 49.633789%)" offset="0.335938"/><stop stop-opacity="1" stop-color="rgb(82.832336%, 27.270508%, 49.905396%)" offset="0.339844"/><stop stop-opacity="1" stop-color="rgb(82.537842%, 27.153015%, 50.177002%)" offset="0.34375"/><stop stop-opacity="1" stop-color="rgb(82.241821%, 27.035522%, 50.448608%)" offset="0.347656"/><stop stop-opacity="1" stop-color="rgb(81.947327%, 26.91803%, 50.721741%)" offset="0.351563"/><stop stop-opacity="1" stop-color="rgb(81.651306%, 26.800537%, 50.993347%)" offset="0.355469"/><stop stop-opacity="1" stop-color="rgb(81.355286%, 26.683044%, 51.264954%)" offset="0.359375"/><stop stop-opacity="1" stop-color="rgb(81.059265%, 26.565552%, 51.53656%)" offset="0.363281"/><stop stop-opacity="1" stop-color="rgb(80.764771%, 26.448059%, 51.809692%)" offset="0.367188"/><stop stop-opacity="1" stop-color="rgb(80.46875%, 26.330566%, 52.081299%)" offset="0.371094"/><stop stop-opacity="1" stop-color="rgb(80.174255%, 26.213074%, 52.352905%)" offset="0.375"/><stop stop-opacity="1" stop-color="rgb(79.878235%, 26.095581%, 52.624512%)" offset="0.378906"/><stop stop-opacity="1" stop-color="rgb(79.58374%, 25.978088%, 52.897644%)" offset="0.382812"/><stop stop-opacity="1" stop-color="rgb(79.28772%, 25.860596%, 53.16925%)" offset="0.386719"/><stop stop-opacity="1" stop-color="rgb(78.993225%, 25.743103%, 53.440857%)" offset="0.390625"/><stop stop-opacity="1" stop-color="rgb(78.697205%, 25.62561%, 53.712463%)" offset="0.394531"/><stop stop-opacity="1" stop-color="rgb(78.40271%, 25.508118%, 53.98407%)" offset="0.398437"/><stop stop-opacity="1" stop-color="rgb(78.106689%, 25.390625%, 54.255676%)" offset="0.402344"/><stop stop-opacity="1" stop-color="rgb(77.812195%, 25.273132%, 54.528809%)" offset="0.40625"/><stop stop-opacity="1" stop-color="rgb(77.516174%, 25.15564%, 54.800415%)" offset="0.410156"/><stop stop-opacity="1" stop-color="rgb(77.22168%, 25.038147%, 55.072021%)" offset="0.414062"/><stop stop-opacity="1" stop-color="rgb(76.925659%, 24.920654%, 55.343628%)" offset="0.417969"/><stop stop-opacity="1" stop-color="rgb(76.629639%, 24.803162%, 55.61676%)" offset="0.421875"/><stop stop-opacity="1" stop-color="rgb(76.333618%, 24.685669%, 55.888367%)" offset="0.425781"/><stop stop-opacity="1" stop-color="rgb(76.039124%, 24.568176%, 56.159973%)" offset="0.429688"/><stop stop-opacity="1" stop-color="rgb(75.743103%, 24.450684%, 56.43158%)" offset="0.433594"/><stop stop-opacity="1" stop-color="rgb(75.448608%, 24.333191%, 56.704712%)" offset="0.4375"/><stop stop-opacity="1" stop-color="rgb(75.152588%, 24.215698%, 56.976318%)" offset="0.441406"/><stop stop-opacity="1" stop-color="rgb(74.858093%, 24.098206%, 57.247925%)" offset="0.445312"/><stop stop-opacity="1" stop-color="rgb(74.562073%, 23.980713%, 57.519531%)" offset="0.449219"/><stop stop-opacity="1" stop-color="rgb(74.267578%, 23.86322%, 57.792664%)" offset="0.453125"/><stop stop-opacity="1" stop-color="rgb(73.971558%, 23.745728%, 58.06427%)" offset="0.457031"/><stop stop-opacity="1" stop-color="rgb(73.677063%, 23.628235%, 58.335876%)" offset="0.460938"/><stop stop-opacity="1" stop-color="rgb(73.381042%, 23.510742%, 58.607483%)" offset="0.464844"/><stop stop-opacity="1" stop-color="rgb(73.086548%, 23.39325%, 58.879089%)" offset="0.46875"/><stop stop-opacity="1" stop-color="rgb(72.790527%, 23.275757%, 59.150696%)" offset="0.472656"/><stop stop-opacity="1" stop-color="rgb(72.496033%, 23.158264%, 59.423828%)" offset="0.476562"/><stop stop-opacity="1" stop-color="rgb(72.200012%, 23.040771%, 59.695435%)" offset="0.480469"/><stop stop-opacity="1" stop-color="rgb(71.903992%, 22.923279%, 59.967041%)" offset="0.484375"/><stop stop-opacity="1" stop-color="rgb(71.607971%, 22.805786%, 60.238647%)" offset="0.488281"/><stop stop-opacity="1" stop-color="rgb(71.313477%, 22.688293%, 60.51178%)" offset="0.492188"/><stop stop-opacity="1" stop-color="rgb(71.017456%, 22.570801%, 60.783386%)" offset="0.496094"/><stop stop-opacity="1" stop-color="rgb(70.722961%, 22.453308%, 61.054993%)" offset="0.5"/><stop stop-opacity="1" stop-color="rgb(70.426941%, 22.335815%, 61.326599%)" offset="0.503906"/><stop stop-opacity="1" stop-color="rgb(70.132446%, 22.218323%, 61.599731%)" offset="0.507812"/><stop stop-opacity="1" stop-color="rgb(69.836426%, 22.10083%, 61.871338%)" offset="0.511719"/><stop stop-opacity="1" stop-color="rgb(69.541931%, 21.983337%, 62.142944%)" offset="0.515625"/><stop stop-opacity="1" stop-color="rgb(69.245911%, 21.865845%, 62.414551%)" offset="0.519531"/><stop stop-opacity="1" stop-color="rgb(68.951416%, 21.748352%, 62.687683%)" offset="0.523438"/><stop stop-opacity="1" stop-color="rgb(68.655396%, 21.630859%, 62.95929%)" offset="0.527344"/><stop stop-opacity="1" stop-color="rgb(68.360901%, 21.513367%, 63.230896%)" offset="0.53125"/><stop stop-opacity="1" stop-color="rgb(68.06488%, 21.395874%, 63.502502%)" offset="0.535156"/><stop stop-opacity="1" stop-color="rgb(67.770386%, 21.278381%, 63.775635%)" offset="0.539062"/><stop stop-opacity="1" stop-color="rgb(67.474365%, 21.160889%, 64.047241%)" offset="0.542969"/><stop stop-opacity="1" stop-color="rgb(67.178345%, 21.043396%, 64.318848%)" offset="0.546875"/><stop stop-opacity="1" stop-color="rgb(66.882324%, 20.925903%, 64.590454%)" offset="0.550781"/><stop stop-opacity="1" stop-color="rgb(66.58783%, 20.808411%, 64.862061%)" offset="0.554688"/><stop stop-opacity="1" stop-color="rgb(66.291809%, 20.690918%, 65.133667%)" offset="0.558594"/><stop stop-opacity="1" stop-color="rgb(65.997314%, 20.573425%, 65.406799%)" offset="0.5625"/><stop stop-opacity="1" stop-color="rgb(65.701294%, 20.455933%, 65.678406%)" offset="0.566406"/><stop stop-opacity="1" stop-color="rgb(65.406799%, 20.33844%, 65.950012%)" offset="0.570312"/><stop stop-opacity="1" stop-color="rgb(65.110779%, 20.220947%, 66.221619%)" offset="0.574219"/><stop stop-opacity="1" stop-color="rgb(64.816284%, 20.103455%, 66.494751%)" offset="0.578125"/><stop stop-opacity="1" stop-color="rgb(64.520264%, 19.985962%, 66.766357%)" offset="0.582031"/><stop stop-opacity="1" stop-color="rgb(64.225769%, 19.868469%, 67.037964%)" offset="0.585938"/><stop stop-opacity="1" stop-color="rgb(63.929749%, 19.750977%, 67.30957%)" offset="0.589844"/><stop stop-opacity="1" stop-color="rgb(63.635254%, 19.633484%, 67.582703%)" offset="0.59375"/><stop stop-opacity="1" stop-color="rgb(63.339233%, 19.515991%, 67.854309%)" offset="0.597656"/><stop stop-opacity="1" stop-color="rgb(63.044739%, 19.398499%, 68.125916%)" offset="0.601562"/><stop stop-opacity="1" stop-color="rgb(62.748718%, 19.281006%, 68.397522%)" offset="0.605469"/><stop stop-opacity="1" stop-color="rgb(62.452698%, 19.163513%, 68.670654%)" offset="0.609375"/><stop stop-opacity="1" stop-color="rgb(62.156677%, 19.046021%, 68.942261%)" offset="0.613281"/><stop stop-opacity="1" stop-color="rgb(61.862183%, 18.928528%, 69.213867%)" offset="0.617188"/><stop stop-opacity="1" stop-color="rgb(61.566162%, 18.811035%, 69.485474%)" offset="0.621094"/><stop stop-opacity="1" stop-color="rgb(61.271667%, 18.693542%, 69.75708%)" offset="0.625"/><stop stop-opacity="1" stop-color="rgb(60.975647%, 18.57605%, 70.028687%)" offset="0.628906"/><stop stop-opacity="1" stop-color="rgb(60.681152%, 18.458557%, 70.301819%)" offset="0.632812"/><stop stop-opacity="1" stop-color="rgb(60.385132%, 18.341064%, 70.573425%)" offset="0.636719"/><stop stop-opacity="1" stop-color="rgb(60.090637%, 18.223572%, 70.845032%)" offset="0.640625"/><stop stop-opacity="1" stop-color="rgb(59.794617%, 18.106079%, 71.116638%)" offset="0.644531"/><stop stop-opacity="1" stop-color="rgb(59.500122%, 17.988586%, 71.389771%)" offset="0.648438"/><stop stop-opacity="1" stop-color="rgb(59.204102%, 17.871094%, 71.661377%)" offset="0.652344"/><stop stop-opacity="1" stop-color="rgb(58.909607%, 17.755127%, 71.932983%)" offset="0.65625"/><stop stop-opacity="1" stop-color="rgb(58.613586%, 17.637634%, 72.20459%)" offset="0.660156"/><stop stop-opacity="1" stop-color="rgb(58.319092%, 17.520142%, 72.477722%)" offset="0.664062"/><stop stop-opacity="1" stop-color="rgb(58.023071%, 17.402649%, 72.749329%)" offset="0.667969"/><stop stop-opacity="1" stop-color="rgb(57.727051%, 17.285156%, 73.020935%)" offset="0.671875"/><stop stop-opacity="1" stop-color="rgb(57.43103%, 17.167664%, 73.292542%)" offset="0.675781"/><stop stop-opacity="1" stop-color="rgb(57.136536%, 17.050171%, 73.565674%)" offset="0.679688"/><stop stop-opacity="1" stop-color="rgb(56.840515%, 16.932678%, 73.83728%)" offset="0.683594"/><stop stop-opacity="1" stop-color="rgb(56.546021%, 16.815186%, 74.108887%)" offset="0.6875"/><stop stop-opacity="1" stop-color="rgb(56.25%, 16.697693%, 74.380493%)" offset="0.691406"/><stop stop-opacity="1" stop-color="rgb(55.955505%, 16.5802%, 74.6521%)" offset="0.695312"/><stop stop-opacity="1" stop-color="rgb(55.659485%, 16.462708%, 74.923706%)" offset="0.699219"/><stop stop-opacity="1" stop-color="rgb(55.36499%, 16.345215%, 75.196838%)" offset="0.703125"/><stop stop-opacity="1" stop-color="rgb(55.06897%, 16.227722%, 75.468445%)" offset="0.707031"/><stop stop-opacity="1" stop-color="rgb(54.774475%, 16.110229%, 75.740051%)" offset="0.710938"/><stop stop-opacity="1" stop-color="rgb(54.478455%, 15.992737%, 76.011658%)" offset="0.714844"/><stop stop-opacity="1" stop-color="rgb(54.18396%, 15.875244%, 76.28479%)" offset="0.71875"/><stop stop-opacity="1" stop-color="rgb(53.887939%, 15.757751%, 76.556396%)" offset="0.722656"/><stop stop-opacity="1" stop-color="rgb(53.593445%, 15.640259%, 76.828003%)" offset="0.726562"/><stop stop-opacity="1" stop-color="rgb(53.297424%, 15.522766%, 77.099609%)" offset="0.730469"/><stop stop-opacity="1" stop-color="rgb(53.001404%, 15.405273%, 77.372742%)" offset="0.734375"/><stop stop-opacity="1" stop-color="rgb(52.705383%, 15.287781%, 77.644348%)" offset="0.738281"/><stop stop-opacity="1" stop-color="rgb(52.410889%, 15.170288%, 77.915955%)" offset="0.742188"/><stop stop-opacity="1" stop-color="rgb(52.114868%, 15.052795%, 78.187561%)" offset="0.746094"/><stop stop-opacity="1" stop-color="rgb(51.820374%, 14.935303%, 78.460693%)" offset="0.75"/><stop stop-opacity="1" stop-color="rgb(51.524353%, 14.81781%, 78.7323%)" offset="0.753906"/><stop stop-opacity="1" stop-color="rgb(51.229858%, 14.700317%, 79.003906%)" offset="0.757812"/><stop stop-opacity="1" stop-color="rgb(50.933838%, 14.582825%, 79.275513%)" offset="0.761719"/><stop stop-opacity="1" stop-color="rgb(50.639343%, 14.465332%, 79.548645%)" offset="0.765625"/><stop stop-opacity="1" stop-color="rgb(50.343323%, 14.347839%, 79.820251%)" offset="0.769531"/><stop stop-opacity="1" stop-color="rgb(50.048828%, 14.230347%, 80.091858%)" offset="0.773438"/><stop stop-opacity="1" stop-color="rgb(49.752808%, 14.112854%, 80.363464%)" offset="0.777344"/><stop stop-opacity="1" stop-color="rgb(49.458313%, 13.995361%, 80.635071%)" offset="0.78125"/><stop stop-opacity="1" stop-color="rgb(49.162292%, 13.877869%, 80.906677%)" offset="0.785156"/><stop stop-opacity="1" stop-color="rgb(48.867798%, 13.760376%, 81.17981%)" offset="0.789062"/><stop stop-opacity="1" stop-color="rgb(48.571777%, 13.642883%, 81.451416%)" offset="0.792969"/><stop stop-opacity="1" stop-color="rgb(48.275757%, 13.525391%, 81.723022%)" offset="0.796875"/><stop stop-opacity="1" stop-color="rgb(47.979736%, 13.407898%, 81.994629%)" offset="0.800781"/><stop stop-opacity="1" stop-color="rgb(47.685242%, 13.290405%, 82.267761%)" offset="0.804688"/><stop stop-opacity="1" stop-color="rgb(47.389221%, 13.172913%, 82.539368%)" offset="0.808594"/><stop stop-opacity="1" stop-color="rgb(47.094727%, 13.05542%, 82.810974%)" offset="0.8125"/><stop stop-opacity="1" stop-color="rgb(46.798706%, 12.937927%, 83.082581%)" offset="0.816406"/><stop stop-opacity="1" stop-color="rgb(46.504211%, 12.820435%, 83.355713%)" offset="0.820312"/><stop stop-opacity="1" stop-color="rgb(46.208191%, 12.702942%, 83.627319%)" offset="0.824219"/><stop stop-opacity="1" stop-color="rgb(45.913696%, 12.585449%, 83.898926%)" offset="0.828125"/><stop stop-opacity="1" stop-color="rgb(45.617676%, 12.467957%, 84.170532%)" offset="0.832031"/><stop stop-opacity="1" stop-color="rgb(45.323181%, 12.350464%, 84.443665%)" offset="0.835938"/><stop stop-opacity="1" stop-color="rgb(45.027161%, 12.232971%, 84.715271%)" offset="0.839844"/><stop stop-opacity="1" stop-color="rgb(44.732666%, 12.115479%, 84.986877%)" offset="0.84375"/><stop stop-opacity="1" stop-color="rgb(44.436646%, 11.997986%, 85.258484%)" offset="0.847656"/><stop stop-opacity="1" stop-color="rgb(44.142151%, 11.880493%, 85.53009%)" offset="0.851562"/><stop stop-opacity="1" stop-color="rgb(43.84613%, 11.763%, 85.801697%)" offset="0.855469"/><stop stop-opacity="1" stop-color="rgb(43.55011%, 11.645508%, 86.074829%)" offset="0.859375"/><stop stop-opacity="1" stop-color="rgb(43.254089%, 11.528015%, 86.346436%)" offset="0.863281"/><stop stop-opacity="1" stop-color="rgb(42.959595%, 11.410522%, 86.618042%)" offset="0.867188"/><stop stop-opacity="1" stop-color="rgb(42.663574%, 11.29303%, 86.889648%)" offset="0.871094"/><stop stop-opacity="1" stop-color="rgb(42.36908%, 11.175537%, 87.162781%)" offset="0.875"/><stop stop-opacity="1" stop-color="rgb(42.073059%, 11.058044%, 87.434387%)" offset="0.878906"/><stop stop-opacity="1" stop-color="rgb(41.778564%, 10.940552%, 87.705994%)" offset="0.882812"/><stop stop-opacity="1" stop-color="rgb(41.482544%, 10.823059%, 87.9776%)" offset="0.886719"/><stop stop-opacity="1" stop-color="rgb(41.188049%, 10.705566%, 88.250732%)" offset="0.890625"/><stop stop-opacity="1" stop-color="rgb(40.892029%, 10.588074%, 88.522339%)" offset="0.894531"/><stop stop-opacity="1" stop-color="rgb(40.597534%, 10.470581%, 88.793945%)" offset="0.898438"/><stop stop-opacity="1" stop-color="rgb(40.301514%, 10.353088%, 89.065552%)" offset="0.902344"/><stop stop-opacity="1" stop-color="rgb(40.007019%, 10.235596%, 89.338684%)" offset="0.90625"/><stop stop-opacity="1" stop-color="rgb(39.710999%, 10.118103%, 89.610291%)" offset="0.910156"/><stop stop-opacity="1" stop-color="rgb(39.416504%, 10.00061%, 89.881897%)" offset="0.914062"/><stop stop-opacity="1" stop-color="rgb(39.120483%, 9.883118%, 90.153503%)" offset="0.917969"/><stop stop-opacity="1" stop-color="rgb(38.824463%, 9.765625%, 90.426636%)" offset="0.921875"/><stop stop-opacity="1" stop-color="rgb(38.528442%, 9.648132%, 90.698242%)" offset="0.925781"/><stop stop-opacity="1" stop-color="rgb(38.233948%, 9.53064%, 90.969849%)" offset="0.929688"/><stop stop-opacity="1" stop-color="rgb(37.937927%, 9.413147%, 91.241455%)" offset="0.933594"/><stop stop-opacity="1" stop-color="rgb(37.643433%, 9.295654%, 91.513062%)" offset="0.9375"/><stop stop-opacity="1" stop-color="rgb(37.347412%, 9.178162%, 91.784668%)" offset="0.941406"/><stop stop-opacity="1" stop-color="rgb(37.052917%, 9.060669%, 92.0578%)" offset="0.945312"/><stop stop-opacity="1" stop-color="rgb(36.975098%, 9.030151%, 92.127991%)" offset="0.953125"/><stop stop-opacity="1" stop-color="rgb(36.898804%, 8.999634%, 92.199707%)" offset="0.96875"/><stop stop-opacity="1" stop-color="rgb(36.898804%, 8.999634%, 92.199707%)" offset="0.992733"/><stop stop-opacity="1" stop-color="rgb(36.898804%, 8.999634%, 92.199707%)" offset="1"/></linearGradient></defs><g clip-path="url(#19ffb2cb51)"><g clip-path="url(#5da76a2b7e)"><path fill="url(#b88437827d)" d="M 57.507812 148.820312 L 57.507812 203.417969 L 125.007812 203.417969 L 125.007812 148.820312 Z M 57.507812 148.820312 " fill-rule="nonzero"/></g></g><g fill="#d9d9d9" fill-opacity="1"><g transform="translate(128.592323, 184.538483)"><g><path d="M 2.78125 0 C 2.832031 -0.34375 2.859375 -0.722656 2.859375 -1.140625 L 2.859375 -20.390625 L 5.9375 -20.390625 L 14.0625 -7.609375 L 14.0625 -19.34375 C 14.0625 -19.90625 14.007812 -20.253906 13.90625 -20.390625 L 18.046875 -20.390625 C 17.992188 -19.972656 17.96875 -19.519531 17.96875 -19.03125 L 17.96875 0 L 14.78125 0 L 6.78125 -12.28125 L 6.78125 0 Z M 2.78125 0 "/></g></g></g><g fill="#d9d9d9" fill-opacity="1"><g transform="translate(153.821199, 184.538483)"><g><path d="M 4.125 0.125 C 3.25 0.0390625 2.222656 0 1.046875 0 L -0.171875 0 L 6.5 -18.6875 C 6.789062 -19.519531 6.9375 -20.003906 6.9375 -20.140625 C 6.9375 -20.285156 6.929688 -20.375 6.921875 -20.40625 L 6.9375 -20.4375 C 7.601562 -20.40625 8.3125 -20.390625 9.0625 -20.390625 C 9.675781 -20.390625 10.410156 -20.398438 11.265625 -20.421875 L 11.28125 -20.390625 C 11.257812 -20.347656 11.25 -20.289062 11.25 -20.21875 C 11.25 -20.019531 11.398438 -19.503906 11.703125 -18.671875 L 18.515625 0.046875 C 18.304688 0.0351562 18.066406 0.03125 17.796875 0.03125 C 17.796875 0.03125 17.53125 0.0195312 17 0 C 16.738281 0 16.507812 0 16.3125 0 L 13.9375 0 L 12.484375 -4.421875 L 5.5625 -4.421875 Z M 11.296875 -8.09375 L 8.984375 -15.21875 L 6.734375 -8.09375 Z M 11.296875 -8.09375 "/></g></g></g><g fill="#d9d9d9" fill-opacity="1"><g transform="translate(176.566638, 184.538483)"><g><path d="M 14.9375 -19.25 L 14.65625 -14.75 L 14.546875 -14.71875 C 13.785156 -15.851562 12.5 -16.585938 10.6875 -16.921875 C 10.113281 -17.035156 9.5625 -17.09375 9.03125 -17.09375 C 8.507812 -17.09375 8.0625 -17.046875 7.6875 -16.953125 C 7.3125 -16.859375 6.992188 -16.722656 6.734375 -16.546875 C 6.171875 -16.179688 5.890625 -15.703125 5.890625 -15.109375 C 5.890625 -14.335938 6.132812 -13.753906 6.625 -13.359375 C 7.238281 -12.890625 8.253906 -12.5625 9.671875 -12.375 C 11.085938 -12.1875 12.222656 -11.925781 13.078125 -11.59375 C 13.941406 -11.269531 14.648438 -10.859375 15.203125 -10.359375 C 16.242188 -9.421875 16.765625 -8.09375 16.765625 -6.375 C 16.765625 -4.125 15.914062 -2.394531 14.21875 -1.1875 C 12.769531 -0.132812 10.941406 0.390625 8.734375 0.390625 C 6.953125 0.390625 5.195312 0.0507812 3.46875 -0.625 C 2.894531 -0.851562 2.394531 -1.113281 1.96875 -1.40625 L 2.125 -6.53125 L 2.1875 -6.578125 C 3.457031 -4.390625 5.539062 -3.296875 8.4375 -3.296875 C 10.488281 -3.296875 11.84375 -3.789062 12.5 -4.78125 C 12.726562 -5.113281 12.84375 -5.488281 12.84375 -5.90625 C 12.84375 -6.320312 12.773438 -6.664062 12.640625 -6.9375 C 12.515625 -7.207031 12.296875 -7.441406 11.984375 -7.640625 C 11.390625 -8.023438 10.390625 -8.28125 8.984375 -8.40625 C 7.585938 -8.539062 6.445312 -8.789062 5.5625 -9.15625 C 4.675781 -9.53125 3.96875 -9.988281 3.4375 -10.53125 C 2.476562 -11.507812 2 -12.878906 2 -14.640625 C 2 -16.453125 2.632812 -17.921875 3.90625 -19.046875 C 5.207031 -20.191406 6.957031 -20.765625 9.15625 -20.765625 C 11.363281 -20.765625 13.289062 -20.257812 14.9375 -19.25 Z M 14.9375 -19.25 "/></g></g></g><g fill="#d9d9d9" fill-opacity="1"><g transform="translate(199.25076, 184.538483)"><g><path d="M 11.765625 -20.765625 C 13.679688 -20.765625 15.3125 -20.429688 16.65625 -19.765625 L 16.65625 -15.078125 L 16.625 -15.046875 C 16.050781 -15.929688 14.847656 -16.515625 13.015625 -16.796875 C 12.472656 -16.890625 11.785156 -16.9375 10.953125 -16.9375 C 10.128906 -16.9375 9.316406 -16.78125 8.515625 -16.46875 C 7.722656 -16.15625 7.070312 -15.710938 6.5625 -15.140625 C 5.570312 -14.023438 5.078125 -12.4375 5.078125 -10.375 C 5.078125 -7.976562 5.703125 -6.191406 6.953125 -5.015625 C 7.992188 -4.035156 9.375 -3.546875 11.09375 -3.546875 C 13.039062 -3.546875 14.613281 -3.957031 15.8125 -4.78125 C 16.257812 -5.082031 16.632812 -5.453125 16.9375 -5.890625 L 16.984375 -5.859375 L 16.984375 -1.5625 C 15.421875 -0.257812 13.316406 0.390625 10.671875 0.390625 C 7.554688 0.390625 5.113281 -0.601562 3.34375 -2.59375 C 1.644531 -4.476562 0.796875 -6.976562 0.796875 -10.09375 C 0.796875 -13.394531 1.726562 -16 3.59375 -17.90625 C 5.46875 -19.8125 8.191406 -20.765625 11.765625 -20.765625 Z M 11.765625 -20.765625 "/></g></g></g><g fill="#d9d9d9" fill-opacity="1"><g transform="translate(221.858228, 184.538483)"><g><path d="M 6.78125 0.09375 C 5.789062 0.03125 4.625 0 3.28125 0 L 2.796875 0 L 2.796875 -20.46875 C 3.421875 -20.414062 3.867188 -20.390625 4.140625 -20.390625 L 4.765625 -20.390625 C 5.578125 -20.390625 6.25 -20.429688 6.78125 -20.515625 L 6.78125 -12.34375 L 13.984375 -12.34375 L 13.984375 -20.46875 C 14.828125 -20.414062 15.648438 -20.390625 16.453125 -20.390625 C 17.253906 -20.390625 17.757812 -20.429688 17.96875 -20.515625 L 17.96875 0.09375 C 17.476562 0.03125 16.503906 0 15.046875 0 L 13.984375 0 L 13.984375 -8.65625 L 6.78125 -8.65625 Z M 6.78125 0.09375 "/></g></g></g><g fill="#d9d9d9" fill-opacity="1"><g transform="translate(247.163751, 184.538483)"><g><path d="M 4.125 0.125 C 3.25 0.0390625 2.222656 0 1.046875 0 L -0.171875 0 L 6.5 -18.6875 C 6.789062 -19.519531 6.9375 -20.003906 6.9375 -20.140625 C 6.9375 -20.285156 6.929688 -20.375 6.921875 -20.40625 L 6.9375 -20.4375 C 7.601562 -20.40625 8.3125 -20.390625 9.0625 -20.390625 C 9.675781 -20.390625 10.410156 -20.398438 11.265625 -20.421875 L 11.28125 -20.390625 C 11.257812 -20.347656 11.25 -20.289062 11.25 -20.21875 C 11.25 -20.019531 11.398438 -19.503906 11.703125 -18.671875 L 18.515625 0.046875 C 18.304688 0.0351562 18.066406 0.03125 17.796875 0.03125 C 17.796875 0.03125 17.53125 0.0195312 17 0 C 16.738281 0 16.507812 0 16.3125 0 L 13.9375 0 L 12.484375 -4.421875 L 5.5625 -4.421875 Z M 11.296875 -8.09375 L 8.984375 -15.21875 L 6.734375 -8.09375 Z M 11.296875 -8.09375 "/></g></g></g><g fill="#d9d9d9" fill-opacity="1"><g transform="translate(269.909187, 184.538483)"><g><path d="M 10 0.09375 C 9.5 0.03125 8.234375 0 6.203125 0 L 5.71875 0 L 5.71875 -16.953125 L 2.6875 -16.953125 C 1.78125 -16.953125 1.242188 -16.90625 1.078125 -16.8125 C 0.921875 -16.71875 0.796875 -16.632812 0.703125 -16.5625 L 0.65625 -16.578125 L 0.65625 -20.515625 L 0.703125 -20.546875 C 1.035156 -20.441406 1.945312 -20.390625 3.4375 -20.390625 L 13.046875 -20.390625 C 13.941406 -20.390625 14.472656 -20.429688 14.640625 -20.515625 C 14.804688 -20.609375 14.929688 -20.691406 15.015625 -20.765625 L 15.0625 -20.75 L 15.0625 -16.828125 L 15.015625 -16.78125 C 14.679688 -16.894531 13.773438 -16.953125 12.296875 -16.953125 L 10 -16.953125 Z M 10 0.09375 "/></g></g></g><g fill="#d9d9d9" fill-opacity="1"><g transform="translate(290.033218, 184.538483)"><g><path d="M 14.9375 -19.25 L 14.65625 -14.75 L 14.546875 -14.71875 C 13.785156 -15.851562 12.5 -16.585938 10.6875 -16.921875 C 10.113281 -17.035156 9.5625 -17.09375 9.03125 -17.09375 C 8.507812 -17.09375 8.0625 -17.046875 7.6875 -16.953125 C 7.3125 -16.859375 6.992188 -16.722656 6.734375 -16.546875 C 6.171875 -16.179688 5.890625 -15.703125 5.890625 -15.109375 C 5.890625 -14.335938 6.132812 -13.753906 6.625 -13.359375 C 7.238281 -12.890625 8.253906 -12.5625 9.671875 -12.375 C 11.085938 -12.1875 12.222656 -11.925781 13.078125 -11.59375 C 13.941406 -11.269531 14.648438 -10.859375 15.203125 -10.359375 C 16.242188 -9.421875 16.765625 -8.09375 16.765625 -6.375 C 16.765625 -4.125 15.914062 -2.394531 14.21875 -1.1875 C 12.769531 -0.132812 10.941406 0.390625 8.734375 0.390625 C 6.953125 0.390625 5.195312 0.0507812 3.46875 -0.625 C 2.894531 -0.851562 2.394531 -1.113281 1.96875 -1.40625 L 2.125 -6.53125 L 2.1875 -6.578125 C 3.457031 -4.390625 5.539062 -3.296875 8.4375 -3.296875 C 10.488281 -3.296875 11.84375 -3.789062 12.5 -4.78125 C 12.726562 -5.113281 12.84375 -5.488281 12.84375 -5.90625 C 12.84375 -6.320312 12.773438 -6.664062 12.640625 -6.9375 C 12.515625 -7.207031 12.296875 -7.441406 11.984375 -7.640625 C 11.390625 -8.023438 10.390625 -8.28125 8.984375 -8.40625 C 7.585938 -8.539062 6.445312 -8.789062 5.5625 -9.15625 C 4.675781 -9.53125 3.96875 -9.988281 3.4375 -10.53125 C 2.476562 -11.507812 2 -12.878906 2 -14.640625 C 2 -16.453125 2.632812 -17.921875 3.90625 -19.046875 C 5.207031 -20.191406 6.957031 -20.765625 9.15625 -20.765625 C 11.363281 -20.765625 13.289062 -20.257812 14.9375 -19.25 Z M 14.9375 -19.25 "/></g></g></g><g fill="#d9d9d9" fill-opacity="1"><g transform="translate(146.250508, 207.882835)"><g><path d="M 10.359375 -11.375 C 10.671875 -11.375 10.914062 -11.285156 11.09375 -11.109375 C 11.28125 -10.929688 11.375 -10.710938 11.375 -10.453125 C 11.375 -9.910156 11.070312 -9.488281 10.46875 -9.1875 C 9.925781 -8.9375 9.1875 -8.8125 8.25 -8.8125 C 8.09375 -8.8125 7.835938 -8.816406 7.484375 -8.828125 L 5.53125 -1.53125 C 5.457031 -1.269531 5.421875 -1.066406 5.421875 -0.921875 C 5.421875 -0.691406 5.503906 -0.53125 5.671875 -0.4375 C 5.835938 -0.34375 6.125 -0.285156 6.53125 -0.265625 L 6.46875 0 C 5.914062 -0.03125 5.097656 -0.046875 4.015625 -0.046875 C 2.960938 -0.046875 2.1875 -0.03125 1.6875 0 L 1.734375 -0.265625 C 2.117188 -0.285156 2.414062 -0.332031 2.625 -0.40625 C 2.832031 -0.476562 2.992188 -0.597656 3.109375 -0.765625 C 3.234375 -0.941406 3.335938 -1.195312 3.421875 -1.53125 L 5.421875 -9.03125 C 4.765625 -9.09375 4.234375 -9.125 3.828125 -9.125 C 3.097656 -9.125 2.597656 -9.050781 2.328125 -8.90625 C 2.554688 -8.832031 2.742188 -8.695312 2.890625 -8.5 C 3.046875 -8.3125 3.125 -8.085938 3.125 -7.828125 C 3.125 -7.515625 3.023438 -7.25 2.828125 -7.03125 C 2.640625 -6.820312 2.394531 -6.71875 2.09375 -6.71875 C 1.800781 -6.71875 1.566406 -6.816406 1.390625 -7.015625 C 1.222656 -7.210938 1.140625 -7.460938 1.140625 -7.765625 C 1.140625 -8.003906 1.207031 -8.238281 1.34375 -8.46875 C 1.476562 -8.707031 1.695312 -8.898438 2 -9.046875 C 2.4375 -9.253906 3.03125 -9.359375 3.78125 -9.359375 C 4.363281 -9.359375 5.1875 -9.304688 6.25 -9.203125 C 7.21875 -9.117188 7.925781 -9.078125 8.375 -9.078125 C 8.96875 -9.078125 9.4375 -9.132812 9.78125 -9.25 C 9.644531 -9.375 9.53125 -9.523438 9.4375 -9.703125 C 9.351562 -9.878906 9.3125 -10.078125 9.3125 -10.296875 C 9.3125 -10.609375 9.40625 -10.863281 9.59375 -11.0625 C 9.789062 -11.269531 10.046875 -11.375 10.359375 -11.375 Z M 10.359375 -11.375 "/></g></g></g><g fill="#d9d9d9" fill-opacity="1"><g transform="translate(156.934326, 207.882835)"><g><path d="M 6.203125 -6 C 6.203125 -5.257812 5.789062 -4.613281 4.96875 -4.0625 C 4.144531 -3.519531 3.191406 -3.097656 2.109375 -2.796875 C 2.054688 -2.492188 2.03125 -2.191406 2.03125 -1.890625 C 2.03125 -1.421875 2.113281 -1.085938 2.28125 -0.890625 C 2.457031 -0.703125 2.710938 -0.609375 3.046875 -0.609375 C 3.328125 -0.609375 3.640625 -0.691406 3.984375 -0.859375 C 4.328125 -1.035156 4.660156 -1.316406 4.984375 -1.703125 L 5.203125 -1.59375 C 4.878906 -1.09375 4.453125 -0.671875 3.921875 -0.328125 C 3.390625 0.015625 2.789062 0.1875 2.125 0.1875 C 1.507812 0.1875 1.007812 0.0234375 0.625 -0.296875 C 0.238281 -0.628906 0.046875 -1.09375 0.046875 -1.6875 C 0.046875 -2.46875 0.253906 -3.28125 0.671875 -4.125 C 1.097656 -4.96875 1.675781 -5.664062 2.40625 -6.21875 C 3.144531 -6.769531 3.953125 -7.046875 4.828125 -7.046875 C 5.234375 -7.046875 5.5625 -6.953125 5.8125 -6.765625 C 6.070312 -6.585938 6.203125 -6.332031 6.203125 -6 Z M 4.53125 -6.796875 C 4.28125 -6.796875 3.988281 -6.613281 3.65625 -6.25 C 3.332031 -5.882812 3.03125 -5.410156 2.75 -4.828125 C 2.476562 -4.253906 2.28125 -3.660156 2.15625 -3.046875 C 2.78125 -3.328125 3.265625 -3.625 3.609375 -3.9375 C 3.960938 -4.257812 4.238281 -4.625 4.4375 -5.03125 C 4.644531 -5.445312 4.75 -5.890625 4.75 -6.359375 C 4.75 -6.523438 4.726562 -6.640625 4.6875 -6.703125 C 4.65625 -6.765625 4.601562 -6.796875 4.53125 -6.796875 Z M 4.53125 -6.796875 "/></g></g></g><g fill="#d9d9d9" fill-opacity="1"><g transform="translate(164.808393, 207.882835)"><g><path d="M 4.75 -6.78125 C 4.3125 -6.78125 3.882812 -6.539062 3.46875 -6.0625 C 3.0625 -5.59375 2.726562 -4.972656 2.46875 -4.203125 C 2.21875 -3.441406 2.09375 -2.660156 2.09375 -1.859375 C 2.09375 -0.972656 2.429688 -0.53125 3.109375 -0.53125 C 3.742188 -0.53125 4.328125 -0.921875 4.859375 -1.703125 L 5.125 -1.59375 C 4.800781 -1.082031 4.394531 -0.65625 3.90625 -0.3125 C 3.414062 0.0195312 2.859375 0.1875 2.234375 0.1875 C 1.585938 0.1875 1.070312 0.015625 0.6875 -0.328125 C 0.300781 -0.671875 0.109375 -1.179688 0.109375 -1.859375 C 0.109375 -2.617188 0.296875 -3.398438 0.671875 -4.203125 C 1.054688 -5.015625 1.59375 -5.691406 2.28125 -6.234375 C 2.96875 -6.773438 3.75 -7.046875 4.625 -7.046875 C 5.113281 -7.046875 5.503906 -6.921875 5.796875 -6.671875 C 6.097656 -6.429688 6.25 -6.128906 6.25 -5.765625 C 6.25 -5.523438 6.191406 -5.289062 6.078125 -5.0625 C 5.960938 -4.832031 5.800781 -4.644531 5.59375 -4.5 C 5.394531 -4.363281 5.175781 -4.296875 4.9375 -4.296875 C 4.71875 -4.296875 4.535156 -4.363281 4.390625 -4.5 C 4.242188 -4.644531 4.171875 -4.832031 4.171875 -5.0625 C 4.171875 -5.40625 4.289062 -5.710938 4.53125 -5.984375 C 4.769531 -6.253906 5.054688 -6.429688 5.390625 -6.515625 C 5.234375 -6.691406 5.019531 -6.78125 4.75 -6.78125 Z M 4.75 -6.78125 "/></g></g></g><g fill="#d9d9d9" fill-opacity="1"><g transform="translate(172.60294, 207.882835)"><g><path d="M 6.96875 -2.15625 L 6.625 -1.1875 C 6.3125 -0.269531 5.722656 0.1875 4.859375 0.1875 C 4.046875 0.1875 3.640625 -0.171875 3.640625 -0.890625 C 3.640625 -1.203125 3.707031 -1.546875 3.84375 -1.921875 L 5.03125 -5.5 C 5.101562 -5.757812 5.140625 -5.957031 5.140625 -6.09375 C 5.140625 -6.28125 5.054688 -6.375 4.890625 -6.375 C 4.648438 -6.375 4.359375 -6.144531 4.015625 -5.6875 C 3.671875 -5.226562 3.320312 -4.609375 2.96875 -3.828125 C 2.613281 -3.054688 2.289062 -2.207031 2 -1.28125 L 1.6875 -0.171875 C 1.675781 -0.160156 1.671875 -0.144531 1.671875 -0.125 L 1.671875 -0.140625 L 1.625 0 L -0.234375 0 L 2.390625 -8.84375 C 2.429688 -9.007812 2.453125 -9.132812 2.453125 -9.21875 C 2.453125 -9.394531 2.382812 -9.519531 2.25 -9.59375 C 2.113281 -9.675781 1.878906 -9.71875 1.546875 -9.71875 L 1.625 -10 C 2.25 -10.007812 2.804688 -10.054688 3.296875 -10.140625 C 3.785156 -10.234375 4.257812 -10.367188 4.71875 -10.546875 L 2.921875 -4.375 C 3.367188 -5.375 3.8125 -6.066406 4.25 -6.453125 C 4.6875 -6.847656 5.1875 -7.046875 5.75 -7.046875 C 6.164062 -7.046875 6.46875 -6.945312 6.65625 -6.75 C 6.851562 -6.5625 6.953125 -6.304688 6.953125 -5.984375 C 6.953125 -5.703125 6.890625 -5.390625 6.765625 -5.046875 L 5.46875 -1.125 C 5.414062 -0.96875 5.390625 -0.84375 5.390625 -0.75 C 5.390625 -0.5625 5.476562 -0.46875 5.65625 -0.46875 C 5.945312 -0.46875 6.21875 -0.816406 6.46875 -1.515625 L 6.71875 -2.15625 Z M 6.96875 -2.15625 "/></g></g></g><g fill="#d9d9d9" fill-opacity="1"><g transform="translate(181.815611, 207.882835)"><g><path d="M 7.421875 -2.15625 L 7.078125 -1.1875 C 6.765625 -0.269531 6.175781 0.1875 5.3125 0.1875 C 4.8125 0.1875 4.457031 0.0390625 4.25 -0.25 C 4.132812 -0.414062 4.078125 -0.625 4.078125 -0.875 C 4.078125 -1.15625 4.144531 -1.503906 4.28125 -1.921875 L 5.484375 -5.5 C 5.554688 -5.738281 5.59375 -5.929688 5.59375 -6.078125 C 5.59375 -6.273438 5.507812 -6.375 5.34375 -6.375 C 5.082031 -6.375 4.765625 -6.101562 4.390625 -5.5625 C 4.015625 -5.03125 3.632812 -4.320312 3.25 -3.4375 C 2.863281 -2.5625 2.53125 -1.632812 2.25 -0.65625 L 2.078125 0 L 0.21875 0 L 1.8125 -5.734375 C 1.863281 -5.890625 1.890625 -6.03125 1.890625 -6.15625 C 1.890625 -6.3125 1.816406 -6.390625 1.671875 -6.390625 C 1.503906 -6.390625 1.351562 -6.3125 1.21875 -6.15625 C 1.09375 -6.007812 0.960938 -5.738281 0.828125 -5.34375 L 0.578125 -4.671875 L 0.3125 -4.671875 L 0.671875 -5.671875 C 0.835938 -6.160156 1.0625 -6.507812 1.34375 -6.71875 C 1.632812 -6.9375 1.984375 -7.046875 2.390625 -7.046875 C 3.148438 -7.046875 3.53125 -6.679688 3.53125 -5.953125 C 3.53125 -5.703125 3.492188 -5.445312 3.421875 -5.1875 L 3.015625 -3.578125 C 3.378906 -4.484375 3.722656 -5.1875 4.046875 -5.6875 C 4.378906 -6.1875 4.71875 -6.535156 5.0625 -6.734375 C 5.40625 -6.941406 5.78125 -7.046875 6.1875 -7.046875 C 6.988281 -7.046875 7.390625 -6.691406 7.390625 -5.984375 C 7.390625 -5.710938 7.332031 -5.398438 7.21875 -5.046875 L 5.921875 -1.125 C 5.867188 -0.96875 5.84375 -0.84375 5.84375 -0.75 C 5.84375 -0.5625 5.925781 -0.46875 6.09375 -0.46875 C 6.226562 -0.46875 6.363281 -0.539062 6.5 -0.6875 C 6.644531 -0.84375 6.785156 -1.117188 6.921875 -1.515625 L 7.15625 -2.15625 Z M 7.421875 -2.15625 "/></g></g></g><g fill="#d9d9d9" fill-opacity="1"><g transform="translate(191.465652, 207.882835)"><g><path d="M 0.15625 -2 C 0.15625 -2.726562 0.320312 -3.484375 0.65625 -4.265625 C 0.988281 -5.054688 1.476562 -5.71875 2.125 -6.25 C 2.78125 -6.78125 3.554688 -7.046875 4.453125 -7.046875 C 5.140625 -7.046875 5.671875 -6.859375 6.046875 -6.484375 C 6.421875 -6.109375 6.609375 -5.566406 6.609375 -4.859375 C 6.609375 -4.128906 6.441406 -3.367188 6.109375 -2.578125 C 5.773438 -1.796875 5.28125 -1.140625 4.625 -0.609375 C 3.976562 -0.078125 3.207031 0.1875 2.3125 0.1875 C 1.625 0.1875 1.09375 0 0.71875 -0.375 C 0.34375 -0.75 0.15625 -1.289062 0.15625 -2 Z M 4.390625 -6.78125 C 4.066406 -6.78125 3.707031 -6.460938 3.3125 -5.828125 C 2.925781 -5.203125 2.597656 -4.429688 2.328125 -3.515625 C 2.066406 -2.609375 1.9375 -1.765625 1.9375 -0.984375 C 1.9375 -0.660156 1.972656 -0.425781 2.046875 -0.28125 C 2.117188 -0.144531 2.234375 -0.078125 2.390625 -0.078125 C 2.710938 -0.078125 3.066406 -0.378906 3.453125 -0.984375 C 3.835938 -1.597656 4.160156 -2.359375 4.421875 -3.265625 C 4.691406 -4.171875 4.828125 -5.03125 4.828125 -5.84375 C 4.828125 -6.195312 4.789062 -6.441406 4.71875 -6.578125 C 4.644531 -6.710938 4.535156 -6.78125 4.390625 -6.78125 Z M 4.390625 -6.78125 "/></g></g></g><g fill="#d9d9d9" fill-opacity="1"><g transform="translate(200.134926, 207.882835)"><g><path d="M 1.890625 -1.125 C 1.847656 -1.007812 1.828125 -0.898438 1.828125 -0.796875 C 1.828125 -0.578125 1.921875 -0.46875 2.109375 -0.46875 C 2.378906 -0.46875 2.644531 -0.816406 2.90625 -1.515625 L 3.140625 -2.15625 L 3.390625 -2.15625 L 3.0625 -1.1875 C 2.894531 -0.6875 2.648438 -0.332031 2.328125 -0.125 C 2.015625 0.0820312 1.671875 0.1875 1.296875 0.1875 C 0.898438 0.1875 0.597656 0.0820312 0.390625 -0.125 C 0.191406 -0.332031 0.09375 -0.625 0.09375 -1 C 0.09375 -1.269531 0.144531 -1.578125 0.25 -1.921875 L 2.328125 -8.84375 C 2.378906 -9.007812 2.40625 -9.132812 2.40625 -9.21875 C 2.40625 -9.394531 2.332031 -9.519531 2.1875 -9.59375 C 2.050781 -9.675781 1.820312 -9.71875 1.5 -9.71875 L 1.59375 -10 C 2.195312 -10.007812 2.742188 -10.054688 3.234375 -10.140625 C 3.722656 -10.234375 4.203125 -10.367188 4.671875 -10.546875 Z M 1.890625 -1.125 "/></g></g></g><g fill="#d9d9d9" fill-opacity="1"><g transform="translate(205.769145, 207.882835)"><g><path d="M 0.15625 -2 C 0.15625 -2.726562 0.320312 -3.484375 0.65625 -4.265625 C 0.988281 -5.054688 1.476562 -5.71875 2.125 -6.25 C 2.78125 -6.78125 3.554688 -7.046875 4.453125 -7.046875 C 5.140625 -7.046875 5.671875 -6.859375 6.046875 -6.484375 C 6.421875 -6.109375 6.609375 -5.566406 6.609375 -4.859375 C 6.609375 -4.128906 6.441406 -3.367188 6.109375 -2.578125 C 5.773438 -1.796875 5.28125 -1.140625 4.625 -0.609375 C 3.976562 -0.078125 3.207031 0.1875 2.3125 0.1875 C 1.625 0.1875 1.09375 0 0.71875 -0.375 C 0.34375 -0.75 0.15625 -1.289062 0.15625 -2 Z M 4.390625 -6.78125 C 4.066406 -6.78125 3.707031 -6.460938 3.3125 -5.828125 C 2.925781 -5.203125 2.597656 -4.429688 2.328125 -3.515625 C 2.066406 -2.609375 1.9375 -1.765625 1.9375 -0.984375 C 1.9375 -0.660156 1.972656 -0.425781 2.046875 -0.28125 C 2.117188 -0.144531 2.234375 -0.078125 2.390625 -0.078125 C 2.710938 -0.078125 3.066406 -0.378906 3.453125 -0.984375 C 3.835938 -1.597656 4.160156 -2.359375 4.421875 -3.265625 C 4.691406 -4.171875 4.828125 -5.03125 4.828125 -5.84375 C 4.828125 -6.195312 4.789062 -6.441406 4.71875 -6.578125 C 4.644531 -6.710938 4.535156 -6.78125 4.390625 -6.78125 Z M 4.390625 -6.78125 "/></g></g></g><g fill="#d9d9d9" fill-opacity="1"><g transform="translate(214.438419, 207.882835)"><g><path d="M 6.15625 -7.625 C 6.425781 -7.625 6.632812 -7.546875 6.78125 -7.390625 C 6.9375 -7.242188 7.015625 -7.039062 7.015625 -6.78125 C 7.015625 -6.539062 6.953125 -6.351562 6.828125 -6.21875 C 6.703125 -6.082031 6.554688 -6.015625 6.390625 -6.015625 C 6.210938 -6.015625 6.054688 -6.082031 5.921875 -6.21875 C 5.796875 -6.351562 5.734375 -6.539062 5.734375 -6.78125 C 5.734375 -6.945312 5.769531 -7.140625 5.84375 -7.359375 C 5.5 -7.210938 5.234375 -7.015625 5.046875 -6.765625 C 5.285156 -6.648438 5.460938 -6.488281 5.578125 -6.28125 C 5.703125 -6.070312 5.765625 -5.820312 5.765625 -5.53125 C 5.765625 -5.15625 5.660156 -4.785156 5.453125 -4.421875 C 5.242188 -4.054688 4.945312 -3.738281 4.5625 -3.46875 C 4.1875 -3.195312 3.75 -3.015625 3.25 -2.921875 C 2.75 -2.703125 2.390625 -2.523438 2.171875 -2.390625 C 1.960938 -2.253906 1.859375 -2.125 1.859375 -2 C 1.859375 -1.925781 1.90625 -1.859375 2 -1.796875 C 2.101562 -1.742188 2.253906 -1.6875 2.453125 -1.625 L 3.5625 -1.25 C 4.03125 -1.09375 4.398438 -0.910156 4.671875 -0.703125 C 4.941406 -0.492188 5.078125 -0.195312 5.078125 0.1875 C 5.078125 0.613281 4.894531 1.003906 4.53125 1.359375 C 4.164062 1.710938 3.671875 1.992188 3.046875 2.203125 C 2.429688 2.421875 1.765625 2.53125 1.046875 2.53125 C 0.359375 2.53125 -0.210938 2.4375 -0.671875 2.25 C -1.128906 2.070312 -1.359375 1.832031 -1.359375 1.53125 C -1.359375 1.21875 -1.109375 0.953125 -0.609375 0.734375 C -0.117188 0.515625 0.4375 0.375 1.0625 0.3125 L 1.109375 0.5 C 0.566406 0.800781 0.296875 1.148438 0.296875 1.546875 C 0.296875 1.796875 0.382812 1.984375 0.5625 2.109375 C 0.75 2.242188 1.007812 2.3125 1.34375 2.3125 C 1.664062 2.3125 2.003906 2.242188 2.359375 2.109375 C 2.722656 1.984375 3.023438 1.8125 3.265625 1.59375 C 3.503906 1.382812 3.625 1.15625 3.625 0.90625 C 3.625 0.757812 3.570312 0.648438 3.46875 0.578125 C 3.363281 0.515625 3.1875 0.453125 2.9375 0.390625 L 1.046875 -0.15625 C 0.804688 -0.226562 0.613281 -0.335938 0.46875 -0.484375 C 0.320312 -0.628906 0.25 -0.804688 0.25 -1.015625 C 0.25 -1.335938 0.4375 -1.632812 0.8125 -1.90625 C 1.1875 -2.1875 1.789062 -2.503906 2.625 -2.859375 L 2.5 -2.859375 C 1.90625 -2.859375 1.421875 -2.976562 1.046875 -3.21875 C 0.679688 -3.46875 0.5 -3.84375 0.5 -4.34375 C 0.5 -4.75 0.625 -5.15625 0.875 -5.5625 C 1.132812 -5.976562 1.507812 -6.328125 2 -6.609375 C 2.5 -6.890625 3.085938 -7.03125 3.765625 -7.03125 C 4.140625 -7.03125 4.484375 -6.984375 4.796875 -6.890625 C 4.960938 -7.109375 5.164062 -7.285156 5.40625 -7.421875 C 5.644531 -7.554688 5.894531 -7.625 6.15625 -7.625 Z M 2.71875 -3.09375 C 3.113281 -3.09375 3.414062 -3.390625 3.625 -3.984375 C 3.84375 -4.578125 3.953125 -5.234375 3.953125 -5.953125 C 3.953125 -6.222656 3.921875 -6.429688 3.859375 -6.578125 C 3.804688 -6.722656 3.695312 -6.796875 3.53125 -6.796875 C 3.269531 -6.796875 3.046875 -6.640625 2.859375 -6.328125 C 2.671875 -6.015625 2.53125 -5.628906 2.4375 -5.171875 C 2.34375 -4.722656 2.296875 -4.289062 2.296875 -3.875 C 2.296875 -3.59375 2.328125 -3.390625 2.390625 -3.265625 C 2.460938 -3.148438 2.570312 -3.09375 2.71875 -3.09375 Z M 2.71875 -3.09375 "/></g></g></g><g fill="#d9d9d9" fill-opacity="1"><g transform="translate(222.352247, 207.882835)"><g><path d="M 5.328125 -7.046875 C 5.910156 -7.046875 6.203125 -6.644531 6.203125 -5.84375 C 6.203125 -5.039062 5.945312 -4.085938 5.4375 -2.984375 C 4.925781 -1.890625 4.3125 -0.910156 3.59375 -0.046875 C 3.144531 0.484375 2.644531 0.957031 2.09375 1.375 C 1.550781 1.789062 0.992188 2.097656 0.421875 2.296875 C 0.0664062 2.429688 -0.242188 2.5 -0.515625 2.5 C -0.796875 2.5 -1.019531 2.429688 -1.1875 2.296875 C -1.351562 2.160156 -1.4375 1.976562 -1.4375 1.75 C -1.4375 1.507812 -1.347656 1.3125 -1.171875 1.15625 C -1.003906 1 -0.785156 0.921875 -0.515625 0.921875 C 0.00390625 0.921875 0.476562 1.226562 0.90625 1.84375 C 1.539062 1.53125 2.113281 1.125 2.625 0.625 L 1.59375 -5.71875 C 1.550781 -5.96875 1.503906 -6.132812 1.453125 -6.21875 C 1.398438 -6.300781 1.332031 -6.34375 1.25 -6.34375 C 1.144531 -6.34375 1.046875 -6.273438 0.953125 -6.140625 C 0.867188 -6.003906 0.757812 -5.742188 0.625 -5.359375 L 0.390625 -4.703125 L 0.125 -4.703125 L 0.46875 -5.671875 C 0.644531 -6.179688 0.863281 -6.535156 1.125 -6.734375 C 1.394531 -6.941406 1.71875 -7.046875 2.09375 -7.046875 C 2.476562 -7.046875 2.773438 -6.9375 2.984375 -6.71875 C 3.191406 -6.507812 3.335938 -6.140625 3.421875 -5.609375 L 4.03125 -1.0625 C 4.414062 -1.613281 4.75 -2.179688 5.03125 -2.765625 C 5.320312 -3.347656 5.535156 -3.90625 5.671875 -4.4375 C 5.304688 -4.625 5.007812 -4.867188 4.78125 -5.171875 C 4.550781 -5.472656 4.4375 -5.796875 4.4375 -6.140625 C 4.4375 -6.410156 4.515625 -6.628906 4.671875 -6.796875 C 4.835938 -6.960938 5.054688 -7.046875 5.328125 -7.046875 Z M 5.328125 -7.046875 "/></g></g></g></svg>